<svg xmlns="http://www.w3.org/2000/svg" width="236" height="260" fill="none"><mask id="path-1-outside-1_1_5915" width="41.098" height="253.315" x="12.991" y="4.502" fill="#000" maskUnits="userSpaceOnUse"><path fill="#fff" d="M12.991 4.502h41.098v253.315H12.991z"/><path d="M15.093 17.127 15.008 6.9 50.01 18.133l.108 12.954-34.813 11.812-.084-10.227 25.23-7.846-.001-.273zm13.756-2.023.16 19.227-7.091.058-.16-19.226zM15.334 46.26l34.908-.29.126 15.136q.032 3.99-1.018 6.708-1.051 2.736-3 4.133-1.95 1.414-4.608 1.436-1.926.015-3.518-.823a7.5 7.5 0 0 1-2.679-2.33q-1.07-1.509-1.495-3.534l-.34.003q-.068 2.25-1.109 4.1a7.84 7.84 0 0 1-2.856 2.956q-1.815 1.106-4.286 1.127-2.865.024-5.11-1.458-2.244-1.465-3.546-4.198-1.3-2.733-1.332-6.535zm7.647 9.414.037 4.432q.02 2.386.916 3.572.912 1.185 2.669 1.171 1.228-.01 2.074-.58.848-.57 1.282-1.613.435-1.026.423-2.475l-.038-4.568zm13.227-.11.032 3.887q.01 1.245.41 2.195.4.952 1.138 1.474.754.54 1.828.53 1.62-.013 2.462-1.18.859-1.166.845-2.938l-.034-4.023zm-2.873 56.43q-5.829.048-9.854-2.186-4.006-2.234-6.102-6.069-2.077-3.834-2.116-8.573-.04-4.773 1.99-8.642 2.049-3.853 6.018-6.152 3.987-2.284 9.782-2.332 5.829-.049 9.837 2.169 4.024 2.233 6.101 6.052 2.095 3.835 2.134 8.607.04 4.739-1.991 8.608-2.013 3.869-6 6.169-3.97 2.3-9.8 2.349m-.081-9.75q3.136-.025 5.277-.879 2.158-.836 3.252-2.465 1.111-1.611 1.093-3.963-.021-2.353-1.158-3.962-1.122-1.593-3.293-2.41-2.155-.8-5.291-.775-3.135.026-5.294.862-2.14.853-3.253 2.465-1.094 1.628-1.075 3.98t1.141 3.946q1.14 1.61 3.293 2.41 2.172.817 5.308.791m17.743 34.648.078 9.477-22.363.186q-3.988.032-6.919-1.852-2.912-1.868-4.526-5.247-1.596-3.379-1.634-7.862-.037-4.517 1.503-7.921 1.556-3.406 4.439-5.322 2.898-1.899 6.887-1.932l22.363-.185.079 9.477-21.545.178q-1.62.014-2.892.74a5.17 5.17 0 0 0-1.96 1.994q-.705 1.284-.692 2.903.013 1.637.74 2.892a5.16 5.16 0 0 0 1.993 1.961q1.285.705 2.904.692zm-7.529 13.09 7.637-.063.251 30.339-7.636.064-.087-10.5-27.272.226-.077-9.34 27.272-.226zm8.169 64.064.078 9.477-22.363.185q-3.988.033-6.919-1.852-2.913-1.868-4.526-5.246-1.596-3.38-1.634-7.862-.038-4.517 1.503-7.922 1.557-3.405 4.439-5.321 2.899-1.899 6.887-1.932l22.363-.186.079 9.477-21.545.179q-1.62.014-2.891.74a5.16 5.16 0 0 0-1.961 1.994q-.705 1.284-.692 2.903.014 1.637.74 2.892a5.17 5.17 0 0 0 1.993 1.961q1.285.705 2.904.691zM41 246.936q1.704-.151 2.648-1.301.946-1.133.927-3.434-.013-1.465-.378-2.4-.349-.918-.95-1.356a2.3 2.3 0 0 0-1.367-.449q-.63-.028-1.14.231-.491.278-.896.86-.387.583-.704 1.489t-.561 2.152l-.59 2.869q-.59 2.902-1.578 4.974-.99 2.07-2.342 3.394a8.4 8.4 0 0 1-3.018 1.951q-1.681.645-3.676.679-3.443.011-5.843-1.674t-3.671-4.844q-1.27-3.144-1.308-7.575-.037-4.55 1.281-7.954 1.319-3.386 4.098-5.284 2.798-1.881 7.178-1.935l.074 9q-1.601.099-2.686.823-1.085.726-1.637 2.025-.55 1.317-.536 3.124.012 1.517.396 2.537.383 1.02 1.052 1.542.67.523 1.522.533a2.16 2.16 0 0 0 1.393-.54q.61-.5 1.078-1.645.485-1.146.894-3.093l.721-3.483q.967-4.645 3.298-7.34 2.346-2.68 6.438-2.696 3.323-.045 5.827 1.724 2.52 1.787 3.944 4.962 1.425 3.194 1.459 7.335.035 4.227-1.354 7.324t-3.95 4.788q-2.542 1.71-5.968 1.755z"/></mask><path fill="#05C2DF" d="m15.093 17.127-1 .008.006.743.713.209zM15.008 6.9l.305-.952-1.317-.423.012 1.384zM50.01 18.133l1-.008-.006-.723-.688-.221zm.108 12.954.321.947.685-.232-.006-.723zM15.306 42.899l-1 .008.012 1.383 1.31-.444zm-.084-10.227-.297-.955-.71.22.007.743zm25.23-7.846.298.955.709-.22-.006-.743zm-.001-.273 1-.008-.007-.743-.712-.208zm-11.602-9.45 1-.007-.008-1-1 .008zm.16 19.228.008 1 1-.009-.008-1zm-7.091.058-1 .009.008 1 1-.009zm-.16-19.226-.008-1-1 .008.008 1zm-5.665 1.956-.085-10.227-2 .017.085 10.226zm-1.39-9.267 35.003 11.233.61-1.904L15.314 5.948zm34.308 10.29.108 12.953 2-.016-.108-12.954zm.786 11.998L14.985 41.952l.643 1.894L50.44 32.034zm-33.49 12.75-.085-10.226-2 .016.085 10.227zm-.788-9.263 25.23-7.846-.593-1.91-25.231 7.846zm25.934-8.81-.003-.272-2 .017.003.272zm-.721-1.223-25.358-7.427-.562 1.92 25.358 7.426zm-12.883-8.482.16 19.227 2-.017-.16-19.226zM29 33.331l-7.09.058.016 2 7.09-.059zm-6.082 1.05-.16-19.227-2 .017.16 19.227zm-1.151-18.218 7.09-.06-.016-2-7.09.06zM15.334 46.26l-.008-1-1 .008.008 1zm34.908-.29 1-.008-.008-1-1 .008zm-.892 21.844-.933-.36v.001zm-3 4.133-.583-.813-.005.003zm-8.126.613.466-.885-.007-.004zm-2.679-2.33-.816.578.005.006zm-1.495-3.534.979-.205-.169-.801-.818.007zm-.34.003-.01-1-.962.008-.029.963zM32.6 70.8l-.871-.49-.004.006zm-2.856 2.956-.517-.856-.004.002zm-9.395-.331.55-.835-.004-.003zm-3.547-4.198.903-.43zm6.178-13.552-.008-1-1 .009.008 1zm.953 8.004-.798.603.006.007zm6.025-1.022-.92-.39-.003.006zm.385-7.043 1-.008-.008-1-1 .008zm5.864-.048-.009-1-1 .008.009 1zm.442 6.081-.922.388zm1.138 1.474.58-.814-.003-.002zm4.29-.65-.805-.593-.006.008zm.811-6.96 1-.01-.008-1-1 .01zm-27.546-8.25 34.908-.29-.017-2-34.908.29zm33.9-1.281.125 15.136 2-.017-.126-15.136zm.125 15.136c.021 2.576-.31 4.678-.951 6.338l1.865.722c.76-1.966 1.109-4.335 1.086-7.077zm-.952 6.34c-.646 1.683-1.54 2.885-2.649 3.68l1.165 1.625c1.49-1.069 2.596-2.622 3.351-4.587zm-2.654 3.682c-1.113.808-2.44 1.233-4.028 1.246l.016 2c1.958-.016 3.702-.55 5.187-1.627zm-4.028 1.246c-1.13.01-2.139-.231-3.044-.708l-.932 1.77c1.217.641 2.555.95 3.992.938zm-3.051-.712a6.5 6.5 0 0 1-2.326-2.026l-1.623 1.17a8.5 8.5 0 0 0 3.031 2.633zm-2.322-2.02c-.625-.88-1.073-1.928-1.332-3.16l-1.958.411c.31 1.468.857 2.776 1.659 3.906zm-2.32-3.954-.34.002.016 2 .341-.003zm-1.331.973c-.04 1.348-.37 2.555-.98 3.639l1.742.981c.779-1.382 1.188-2.91 1.237-4.561zm-.984 3.645a6.84 6.84 0 0 1-2.498 2.584l1.034 1.712a8.84 8.84 0 0 0 3.214-3.327zm-2.502 2.586c-1.032.629-2.277.968-3.774.98l.017 2c1.798-.014 3.41-.426 4.798-1.272zm-3.774.98c-1.724.015-3.23-.42-4.55-1.292L19.8 74.26c1.674 1.104 3.574 1.64 5.668 1.623zm-4.554-1.295c-1.323-.863-2.39-2.112-3.19-3.79l-1.806.86c.936 1.966 2.233 3.516 3.903 4.606zm-3.19-3.79c-.79-1.661-1.215-3.689-1.235-6.113l-2 .017c.022 2.643.485 4.972 1.43 6.956zm-1.235-6.113-.137-16.431-2 .016.137 16.432zm5.51-7 .037 4.431 2-.016-.037-4.432zm.037 4.431c.014 1.686.334 3.13 1.118 4.167l1.596-1.206c-.411-.543-.702-1.481-.714-2.977zm1.124 4.174c.834 1.084 2.047 1.573 3.469 1.561l-.017-2c-.918.008-1.485-.284-1.868-.781zm3.469 1.561c.974-.008 1.866-.24 2.624-.75l-1.115-1.66c-.373.25-.863.405-1.526.41zm2.624-.75c.745-.5 1.29-1.201 1.648-2.058l-1.847-.77c-.222.535-.531.91-.916 1.168zm1.645-2.053c.357-.841.511-1.81.502-2.873l-2 .017c.007.868-.12 1.55-.343 2.076zm.502-2.873-.038-4.568-2 .017.038 4.568zm-1.046-5.56-7.363.061.016 2 7.364-.06zm4.872.96.032 3.886 2-.017-.032-3.886zm.032 3.886c.008.934.162 1.799.488 2.575l1.844-.775c-.207-.492-.326-1.091-.332-1.817zm.488 2.575c.329.781.817 1.431 1.481 1.902l1.156-1.632c-.318-.226-.588-.558-.793-1.045zm1.478 1.9c.701.5 1.525.724 2.418.716l-.017-2c-.539.005-.933-.126-1.238-.344zm2.418.716c1.352-.011 2.49-.523 3.264-1.594l-1.62-1.171c-.35.484-.853.758-1.66.765zm3.259-1.586c.728-.988 1.05-2.192 1.04-3.54l-2 .016c.008 1.015-.232 1.77-.65 2.337zm1.04-3.54-.034-4.023-2 .016.034 4.023zM42.88 54.51l-6.682.056.017 2 6.682-.056zm-19.4 55.299-.487.874.002.001zm-6.102-6.069-.879.477.002.003zm-.125-17.215-.883-.47-.003.005zm6.017-6.152-.497-.868-.004.002zm19.619-.163.485-.875h-.001zm6.101 6.052-.878.478zm.143 17.215-.885-.465-.002.003zm-6 6.169-.5-.866-.001.001zm-4.603-8.28-.361-.932-.01.003zm3.252-2.465-.823-.567-.007.01zm-.065-7.925-.818.575.001.002zm-3.293-2.41.352-.937-.004-.001zm-10.585.087-.361-.932-.01.003zm-3.253 2.465-.823-.568-.006.01zm.066 7.926-.817.575v.002zm3.293 2.41.352-.936-.004-.002zm5.38 9.541c-3.758.031-6.863-.674-9.36-2.06l-.97 1.749c2.869 1.592 6.334 2.344 10.347 2.311zm-9.358-2.059c-2.515-1.402-4.41-3.292-5.71-5.675l-1.756.959c1.491 2.73 3.665 4.886 6.492 6.463zm-5.71-5.672c-1.3-2.401-1.97-5.096-1.995-8.105l-2 .016c.027 3.308.768 6.329 2.237 9.042zm-1.995-8.105c-.025-3.033.606-5.749 1.876-8.17l-1.77-.929c-1.438 2.739-2.134 5.784-2.106 9.115zm1.874-8.165c1.272-2.394 3.142-4.311 5.635-5.756l-1.002-1.73c-2.8 1.621-4.942 3.806-6.4 6.548zm5.631-5.754c2.475-1.417 5.557-2.168 9.293-2.199l-.016-2c-3.991.034-7.43.837-10.27 2.464zm9.293-2.199c3.76-.03 6.86.669 9.345 2.044l.968-1.75c-2.858-1.581-6.317-2.327-10.33-2.294zm9.343 2.043c2.527 1.403 4.42 3.287 5.709 5.656l1.757-.956c-1.481-2.723-3.656-4.873-6.495-6.449zm5.71 5.657c1.31 2.4 1.986 5.104 2.011 8.136l2-.016c-.028-3.33-.774-6.364-2.256-9.079zm2.011 8.136c.025 3.01-.606 5.714-1.876 8.135l1.77.93c1.437-2.738 2.134-5.772 2.106-9.081zm-1.878 8.138c-1.25 2.401-3.11 4.321-5.613 5.765l1 1.732c2.813-1.623 4.952-3.815 6.387-6.573zm-5.614 5.766c-2.462 1.426-5.547 2.183-9.306 2.214l.016 2c4.014-.034 7.46-.843 10.292-2.483zm-9.37-5.536c2.172-.018 4.062-.322 5.638-.95l-.74-1.858c-1.279.51-2.907.791-4.915.808zm5.63-.947c1.594-.617 2.857-1.554 3.72-2.839l-1.66-1.115c-.596.887-1.5 1.593-2.783 2.09zm3.713-2.829c.88-1.275 1.284-2.808 1.27-4.54l-2 .017c.011 1.405-.313 2.514-.916 3.388zm1.27-4.54c-.015-1.731-.444-3.26-1.342-4.53l-1.633 1.154c.62.877.963 1.989.974 3.393zm-1.34-4.529c-.884-1.255-2.16-2.169-3.76-2.77l-.704 1.871c1.297.488 2.216 1.181 2.828 2.05zm-3.763-2.772c-1.584-.588-3.476-.855-5.647-.837l.016 2c2.01-.017 3.645.233 4.935.712zm-5.647-.837c-2.172.018-4.064.316-5.647.93l.722 1.865c1.294-.502 2.931-.778 4.941-.795zm-5.656.933c-1.578.629-2.834 1.562-3.706 2.826l1.647 1.136c.61-.885 1.522-1.595 2.799-2.104zm-3.712 2.836c-.863 1.284-1.26 2.818-1.245 4.547l2-.017c-.012-1.407.308-2.527.904-3.415zm-1.245 4.547c.014 1.728.436 3.252 1.322 4.512l1.636-1.151c-.608-.864-.947-1.97-.959-3.378zm1.324 4.514c.893 1.264 2.168 2.178 3.76 2.77l.697-1.875c-1.28-.475-2.2-1.167-2.824-2.05zm3.757 2.769c1.595.6 3.495.873 5.668.855l-.016-2c-2.009.017-3.648-.238-4.948-.727zm23.403 34.503 1-.008-.009-1-1 .008zm.078 9.477.008 1 1-.008-.008-1zm-29.282-1.666.541-.841v-.001zm-4.526-5.247-.904.427.001.004zm-.131-15.783-.91-.416-.001.003zm4.439-5.322-.548-.836-.006.004zm29.25-2.117 1-.009-.008-1-1 .009zm.079 9.477.008 1 1-.009-.008-1zm-24.437.918-.495-.868-.005.003zm-1.96 1.994-.874-.486-.003.005zm.048 5.795-.866.501zm1.993 1.961-.486.874.005.002zm23.449.521.078 9.477 2-.016-.079-9.477zm1.07 8.469-22.363.186.017 2 22.363-.186zm-22.363.186c-2.493.02-4.602-.557-6.37-1.693l-1.082 1.682c2.14 1.376 4.644 2.034 7.469 2.011zm-6.37-1.694c-1.773-1.137-3.163-2.737-4.165-4.836l-1.805.862c1.15 2.406 2.778 4.304 4.89 5.658zm-4.163-4.832c-.991-2.098-1.514-4.571-1.538-7.443l-2 .017c.026 3.105.592 5.873 1.73 8.28zm-1.538-7.443c-.024-2.896.458-5.388 1.414-7.501l-1.822-.825c-1.098 2.427-1.618 5.216-1.592 8.343zm1.412-7.498c.967-2.115 2.33-3.738 4.083-4.904l-1.107-1.665c-2.089 1.389-3.686 3.313-4.795 5.738zm4.078-4.9c1.749-1.146 3.85-1.748 6.348-1.769l-.017-2c-2.821.024-5.31.71-7.427 2.096zm6.348-1.769 22.363-.185-.017-2-22.363.185zm21.354-1.177.079 9.477 2-.017-.079-9.477zm1.07 8.469-21.544.178.016 2 21.545-.178zm-21.544.178c-1.232.011-2.367.294-3.38.872l.992 1.737c.685-.391 1.477-.601 2.404-.609zm-3.384.875a6.16 6.16 0 0 0-2.334 2.373l1.747.972a4.17 4.17 0 0 1 1.588-1.614zm-2.337 2.378c-.56 1.021-.825 2.161-.815 3.393l2-.017c-.008-.927.189-1.723.568-2.414zm-.815 3.393c.01 1.241.293 2.379.874 3.384l1.731-1.002c-.387-.668-.598-1.458-.605-2.399zm.874 3.384a6.17 6.17 0 0 0 2.373 2.334l.973-1.748a4.16 4.16 0 0 1-1.615-1.588zm2.378 2.336c1.021.561 2.161.826 3.393.816l-.016-2c-.927.008-1.723-.189-2.414-.569zm3.393.816 21.545-.179-.017-2-21.544.179zm14.008 11.911-.008-1-1 .008.009 1zm7.637-.063 1-.009-.009-1-1 .009zm.251 30.339.009 1 1-.008-.009-1zm-7.636.064-1 .008.009 1 1-.008zm-.087-10.5 1-.008-.008-1-1 .008zm-27.272.226-1 .009.009 1 1-.009zm-.077-9.34-.008-1-1 .008.008 1zm27.272-.226.008 1 1-.009-.008-1zm-.08-9.5 7.637-.063-.017-2-7.636.063zm6.629-1.055.251 30.34 2-.017-.251-30.34zm1.243 29.332-7.636.063.017 2 7.636-.064zm-6.628 1.055-.087-10.5-2 .016.087 10.5zm-1.095-11.492-27.272.226.017 2 27.271-.226zm-26.264 1.218-.077-9.34-2 .016.077 9.341zm-1.069-8.332 27.272-.226-.017-2-27.271.226zm28.264-1.235-.087-10.499-2 .016.087 10.5zm7.08 53.573 1-.009-.008-1-1 .009zm.08 9.477.008 1 1-.009-.009-1zm-29.283-1.667.541-.841zm-4.526-5.246-.904.427.001.004zm-.131-15.784-.91-.416-.001.004zm4.439-5.321-.548-.836-.006.003zm29.25-2.118 1-.008-.008-1-1 .008zm.079 9.477.008 1 1-.008-.008-1zm-24.436.919-.496-.869-.005.003zm-1.961 1.994-.874-.487-.003.005zm.048 5.795-.866.501zm1.993 1.961-.486.873.005.003zm23.449.521.078 9.477 2-.017-.078-9.477zm1.07 8.469-22.363.185.017 2 22.363-.185zm-22.363.185c-2.493.021-4.602-.556-6.37-1.693l-1.082 1.682c2.14 1.377 4.644 2.035 7.469 2.011zm-6.37-1.693c-1.773-1.137-3.163-2.737-4.165-4.836l-1.805.862c1.15 2.406 2.778 4.303 4.89 5.657zm-4.163-4.832c-.991-2.099-1.514-4.571-1.538-7.443l-2 .016c.026 3.105.592 5.874 1.73 8.281zm-1.538-7.443c-.024-2.896.458-5.388 1.414-7.502l-1.822-.824c-1.098 2.427-1.618 5.216-1.592 8.342zm1.412-7.498c.967-2.115 2.33-3.738 4.083-4.904l-1.107-1.666c-2.089 1.389-3.686 3.313-4.795 5.738zm4.078-4.9c1.749-1.146 3.85-1.749 6.348-1.769l-.017-2c-2.821.023-5.31.709-7.427 2.096zm6.348-1.769 22.363-.186-.017-2-22.363.186zm21.354-1.177.079 9.477 2-.017-.079-9.477zm1.07 8.468-21.544.179.017 2 21.544-.179zm-21.544.179c-1.232.01-2.367.294-3.38.871l.992 1.737c.685-.39 1.478-.6 2.404-.608zm-3.384.874a6.17 6.17 0 0 0-2.334 2.373l1.747.973a4.17 4.17 0 0 1 1.588-1.615zm-2.337 2.378c-.56 1.022-.825 2.161-.815 3.393l2-.016c-.008-.927.189-1.723.568-2.414zm-.815 3.393c.01 1.242.293 2.379.874 3.385l1.731-1.002c-.387-.669-.597-1.459-.605-2.399zm.874 3.385a6.16 6.16 0 0 0 2.373 2.333l.973-1.747a4.17 4.17 0 0 1-1.615-1.588zm2.378 2.336c1.022.561 2.161.826 3.393.815l-.016-2c-.927.008-1.723-.189-2.414-.568zm3.393.815 21.545-.178-.017-2-21.544.178zM41 246.936l-.088-.996-.92.081.008.923zm2.648-1.301-.767-.64-.005.005zm.549-5.834-.935.355.004.009zm-.95-1.356.59-.807zm-1.367-.449-.045.999.016.001h.016zm-1.14.231-.454-.89-.018.009-.018.01zm-.896.86-.822-.57-.005.008-.006.009zm-1.265 3.641.98.202v-.008zm-.59 2.869-.98-.201v.002zm-3.92 8.368-.699-.715-.004.005zm-3.018 1.951-.349-.937-.008.004zm-3.676.679.003 1 .014-.001zm-5.843-1.674-.575.819zm-3.671-4.844.927-.373v-.002zm-.027-15.529-.932-.363v.002zm4.098-5.284-.558-.83-.005.004zm7.178-1.935 1-.008-.009-1.004-1.003.012zm.074 9 .062.998.946-.058-.008-.948zm-2.686.823-.556-.831zm-1.637 2.025-.92-.39-.002.004zm-.14 5.661-.936.352zm1.052 1.542-.615.788zm1.522.533-.012 1h.041zm1.393-.54-.634-.773-.011.009-.012.01zm1.078-1.645-.922-.39-.004.012zm.894-3.093.979.206v-.003zm.721-3.483-.979-.204v.001zm3.298-7.34-.753-.66-.004.006zm6.438-2.696.004 1h.01zm5.827 1.724.578-.816h-.001zm3.944 4.962.914-.407-.001-.002zm.105 14.659-.912-.409zm-3.95 4.789-.55-.835-.007.004zm-5.968 1.754-1 .008.009 1.005 1.005-.013zm.013-8.072c1.36-.12 2.507-.656 3.333-1.662L42.876 245c-.434.528-1.052.859-1.964.94zm3.328-1.656c.847-1.015 1.172-2.438 1.159-4.083l-2 .017c.011 1.423-.28 2.289-.694 2.785zm1.159-4.083c-.01-1.048-.143-1.98-.447-2.756l-1.862.728c.183.47.301 1.138.309 2.045zm-.444-2.747c-.279-.736-.694-1.371-1.294-1.808l-1.179 1.615c.201.146.419.416.604.903zm-1.294-1.808a3.3 3.3 0 0 0-1.943-.642l-.027 2c.311.005.564.091.791.257zm-1.91-.641a3.23 3.23 0 0 0-1.641.34l.909 1.781c.17-.086.374-.135.64-.123zm-1.677.359c-.49.275-.894.679-1.228 1.161l1.644 1.14c.205-.295.398-.464.565-.558zm-1.239 1.178c-.318.478-.586 1.056-.815 1.712l1.889.66c.192-.552.394-.967.592-1.265zm-.815 1.712q-.344.993-.598 2.289l1.962.387q.236-1.197.524-2.016zm-.597 2.281-.59 2.869 1.96.402.59-2.868zm-.59 2.871c-.381 1.877-.885 3.453-1.5 4.742l1.804.861c.703-1.472 1.251-3.212 1.656-5.205zm-1.5 4.742c-.62 1.296-1.337 2.325-2.139 3.11l1.399 1.43c1.001-.98 1.845-2.214 2.544-3.679zm-2.143 3.115a7.45 7.45 0 0 1-2.664 1.724l.699 1.874a9.4 9.4 0 0 0 3.372-2.178zm-2.672 1.728c-1.002.383-2.11.591-3.336.612l.034 1.999c1.434-.024 2.776-.268 4.017-.744zm-3.322.612c-2.126.007-3.863-.507-5.266-1.492l-1.149 1.637c1.798 1.261 3.956 1.863 6.421 1.855zm-5.266-1.492c-1.418-.995-2.53-2.443-3.318-4.399l-1.855.746c.907 2.256 2.241 4.039 4.024 5.29zm-3.318-4.401c-.788-1.949-1.21-4.343-1.235-7.208l-2 .016c.026 3.044.474 5.7 1.38 7.941zm-1.235-7.208c-.024-2.938.39-5.459 1.213-7.585l-1.864-.722c-.935 2.411-1.375 5.193-1.349 8.323zm1.213-7.583c.812-2.085 2.057-3.679 3.73-4.821l-1.127-1.652c-2.034 1.388-3.52 3.318-4.467 5.747zm3.725-4.817c1.66-1.118 3.848-1.731 6.63-1.765l-.023-2c-3.058.038-5.656.714-7.724 2.105zm5.619-2.757.074 9 2-.016-.074-9zm1.013 7.994c-1.204.074-2.28.388-3.18.99l1.11 1.663c.546-.365 1.261-.6 2.193-.657zm-3.18.99c-.9.6-1.565 1.435-2.002 2.466l1.84.781c.3-.703.725-1.218 1.273-1.584zm-2.004 2.47c-.432 1.031-.625 2.213-.614 3.519l2-.017c-.01-1.104.155-2.005.459-2.729zm-.614 3.519c.009 1.086.15 2.056.46 2.88l1.872-.704c-.202-.536-.325-1.257-.332-2.193zm.46 2.88c.302.804.746 1.489 1.373 1.978l1.231-1.576c-.266-.207-.523-.551-.732-1.106zm1.373 1.978c.62.484 1.339.736 2.125.745l.024-2a1.46 1.46 0 0 1-.918-.321zm2.166.745a3.16 3.16 0 0 0 2.021-.786l-1.314-1.508a1.16 1.16 0 0 1-.766.295zm1.998-.766c.588-.482 1.027-1.203 1.37-2.041l-1.852-.756c-.282.689-.561 1.066-.786 1.25zm1.364-2.03c.359-.847.673-1.948.953-3.276l-1.957-.412c-.267 1.267-.55 2.229-.837 2.909zm.954-3.279.72-3.484-1.958-.405-.72 3.483zm.72-3.483c.622-2.983 1.664-5.257 3.075-6.89l-1.513-1.307c-1.695 1.961-2.851 4.58-3.52 7.79zm3.07-6.884c1.348-1.538 3.203-2.345 5.69-2.355l-.008-2c-2.966.012-5.403 1.002-7.186 3.036zm5.7-2.355c2.023-.027 3.755.494 5.237 1.541l1.154-1.633c-1.856-1.312-4.01-1.94-6.418-1.908zm5.236 1.54c1.516 1.075 2.724 2.58 3.61 4.555l1.825-.818c-1.013-2.259-2.435-4.062-4.28-5.369zm3.61 4.554c.883 1.981 1.35 4.286 1.371 6.935l2-.016c-.024-2.874-.53-5.459-1.545-7.734zm1.371 6.935c.023 2.709-.412 5.001-1.266 6.907l1.824.818c.998-2.224 1.466-4.814 1.442-7.741zm-1.266 6.907c-.857 1.91-2.057 3.351-3.588 4.363l1.102 1.669c1.882-1.244 3.315-2.995 4.31-5.214zm-3.595 4.367c-1.515 1.019-3.31 1.557-5.424 1.585l.027 2c2.454-.033 4.638-.665 6.513-1.924zm-4.41 2.576L42 246.927l-2 .017.075 9.068z" mask="url('#path-1-outside-1_1_5915')"/><mask id="path-3-outside-2_1_5915" width="41.098" height="253.315" x="182.992" y="3.502" fill="#000" maskUnits="userSpaceOnUse"><path fill="#fff" d="M182.992 3.502h41.098v253.315h-41.098z"/><path d="M185.095 16.127 185.01 5.9l35.003 11.233.108 12.954-34.813 11.812-.084-10.227 25.231-7.846-.002-.273zm13.756-2.023.16 19.227-7.091.058-.16-19.226zM185.336 45.26l34.908-.29.126 15.136q.032 3.99-1.018 6.708-1.052 2.736-3 4.133-1.949 1.414-4.608 1.436-1.926.015-3.518-.823a7.5 7.5 0 0 1-2.679-2.33q-1.07-1.509-1.495-3.534l-.341.003q-.067 2.25-1.108 4.1a7.84 7.84 0 0 1-2.856 2.956q-1.815 1.106-4.287 1.127-2.864.024-5.108-1.458-2.245-1.465-3.547-4.198-1.3-2.733-1.332-6.535zm7.647 9.414.037 4.432q.02 2.386.916 3.572.912 1.185 2.669 1.171 1.227-.01 2.074-.58.848-.57 1.282-1.613.435-1.026.423-2.475l-.038-4.568zm13.227-.11.032 3.887q.01 1.245.41 2.195.4.952 1.137 1.474.755.54 1.829.53 1.619-.013 2.462-1.18.859-1.166.845-2.938l-.034-4.023zm-2.873 56.43q-5.83.048-9.854-2.186-4.007-2.234-6.102-6.069-2.076-3.834-2.116-8.573-.04-4.773 1.991-8.642 2.048-3.853 6.017-6.152 3.987-2.284 9.782-2.332 5.829-.049 9.837 2.169 4.024 2.233 6.101 6.052 2.094 3.835 2.134 8.607.04 4.739-1.991 8.608-2.013 3.869-6 6.169-3.97 2.3-9.799 2.349m-.081-9.75q3.137-.025 5.277-.879 2.158-.836 3.252-2.465 1.112-1.611 1.092-3.963t-1.157-3.962q-1.122-1.593-3.293-2.41-2.155-.8-5.291-.775t-5.294.862q-2.14.853-3.253 2.465-1.094 1.628-1.075 3.98t1.141 3.946q1.139 1.61 3.293 2.41 2.172.817 5.308.791m17.743 34.648.078 9.477-22.363.186q-3.988.032-6.919-1.852-2.913-1.868-4.526-5.247-1.597-3.379-1.634-7.862-.038-4.517 1.503-7.921 1.556-3.406 4.439-5.322 2.898-1.899 6.887-1.932l22.363-.185.079 9.477-21.545.178q-1.618.014-2.892.74a5.17 5.17 0 0 0-1.96 1.994q-.706 1.284-.692 2.903.013 1.637.74 2.892a5.16 5.16 0 0 0 1.993 1.961q1.284.705 2.904.692zm-7.529 13.09 7.637-.063.251 30.339-7.636.064-.087-10.5-27.272.226-.077-9.34 27.272-.226zm8.169 64.064.078 9.477-22.363.185q-3.988.033-6.919-1.852-2.913-1.868-4.526-5.246-1.596-3.38-1.634-7.862-.037-4.517 1.503-7.922 1.556-3.405 4.439-5.321 2.899-1.899 6.887-1.932l22.363-.186.079 9.477-21.545.179q-1.619.014-2.892.74a5.17 5.17 0 0 0-1.96 1.994q-.706 1.284-.692 2.903.014 1.637.74 2.892a5.17 5.17 0 0 0 1.993 1.961q1.285.705 2.904.691zm-10.637 32.889q1.704-.151 2.648-1.301.946-1.133.927-3.434-.013-1.465-.378-2.4-.35-.918-.949-1.356a2.3 2.3 0 0 0-1.368-.449q-.63-.028-1.14.231-.492.278-.896.86-.387.583-.704 1.489a16 16 0 0 0-.561 2.152l-.59 2.869q-.59 2.902-1.578 4.974-.989 2.07-2.342 3.394a8.4 8.4 0 0 1-3.018 1.951q-1.681.645-3.676.679-3.443.011-5.843-1.674t-3.671-4.844q-1.27-3.144-1.308-7.575-.038-4.55 1.281-7.954 1.318-3.386 4.098-5.284 2.797-1.881 7.178-1.935l.074 9q-1.601.099-2.686.823-1.085.726-1.637 2.025-.55 1.317-.536 3.124.012 1.517.396 2.537.383 1.02 1.052 1.542.67.523 1.522.533a2.16 2.16 0 0 0 1.393-.54q.61-.5 1.077-1.645.486-1.146.895-3.093l.721-3.483q.967-4.645 3.298-7.34 2.346-2.68 6.438-2.696 3.323-.045 5.827 1.724 2.52 1.787 3.944 4.962 1.425 3.194 1.459 7.335.035 4.227-1.354 7.324t-3.949 4.788q-2.543 1.71-5.969 1.755z"/></mask><path fill="#05C2DF" fill-opacity=".2" d="m185.095 16.127-1 .008.006.743.713.209zM185.01 5.9l.305-.952-1.317-.423.012 1.384zm35.003 11.233 1-.008-.006-.723-.688-.221zm.108 12.954.321.947.685-.232-.006-.723zm-34.813 11.812-1 .008.012 1.383 1.31-.444zm-.084-10.227-.297-.955-.71.22.007.743zm25.231-7.846.297.955.709-.22-.006-.743zm-.002-.273.999-.008-.006-.743-.712-.208zm-11.602-9.45 1-.007-.008-1-1 .008zm.16 19.228.008 1 1-.009-.009-1zm-7.091.058-1 .009.008 1 1-.009zm-.16-19.226-.008-1-1 .008.008 1zm-5.665 1.956-.085-10.227-2 .017.085 10.226zm-1.391-9.267 35.004 11.233.611-1.904-35.004-11.233zm34.309 10.29.108 12.953 2-.016-.108-12.954zm.786 11.998-34.812 11.812.643 1.894 34.812-11.812zm-33.491 12.75-.084-10.226-2 .016.084 10.227zm-.788-9.263 25.232-7.846-.594-1.91-25.231 7.846zm25.935-8.81-.003-.272-1.999.017.002.272zm-.721-1.223-25.358-7.427-.562 1.92 25.357 7.426zm-12.883-8.482.16 19.227 1.999-.017-.159-19.226zm1.151 18.219-7.09.058.016 2 7.091-.059zm-6.082 1.05-.16-19.227-2 .017.16 19.227zm-1.151-18.218 7.09-.06-.016-2-7.091.06zm-6.433 30.098-.008-1-1 .008.008 1zm34.908-.29 1-.008-.008-1-1 .008zm-.892 21.844-.933-.36-.001.001zm-3 4.133-.583-.813-.005.003zm-8.126.613.466-.885-.007-.004zm-2.679-2.33-.816.578.005.006zm-1.495-3.534.979-.205-.169-.801-.818.007zm-.341.003-.008-1-.963.008-.029.963zm-1.108 4.1-.871-.49-.004.006zm-2.856 2.956-.517-.856-.004.002zm-9.395-.331.55-.835-.004-.003zm-3.547-4.198.903-.43zm6.178-13.552-.008-1-1 .009.008 1zm.953 8.004-.798.603.005.007zm6.025-1.022-.92-.39-.003.006zm.385-7.043 1-.008-.008-1-1 .008zm5.864-.048-.009-1-1 .008.009 1zm.442 6.081-.922.388zm1.137 1.474.582-.814-.004-.002zm4.291-.65-.805-.593-.006.008zm.811-6.96 1-.01-.008-1-1 .01zm-27.546-8.25 34.907-.29-.016-2-34.908.29zm33.899-1.281.126 15.136 2-.017-.126-15.136zm.126 15.136c.021 2.576-.309 4.678-.951 6.338l1.865.722c.76-1.966 1.108-4.335 1.086-7.077zm-.952 6.34c-.646 1.683-1.541 2.885-2.649 3.68l1.165 1.625c1.49-1.069 2.596-2.622 3.351-4.587zm-2.654 3.682c-1.113.808-2.441 1.233-4.028 1.246l.016 2c1.958-.016 3.702-.55 5.187-1.627zm-4.028 1.246c-1.131.01-2.139-.231-3.044-.708l-.932 1.77c1.217.641 2.555.95 3.992.938zm-3.051-.712a6.5 6.5 0 0 1-2.326-2.026l-1.623 1.17a8.5 8.5 0 0 0 3.031 2.633zm-2.322-2.02c-.625-.88-1.073-1.928-1.332-3.16l-1.958.411c.309 1.468.857 2.776 1.658 3.906zm-2.319-3.954-.341.002.016 2 .341-.003zm-1.333.973c-.039 1.348-.369 2.555-.979 3.639l1.742.981c.779-1.382 1.188-2.91 1.237-4.561zm-.983 3.645a6.84 6.84 0 0 1-2.498 2.584l1.034 1.712a8.84 8.84 0 0 0 3.214-3.327zm-2.502 2.586c-1.032.629-2.277.968-3.774.98l.017 2c1.798-.014 3.41-.426 4.798-1.272zm-3.774.98c-1.724.015-3.23-.42-4.55-1.292l-1.101 1.67c1.673 1.104 3.574 1.64 5.668 1.623zm-4.554-1.295c-1.324-.863-2.391-2.112-3.19-3.79l-1.806.86c.936 1.966 2.233 3.516 3.903 4.606zm-3.19-3.79c-.791-1.661-1.215-3.689-1.235-6.113l-2 .017c.022 2.643.485 4.972 1.429 6.956zm-1.235-6.113-.137-16.431-2 .016.137 16.432zm5.51-7 .037 4.431 2-.016-.037-4.432zm.037 4.431c.014 1.686.333 3.13 1.118 4.167l1.595-1.206c-.41-.543-.701-1.481-.713-2.977zm1.123 4.174c.835 1.084 2.048 1.573 3.47 1.561l-.017-2c-.918.008-1.485-.284-1.868-.781zm3.47 1.561c.974-.008 1.866-.24 2.624-.75l-1.115-1.66c-.373.25-.863.405-1.526.41zm2.624-.75c.745-.5 1.291-1.201 1.648-2.058l-1.847-.77c-.222.535-.531.91-.916 1.168zm1.645-2.053c.357-.841.511-1.81.502-2.873l-2 .017c.007.868-.12 1.55-.343 2.076zm.502-2.873-.038-4.568-2 .017.038 4.568zm-1.046-5.56-7.363.061.016 2 7.364-.06zm4.872.96.032 3.886 2-.017-.032-3.886zm.032 3.886c.008.934.162 1.799.488 2.575l1.844-.775c-.207-.492-.326-1.091-.332-1.817zm.488 2.575c.329.781.817 1.431 1.481 1.902l1.156-1.632c-.318-.226-.588-.558-.793-1.045zm1.478 1.9c.701.5 1.525.723 2.418.716l-.017-2c-.539.005-.933-.126-1.238-.344zm2.418.716c1.352-.011 2.491-.523 3.264-1.594l-1.621-1.171c-.35.484-.852.758-1.66.765zm3.259-1.586c.728-.988 1.051-2.192 1.04-3.54l-2 .016c.008 1.015-.232 1.77-.65 2.337zm1.04-3.54-.034-4.023-2 .016.034 4.023zm-1.042-5.015-6.682.056.017 2 6.682-.056zm-19.4 55.299-.487.874.002.001zm-6.102-6.069-.879.477.002.003zm-.125-17.215-.883-.47-.003.005zm6.017-6.152-.497-.868-.004.002zm19.619-.163.485-.875h-.001zm6.101 6.052-.878.478h.001zm.143 17.215-.885-.465-.002.003zm-6 6.169-.5-.866-.001.001zm-4.603-8.28-.361-.933-.009.004zm3.252-2.465-.823-.567-.007.01zm-.065-7.925-.818.575.001.002zm-3.293-2.41.352-.937-.004-.001zm-10.585.087-.361-.932-.009.003zm-3.253 2.465-.823-.568-.007.01zm.066 7.926-.818.575.002.002zm3.293 2.41.352-.936-.004-.002zm5.381 9.541c-3.759.031-6.864-.674-9.361-2.06l-.97 1.749c2.869 1.592 6.333 2.344 10.347 2.311zm-9.359-2.059c-2.515-1.402-4.41-3.292-5.711-5.675l-1.755.959c1.491 2.73 3.664 4.886 6.492 6.463zm-5.709-5.672c-1.301-2.4-1.971-5.096-1.996-8.105l-2 .016c.027 3.308.768 6.329 2.237 9.042zm-1.996-8.105c-.025-3.033.606-5.749 1.876-8.17l-1.771-.929c-1.437 2.739-2.133 5.784-2.105 9.115zm1.874-8.165c1.272-2.394 3.142-4.311 5.635-5.756l-1.002-1.73c-2.8 1.621-4.942 3.806-6.399 6.548zm5.631-5.754c2.475-1.417 5.557-2.168 9.293-2.199l-.016-2c-3.991.034-7.43.837-10.271 2.464zm9.293-2.199c3.761-.03 6.859.669 9.345 2.044l.968-1.75c-2.858-1.581-6.317-2.327-10.329-2.294zm9.343 2.043c2.527 1.403 4.42 3.287 5.709 5.656l1.757-.956c-1.481-2.723-3.656-4.873-6.495-6.449zm5.71 5.657c1.31 2.4 1.986 5.104 2.011 8.136l2-.016c-.028-3.33-.774-6.364-2.256-9.079zm2.011 8.136c.025 3.01-.606 5.714-1.876 8.135l1.77.93c1.437-2.738 2.134-5.772 2.106-9.081zm-1.878 8.138c-1.249 2.401-3.111 4.321-5.613 5.765l1 1.732c2.813-1.623 4.952-3.815 6.387-6.573zm-5.614 5.766c-2.462 1.426-5.547 2.183-9.306 2.214l.016 2c4.014-.034 7.46-.843 10.292-2.483zm-9.371-5.536c2.173-.018 4.063-.322 5.639-.95l-.74-1.858c-1.279.51-2.907.791-4.915.808zm5.63-.947c1.595-.617 2.858-1.554 3.721-2.839l-1.66-1.115c-.596.887-1.501 1.593-2.783 2.09zm3.714-2.829c.88-1.275 1.284-2.808 1.269-4.54l-2 .017c.012 1.405-.312 2.514-.915 3.388zm1.269-4.54c-.014-1.731-.443-3.26-1.341-4.53l-1.633 1.154c.62.877.963 1.989.974 3.393zm-1.34-4.529c-.883-1.255-2.159-2.169-3.758-2.77l-.705 1.871c1.297.488 2.216 1.181 2.828 2.05zm-3.762-2.772c-1.584-.588-3.476-.855-5.647-.837l.016 2c2.011-.017 3.645.233 4.934.712zm-5.647-.837c-2.172.018-4.064.316-5.647.93l.722 1.865c1.294-.502 2.931-.778 4.941-.795zm-5.656.933c-1.578.629-2.834 1.562-3.706 2.826l1.647 1.136c.61-.885 1.522-1.595 2.799-2.104zm-3.713 2.836c-.862 1.284-1.259 2.818-1.244 4.547l1.999-.017c-.011-1.407.309-2.527.905-3.415zm-1.244 4.547c.014 1.728.436 3.252 1.322 4.512l1.636-1.151c-.608-.864-.947-1.97-.959-3.378zm1.324 4.514c.893 1.264 2.168 2.178 3.761 2.77l.696-1.875c-1.279-.475-2.2-1.167-2.824-2.05zm3.757 2.769c1.595.6 3.495.873 5.668.855l-.016-2c-2.009.017-3.648-.238-4.948-.727zm23.403 34.503.999-.008-.008-1-1 .008zm.078 9.477.008 1 1-.008-.008-1zm-29.282-1.666.541-.841-.001-.001zm-4.526-5.247-.905.427.002.004zm-.131-15.783-.91-.416-.001.003zm4.439-5.322-.548-.836-.006.004zm29.25-2.117 1-.009-.008-1-1 .009zm.079 9.477.008 1 1-.009-.008-1zm-24.437.918-.495-.868-.005.003zm-1.96 1.994-.874-.486-.003.005zm.048 5.795-.866.501zm1.993 1.961-.486.874.005.002zm23.449.521.078 9.477 2-.016-.079-9.477zm1.07 8.469-22.363.186.017 2 22.362-.186zm-22.363.186c-2.493.02-4.603-.557-6.37-1.693l-1.082 1.682c2.14 1.376 4.644 2.034 7.469 2.011zm-6.371-1.694c-1.773-1.137-3.162-2.737-4.164-4.836l-1.805.862c1.149 2.406 2.778 4.304 4.89 5.658zm-4.162-4.832c-.991-2.098-1.514-4.571-1.538-7.443l-2 .017c.026 3.105.592 5.873 1.729 8.28zm-1.538-7.443c-.024-2.896.458-5.388 1.414-7.501l-1.822-.825c-1.098 2.427-1.618 5.216-1.592 8.343zm1.412-7.498c.967-2.115 2.33-3.738 4.083-4.904l-1.107-1.665c-2.089 1.389-3.686 3.313-4.795 5.738zm4.078-4.9c1.749-1.146 3.851-1.748 6.348-1.769l-.017-2c-2.821.024-5.311.71-7.427 2.096zm6.348-1.769 22.362-.185-.016-2-22.363.185zm21.354-1.177.079 9.477 2-.017-.079-9.477zm1.07 8.469-21.544.178.016 2 21.545-.178zm-21.544.178c-1.232.011-2.367.294-3.379.872l.991 1.737c.685-.391 1.478-.601 2.404-.609zm-3.384.875a6.15 6.15 0 0 0-2.334 2.373l1.747.972a4.17 4.17 0 0 1 1.588-1.614zm-2.337 2.378c-.561 1.021-.825 2.161-.815 3.393l2-.017c-.008-.927.189-1.723.568-2.414zm-.815 3.393c.01 1.241.293 2.379.874 3.384l1.731-1.002c-.387-.668-.598-1.458-.605-2.399zm.874 3.384a6.17 6.17 0 0 0 2.373 2.334l.973-1.748a4.16 4.16 0 0 1-1.615-1.588zm2.378 2.336c1.021.561 2.161.826 3.393.816l-.016-2c-.927.008-1.724-.189-2.414-.569zm3.393.816 21.545-.179-.017-2-21.544.179zm14.008 11.911-.008-1-1 .008.009 1zm7.637-.063 1-.009-.009-1-1 .009zm.251 30.339.009 1 1-.008-.009-1zm-7.636.064-1 .008.009 1 1-.008zm-.087-10.5 1-.008-.008-1-1 .008zm-27.272.226-1 .009.009 1 1-.009zm-.077-9.34-.008-1-1 .008.008 1zm27.272-.226.008 1 1-.009-.008-1zm-.079-9.5 7.636-.063-.017-2-7.636.063zm6.628-1.055.251 30.34 2-.017-.251-30.34zm1.243 29.332-7.636.063.017 2 7.636-.064zm-6.628 1.055-.087-10.5-2 .016.087 10.5zm-1.095-11.492-27.272.226.017 2 27.271-.226zm-26.264 1.218-.077-9.34-2 .016.077 9.341zm-1.069-8.332 27.272-.226-.017-2-27.271.226zm28.264-1.235-.088-10.499-1.999.016.087 10.5zm7.081 53.573 1-.009-.009-1-1 .009zm.078 9.477.009 1 1-.009-.009-1zm-29.282-1.667.541-.841h-.001zm-4.526-5.246-.904.427.001.004zm-.131-15.784-.91-.416-.001.004zm4.439-5.321-.548-.836-.006.003zm29.25-2.118 1-.008-.008-1-1 .008zm.079 9.477.008 1 1-.008-.008-1zm-24.437.919-.495-.869-.005.003zm-1.96 1.994-.874-.487-.003.005zm.048 5.795-.866.501zm1.993 1.961-.486.873.005.003zm23.449.521.078 9.477 2-.017-.078-9.477zm1.07 8.469-22.363.185.017 2 22.363-.185zm-22.363.185c-2.493.021-4.602-.556-6.37-1.693l-1.082 1.682c2.141 1.377 4.644 2.035 7.469 2.011zm-6.371-1.693c-1.772-1.137-3.162-2.737-4.164-4.836l-1.805.862c1.149 2.406 2.778 4.303 4.89 5.657zm-4.162-4.832c-.991-2.099-1.514-4.571-1.538-7.443l-2 .016c.026 3.105.592 5.874 1.73 8.281zm-1.538-7.443c-.024-2.896.458-5.388 1.414-7.502l-1.822-.824c-1.098 2.427-1.618 5.216-1.592 8.342zm1.412-7.498c.967-2.115 2.33-3.738 4.083-4.904l-1.107-1.666c-2.089 1.389-3.686 3.313-4.795 5.738zm4.078-4.9c1.749-1.146 3.851-1.749 6.348-1.769l-.017-2c-2.821.023-5.311.709-7.427 2.096zm6.348-1.769 22.363-.186-.017-2-22.363.186zm21.354-1.177.079 9.477 2-.017-.079-9.477zm1.071 8.468-21.545.179.016 2 21.545-.179zm-21.545.179c-1.232.01-2.367.294-3.379.871l.991 1.737c.685-.39 1.478-.6 2.404-.608zm-3.384.874a6.17 6.17 0 0 0-2.334 2.373l1.747.973a4.2 4.2 0 0 1 1.588-1.615zm-2.337 2.378c-.561 1.022-.825 2.161-.815 3.393l2-.016c-.008-.927.189-1.723.568-2.414zm-.815 3.393c.01 1.242.293 2.379.874 3.385l1.731-1.002c-.387-.669-.597-1.459-.605-2.399zm.874 3.385a6.16 6.16 0 0 0 2.373 2.333l.973-1.747a4.17 4.17 0 0 1-1.615-1.588zm2.378 2.336c1.022.561 2.161.826 3.393.815l-.016-2c-.927.008-1.723-.189-2.414-.568zm3.393.815 21.545-.178-.017-2-21.544.178zm10.9 31.711-.088-.996-.92.081.008.923zm2.648-1.301-.767-.64-.005.005zm.549-5.834-.935.355.003.009zm-.949-1.356.59-.807zm-1.368-.449-.045.999.016.001h.016zm-1.14.231-.454-.89-.018.009-.018.01zm-.896.86-.822-.57-.005.008-.006.009zm-1.265 3.641.979.202.002-.008zm-.59 2.869-.98-.201v.002zm-3.92 8.368-.699-.715-.004.005zm-3.018 1.951-.349-.937-.008.004zm-3.676.679.004 1 .013-.001zm-5.843-1.674-.575.819zm-3.671-4.844.927-.373v-.002zm-.027-15.529-.932-.363-.001.002zm4.098-5.284-.558-.83-.006.004zm7.178-1.935 1-.008-.009-1.004-1.003.012zm.074 9 .062.998.946-.058-.008-.948zm-2.686.823-.556-.831zm-1.637 2.025-.92-.39-.002.004zm-.14 5.661-.936.352zm1.052 1.542-.615.788zm1.522.533-.012 1h.041zm1.393-.54-.634-.773-.011.009-.012.01zm1.077-1.645-.921-.39-.004.012zm.895-3.093.979.206v-.003zm.721-3.483-.979-.204v.001zm3.298-7.34-.753-.66-.004.006zm6.438-2.696.004 1h.009zm5.827 1.724.578-.816h-.001zm3.944 4.962.914-.407-.001-.002zm.105 14.659-.912-.409zm-3.949 4.789-.551-.835-.007.004zm-5.969 1.754-1 .008.009 1.005 1.005-.013zm.013-8.072c1.36-.12 2.507-.656 3.333-1.662l-1.545-1.27c-.434.528-1.053.859-1.964.94zm3.328-1.656c.847-1.015 1.172-2.438 1.158-4.083l-1.999.017c.011 1.423-.281 2.289-.694 2.785zm1.158-4.083c-.008-1.048-.142-1.98-.446-2.756l-1.863.728c.184.47.302 1.138.31 2.045zm-.443-2.747c-.279-.736-.694-1.371-1.293-1.808l-1.18 1.615c.201.146.419.416.604.903zm-1.293-1.808a3.3 3.3 0 0 0-1.944-.642l-.027 2c.311.005.564.091.791.257zm-1.912-.641a3.23 3.23 0 0 0-1.64.34l.909 1.781c.169-.086.374-.135.64-.123zm-1.676.359c-.489.275-.894.679-1.228 1.161l1.644 1.14c.205-.295.398-.464.565-.558zm-1.239 1.178c-.318.478-.586 1.056-.815 1.712l1.888.66c.193-.552.395-.967.593-1.265zm-.815 1.712q-.345.993-.598 2.289l1.962.387q.237-1.197.524-2.016zm-.597 2.281-.59 2.869 1.959.402.59-2.868zm-.59 2.871c-.381 1.877-.885 3.453-1.501 4.742l1.805.861c.703-1.472 1.251-3.212 1.656-5.205zm-1.501 4.742c-.619 1.296-1.336 2.325-2.138 3.11l1.399 1.43c1.001-.98 1.845-2.214 2.544-3.679zm-2.142 3.115a7.5 7.5 0 0 1-2.664 1.724l.699 1.874a9.4 9.4 0 0 0 3.372-2.178zm-2.672 1.728c-1.002.383-2.11.591-3.336.612l.034 1.999c1.434-.024 2.776-.268 4.017-.744zm-3.322.612c-2.126.007-3.863-.507-5.266-1.492l-1.149 1.637c1.798 1.261 3.956 1.863 6.422 1.855zm-5.266-1.492c-1.418-.995-2.531-2.443-3.318-4.399l-1.855.746c.907 2.256 2.241 4.039 4.024 5.29zm-3.318-4.401c-.788-1.949-1.211-4.343-1.235-7.208l-2 .016c.026 3.044.474 5.7 1.38 7.941zm-1.235-7.208c-.024-2.938.39-5.459 1.213-7.585l-1.865-.722c-.934 2.411-1.374 5.193-1.348 8.323zm1.213-7.583c.812-2.085 2.057-3.679 3.73-4.821l-1.128-1.652c-2.033 1.388-3.52 3.318-4.466 5.747zm3.724-4.817c1.662-1.118 3.849-1.731 6.632-1.765l-.024-2c-3.058.038-5.656.714-7.724 2.105zm5.62-2.757.074 9 2-.016-.074-9zm1.013 7.994c-1.204.074-2.28.388-3.181.99l1.111 1.663c.546-.365 1.261-.6 2.193-.657zm-3.181.99c-.898.6-1.564 1.435-2.001 2.466l1.841.781c.298-.703.724-1.218 1.271-1.584zm-2.003 2.47c-.432 1.031-.625 2.213-.614 3.519l2-.017c-.01-1.104.155-2.005.459-2.729zm-.614 3.519c.009 1.086.15 2.056.46 2.88l1.872-.704c-.202-.536-.325-1.257-.332-2.193zm.46 2.88c.302.804.746 1.489 1.373 1.978l1.231-1.576c-.266-.207-.523-.551-.732-1.106zm1.373 1.978a3.45 3.45 0 0 0 2.125.745l.024-2a1.46 1.46 0 0 1-.918-.321zm2.166.745a3.16 3.16 0 0 0 2.021-.786l-1.314-1.508a1.16 1.16 0 0 1-.766.295zm1.998-.766c.588-.482 1.027-1.203 1.369-2.041l-1.851-.756c-.282.689-.561 1.066-.786 1.25zm1.364-2.03c.359-.847.673-1.948.953-3.276l-1.957-.412c-.267 1.267-.55 2.229-.838 2.909zm.953-3.279.722-3.484-1.959-.405-.721 3.483zm.721-3.483c.622-2.983 1.664-5.257 3.075-6.89l-1.513-1.307c-1.695 1.961-2.851 4.58-3.52 7.79zm3.071-6.884c1.347-1.538 3.202-2.345 5.69-2.355l-.008-2c-2.967.012-5.404 1.002-7.187 3.036zm5.699-2.355c2.023-.027 3.755.494 5.237 1.541l1.154-1.633c-1.856-1.312-4.01-1.94-6.418-1.908zm5.236 1.54c1.516 1.075 2.724 2.58 3.61 4.555l1.825-.818c-1.013-2.259-2.435-4.062-4.279-5.369zm3.609 4.554c.884 1.981 1.35 4.286 1.372 6.935l2-.016c-.024-2.874-.53-5.459-1.545-7.734zm1.372 6.935c.022 2.709-.412 5.001-1.266 6.907l1.824.818c.998-2.224 1.466-4.814 1.442-7.741zm-1.266 6.907c-.857 1.91-2.057 3.351-3.588 4.363l1.102 1.669c1.882-1.244 3.315-2.995 4.31-5.214zm-3.595 4.367c-1.515 1.019-3.31 1.557-5.424 1.585l.027 2c2.454-.033 4.638-.665 6.513-1.924zm-4.411 2.576-.075-9.068-2 .017.075 9.068z" mask="url('#path-3-outside-2_1_5915')"/><mask id="path-5-outside-3_1_5915" width="41.098" height="253.315" x="96.907" y="2.511" fill="#000" maskUnits="userSpaceOnUse"><path fill="#fff" d="M96.907 2.511h41.098v253.315H96.907z"/><path d="m135.902 243.201.085 10.227-35.003-11.233-.108-12.954 34.813-11.812.085 10.227-25.232 7.846.003.273zm-13.756 2.023-.159-19.226 7.09-.059.16 19.226zm13.515-31.157-34.908.29-.126-15.136q-.033-3.989 1.019-6.708 1.05-2.736 2.999-4.133 1.95-1.413 4.608-1.436 1.926-.015 3.518.823a7.5 7.5 0 0 1 2.679 2.331q1.07 1.508 1.495 3.533l.341-.003q.067-2.251 1.108-4.1a7.84 7.84 0 0 1 2.856-2.956q1.815-1.106 4.287-1.127 2.864-.022 5.108 1.458 2.245 1.464 3.547 4.198 1.3 2.734 1.332 6.535zm-7.647-9.414-.037-4.432q-.02-2.386-.916-3.572-.912-1.185-2.668-1.171-1.228.01-2.075.58-.848.569-1.282 1.613-.435 1.026-.423 2.475l.038 4.568zm-13.227.11-.032-3.887q-.01-1.244-.41-2.195-.4-.952-1.137-1.474-.755-.539-1.829-.53-1.619.013-2.462 1.18-.859 1.166-.845 2.938l.034 4.023zm2.873-56.43q5.83-.048 9.854 2.186 4.007 2.233 6.102 6.069 2.077 3.834 2.116 8.573.04 4.773-1.991 8.642-2.047 3.852-6.017 6.153-3.987 2.283-9.782 2.331-5.829.048-9.837-2.169-4.023-2.233-6.101-6.052-2.095-3.834-2.134-8.607-.04-4.738 1.991-8.608 2.013-3.869 6-6.169 3.97-2.3 9.799-2.349m.081 9.75q-3.136.025-5.277.879-2.158.836-3.252 2.465-1.111 1.611-1.092 3.963.02 2.353 1.158 3.963 1.121 1.593 3.292 2.41 2.155.8 5.291.774t5.294-.862q2.141-.853 3.253-2.465 1.094-1.628 1.075-3.98t-1.141-3.945q-1.139-1.61-3.293-2.411-2.172-.817-5.308-.791m-17.742-34.648-.08-9.477 22.364-.185q3.988-.033 6.919 1.851 2.913 1.869 4.526 5.247 1.597 3.379 1.634 7.862.037 4.517-1.503 7.922-1.556 3.405-4.439 5.321-2.898 1.899-6.887 1.932l-22.363.185-.079-9.477 21.545-.178q1.62-.014 2.892-.74a5.17 5.17 0 0 0 1.961-1.994q.705-1.284.691-2.903-.013-1.636-.74-2.892a5.16 5.16 0 0 0-1.993-1.961q-1.284-.705-2.904-.692zm7.528-13.09-7.636.064-.252-30.34 7.636-.064.087 10.5 27.272-.226.077 9.34-27.272.227zm-8.168-64.064-.08-9.477 22.364-.185q3.988-.033 6.919 1.852 2.913 1.867 4.526 5.247 1.597 3.379 1.634 7.861.037 4.517-1.503 7.922-1.556 3.405-4.439 5.321-2.898 1.899-6.887 1.932l-22.363.186-.079-9.477 21.545-.179q1.619-.013 2.892-.74a5.16 5.16 0 0 0 1.96-1.993q.706-1.285.692-2.904-.013-1.636-.74-2.892a5.16 5.16 0 0 0-1.993-1.96q-1.284-.705-2.904-.692zm10.636-32.889q-1.703.15-2.648 1.3-.945 1.133-.926 3.435.012 1.465.377 2.4.35.918.949 1.356.6.438 1.368.449.63.029 1.14-.231.492-.277.896-.86.387-.583.704-1.489t.561-2.152l.59-2.869q.59-2.903 1.578-4.973t2.342-3.395a8.45 8.45 0 0 1 3.018-1.951q1.682-.645 3.676-.678 3.442-.012 5.844 1.673 2.4 1.685 3.671 4.844 1.27 3.143 1.307 7.575.038 4.55-1.281 7.954-1.319 3.387-4.098 5.284-2.797 1.882-7.178 1.935l-.074-9q1.601-.098 2.686-.823t1.637-2.025q.551-1.317.536-3.124-.012-1.517-.396-2.537-.383-1.02-1.052-1.542a2.45 2.45 0 0 0-1.522-.533 2.15 2.15 0 0 0-1.393.54q-.609.5-1.077 1.645-.486 1.147-.895 3.093l-.721 3.483q-.968 4.646-3.297 7.34-2.347 2.68-6.439 2.696-3.323.045-5.827-1.724-2.52-1.786-3.944-4.962-1.425-3.193-1.459-7.335-.035-4.227 1.354-7.324t3.949-4.788q2.543-1.71 5.969-1.755z"/></mask><path fill="#05C2DF" fill-opacity=".5" d="m135.902 243.201 1-.008-.006-.743-.712-.209zm.085 10.227-.305.952 1.317.423-.012-1.383zm-35.003-11.233-1 .008.006.723.688.221zm-.108-12.954-.321-.947-.685.232.006.723zm34.813-11.812 1-.008-.012-1.383-1.31.444zm.085 10.227.296.955.71-.221-.007-.742zm-25.232 7.846-.297-.955-.709.221.006.742zm.003.273-1 .008.006.743.713.208zm11.601 9.449-1 .009.008 1 1-.009zm-.159-19.226-.009-1-1 .008.009 1zm7.09-.059 1-.008-.008-1-1 .008zm.16 19.226.008 1 1-.008-.008-1zm5.666-1.956.084 10.227 2-.016-.085-10.227zm1.39 9.267-35.004-11.233-.611 1.904 35.004 11.233zm-34.309-10.289-.108-12.954-2 .016.108 12.954zm-.786-11.999 34.812-11.812-.643-1.894-34.812 11.812zm33.491-12.751.085 10.227 1.999-.016-.084-10.227zm.788 9.264-25.232 7.846.594 1.91 25.231-7.846zm-25.935 8.809.003.273 2-.017-.003-.272zm.722 1.224 25.357 7.427.563-1.92-25.358-7.426zm12.882 8.482-.159-19.227-2 .017.159 19.227zm-1.151-18.218 7.091-.059-.017-2-7.091.059zm6.082-1.051.16 19.227 2-.017-.16-19.226zm1.151 18.218-7.09.059.016 2 7.091-.059zm6.433-30.098.008 1 1-.008-.008-1zm-34.908.29-1 .008.008 1 1-.008zm.893-21.844.932.361.001-.002zm2.999-4.133.583.813.005-.003zm8.126-.613-.466.885.008.004zm2.679 2.331.816-.579-.005-.006zm1.495 3.533-.978.206.168.8.818-.006zm.341-.003.008 1 .963-.008.029-.963zm1.108-4.1.871.49.004-.006zm2.856-2.956.517.856.004-.002zm9.395.331-.55.835.004.003zm3.547 4.198-.903.43zm-6.178 13.552.009 1 1-.008-.009-1zm-.953-8.004.798-.603-.005-.007zm-6.025 1.022.92.39.003-.006zm-.385 7.043-1 .008.008 1 1-.008zm-5.864.049.009 1 1-.009-.009-1zm-.442-6.082.922-.388zm-1.137-1.474-.582.814.004.002zm-4.291.65.805.593.006-.008zm-.811 6.961-1 .008.008 1 1-.008zm27.546 8.249-34.907.29.016 2 34.908-.29zm-33.899 1.281-.126-15.135-2 .016.126 15.136zm-.126-15.135c-.021-2.577.309-4.679.951-6.339l-1.865-.721c-.76 1.965-1.108 4.334-1.086 7.076zm.952-6.341c.646-1.683 1.541-2.885 2.649-3.679l-1.165-1.625c-1.49 1.068-2.596 2.621-3.351 4.587zm2.654-3.682c1.113-.808 2.441-1.233 4.028-1.246l-.016-2c-1.958.017-3.702.549-5.187 1.627zm4.028-1.246c1.131-.009 2.139.231 3.044.708l.933-1.769c-1.218-.642-2.556-.951-3.993-.939zm3.052.712a6.5 6.5 0 0 1 2.325 2.026l1.623-1.169a8.5 8.5 0 0 0-3.031-2.634zm2.321 2.02c.625.881 1.073 1.929 1.333 3.161l1.957-.412c-.309-1.468-.857-2.776-1.658-3.906zm2.319 3.955.341-.003-.016-2-.341.003zm1.333-.974c.039-1.348.369-2.555.979-3.639l-1.742-.981c-.779 1.383-1.188 2.909-1.237 4.561zm.983-3.645a6.84 6.84 0 0 1 2.498-2.584l-1.034-1.712a8.84 8.84 0 0 0-3.214 3.327zm2.502-2.586c1.032-.629 2.277-.968 3.774-.981l-.017-1.999c-1.798.014-3.41.426-4.798 1.272zm3.774-.981c1.724-.014 3.23.422 4.55 1.293l1.101-1.67c-1.673-1.104-3.574-1.64-5.668-1.622zm4.554 1.296c1.324.863 2.391 2.112 3.19 3.79l1.806-.86c-.936-1.966-2.233-3.516-3.903-4.605zm3.19 3.79c.791 1.661 1.215 3.689 1.235 6.113l2-.017c-.022-2.643-.485-4.972-1.429-6.956zm1.235 6.113.137 16.431 2-.016-.137-16.432zm-5.51 7.001-.037-4.432-1.999.017.036 4.431zm-.037-4.432c-.014-1.686-.333-3.129-1.118-4.167l-1.595 1.206c.41.543.701 1.481.714 2.978zm-1.123-4.174c-.835-1.083-2.047-1.573-3.47-1.561l.017 2c.918-.008 1.485.284 1.868.781zm-3.47-1.561c-.974.008-1.866.24-2.624.75l1.115 1.66c.373-.25.863-.404 1.526-.41zm-2.624.75c-.745.5-1.291 1.202-1.648 2.058l1.847.769c.222-.534.531-.908.916-1.167zm-1.645 2.053c-.357.842-.511 1.81-.502 2.873l2-.016c-.007-.869.12-1.551.343-2.077zm-.502 2.873.038 4.568 2-.016-.038-4.568zm1.046 5.56 7.364-.061-.017-2-7.363.061zm-4.872-.96-.032-3.886-2 .017.032 3.886zm-.032-3.886c-.008-.934-.162-1.798-.488-2.575l-1.844.775c.207.492.326 1.091.332 1.817zm-.488-2.575c-.329-.781-.817-1.431-1.481-1.902l-1.156 1.632c.318.226.588.558.793 1.045zm-1.478-1.899c-.701-.501-1.525-.724-2.418-.717l.017 2c.539-.005.933.126 1.238.344zm-2.418-.717c-1.352.011-2.491.523-3.264 1.594l1.621 1.171c.35-.484.852-.758 1.66-.765zm-3.259 1.586c-.728.988-1.051 2.192-1.04 3.541l2-.017c-.008-1.015.232-1.77.65-2.337zm-1.04 3.541.034 4.022 2-.016-.034-4.023zm1.042 5.014 6.682-.055-.017-2-6.681.055zm19.4-55.299.487-.874-.002-.001zm6.102 6.069.879-.477-.002-.003zm.125 17.215.883.47.003-.005zm-6.017 6.153.497.867.004-.002zm-19.619.162-.485.875h.001zm-6.101-6.052.878-.477v-.002zm-.143-17.215.886.465.001-.003zm6-6.169.5.866.002-.001zm4.603 8.28.361.933.009-.004zm-3.252 2.465.823.568.007-.01zm.066 7.926.817-.576-.001-.002zm3.292 2.41-.352.936.004.001zm10.585-.088.362.933.008-.004zm3.253-2.465.823.568.007-.01zm-.066-7.925.818-.576-.002-.002zm-3.293-2.411-.352.936.004.002zm-5.38-9.541c3.758-.031 6.863.674 9.36 2.06l.97-1.749c-2.869-1.592-6.333-2.344-10.347-2.311zm9.358 2.059c2.515 1.402 4.41 3.292 5.711 5.675l1.755-.959c-1.491-2.73-3.664-4.886-6.492-6.463zm5.709 5.672c1.301 2.401 1.971 5.096 1.996 8.106l2-.017c-.027-3.308-.768-6.329-2.237-9.042zm1.996 8.106c.026 3.032-.606 5.748-1.876 8.168l1.771.93c1.437-2.739 2.133-5.784 2.105-9.115zm-1.874 8.164c-1.272 2.394-3.142 4.312-5.635 5.756l1.002 1.731c2.8-1.622 4.942-3.807 6.399-6.548zm-5.631 5.754c-2.475 1.417-5.557 2.168-9.293 2.199l.016 2c3.991-.033 7.43-.837 10.271-2.464zm-9.293 2.199c-3.76.031-6.859-.669-9.344-2.044l-.969 1.75c2.858 1.581 6.317 2.327 10.329 2.294zm-9.343-2.043c-2.527-1.403-4.42-3.287-5.709-5.655l-1.757.955c1.481 2.723 3.656 4.873 6.495 6.449zm-5.709-5.657c-1.311-2.399-1.987-5.104-2.012-8.136l-2 .016c.028 3.331.774 6.365 2.256 9.079zm-2.012-8.136c-.025-3.009.606-5.714 1.877-8.135l-1.771-.93c-1.437 2.738-2.133 5.772-2.106 9.081zm1.878-8.138c1.25-2.401 3.111-4.321 5.613-5.765l-1-1.732c-2.813 1.623-4.952 3.816-6.387 6.574zm5.615-5.766c2.461-1.426 5.547-2.182 9.306-2.214l-.017-2c-4.013.034-7.46.843-10.292 2.484zm9.37 5.536c-2.173.018-4.063.322-5.639.95l.74 1.858c1.279-.509 2.907-.791 4.915-.808zm-5.63.947c-1.594.617-2.858 1.555-3.721 2.839l1.66 1.116c.596-.887 1.501-1.593 2.783-2.09zm-3.714 2.829c-.88 1.275-1.284 2.808-1.269 4.54l2-.017c-.012-1.405.313-2.514.915-3.387zm-1.269 4.54c.014 1.732.443 3.261 1.341 4.531l1.633-1.155c-.62-.876-.963-1.988-.974-3.393zm1.34 4.529c.883 1.256 2.159 2.169 3.758 2.771l.705-1.872c-1.297-.488-2.216-1.181-2.828-2.05zm3.762 2.772c1.584.589 3.476.855 5.647.837l-.016-2c-2.011.017-3.645-.233-4.934-.712zm5.647.837c2.172-.018 4.064-.316 5.648-.93l-.723-1.864c-1.294.501-2.931.777-4.941.794zm5.656-.933c1.578-.629 2.834-1.562 3.706-2.826l-1.647-1.135c-.61.884-1.522 1.594-2.799 2.103zm3.713-2.836c.862-1.284 1.259-2.818 1.245-4.547l-2 .017c.011 1.407-.309 2.527-.905 3.415zm1.245-4.547c-.015-1.728-.436-3.252-1.323-4.512l-1.636 1.151c.608.864.947 1.97.959 3.378zm-1.325-4.514c-.893-1.263-2.168-2.178-3.761-2.77l-.696 1.875c1.279.475 2.2 1.167 2.824 2.05zm-3.757-2.769c-1.595-.6-3.495-.873-5.668-.855l.016 2c2.009-.017 3.648.238 4.948.727zm-23.402-34.503-1 .008.008 1 1-.008zm-.08-9.477-.007-1-1 .008.008 1zm29.283 1.666-.541.841.001.001zm4.526 5.247.905-.427-.002-.004zm.131 15.784.91.415.002-.003zm-4.439 5.321.548.836.006-.004zm-29.25 2.117-1 .009.008 1 1-.009zm-.079-9.477-.008-.999-1 .008.008 1zm24.437-.918.496.868.005-.003zm1.961-1.994.873.487.003-.005zm-.049-5.795.866-.501zm-1.993-1.961.486-.874-.005-.002zm-23.448-.521-.079-9.477-2 .016.079 9.477zm-1.07-8.469 22.362-.185-.016-2-22.363.185zm22.362-.185c2.493-.021 4.603.556 6.37 1.692l1.082-1.682c-2.14-1.376-4.644-2.034-7.468-2.01zm6.371 1.693c1.773 1.137 3.162 2.737 4.164 4.836l1.805-.862c-1.149-2.406-2.778-4.303-4.889-5.657zm4.162 4.832c.991 2.098 1.514 4.571 1.538 7.443l2-.017c-.026-3.104-.592-5.873-1.729-8.28zm1.538 7.443c.024 2.896-.458 5.388-1.414 7.502l1.823.824c1.097-2.427 1.617-5.216 1.591-8.343zm-1.412 7.498c-.967 2.115-2.33 3.738-4.083 4.904l1.107 1.665c2.089-1.388 3.686-3.313 4.795-5.738zm-4.078 4.9c-1.749 1.146-3.851 1.748-6.347 1.769l.016 2c2.821-.024 5.311-.709 7.427-2.096zm-6.347 1.769-22.363.185.016 2 22.363-.185zm-21.355 1.177-.079-9.477-2 .017.079 9.477zm-1.07-8.469 21.544-.178-.016-2-21.545.179zm21.544-.178c1.233-.011 2.367-.294 3.38-.872l-.992-1.737c-.685.391-1.477.601-2.404.609zm3.385-.875a6.16 6.16 0 0 0 2.333-2.372l-1.747-.973a4.17 4.17 0 0 1-1.588 1.614zm2.336-2.377c.561-1.022.826-2.161.815-3.394l-2 .017c.008.927-.189 1.723-.568 2.414zm.815-3.394c-.01-1.241-.292-2.379-.874-3.384l-1.731 1.002c.387.668.598 1.459.605 2.399zm-.874-3.384a6.17 6.17 0 0 0-2.373-2.334l-.973 1.748a4.16 4.16 0 0 1 1.615 1.588zm-2.378-2.336c-1.021-.561-2.161-.826-3.393-.816l.017 2c.926-.007 1.723.189 2.413.569zm-3.393-.816-21.545.179.017 2 21.545-.179zm-14.008-11.911.008 1 1-.008-.008-1zm-7.636.064-1 .008.008 1 1-.009zm-.252-30.34-.008-1-1 .008.008 1zm7.636-.064 1-.008-.008-1-1 .008zm.087 10.5-1 .008.008 1 1-.008zm27.272-.226 1-.009-.009-1-1 .009zm.077 9.34.009 1 1-.008-.009-1zm-27.272.227-.008-1-1 .008.009 1zm.079 9.499-7.636.064.017 1.999 7.636-.063zm-6.628 1.055-.251-30.34-2 .017.252 30.34zm-1.243-29.331 7.636-.064-.016-2-7.636.064zm6.628-1.055.087 10.5 2-.017-.087-10.5zm1.095 11.49 27.272-.225-.017-2-27.271.226zm26.264-1.217.077 9.34 2-.016-.077-9.34zm1.069 8.332-27.272.227.017 1.999 27.272-.226zm-28.263 1.235.087 10.499 2-.016-.088-10.5zm-7.081-53.572-1 .008.008 1 1-.009zm-.08-9.477-.007-1-1 .008.008 1zm29.283 1.666-.541.84.001.002zm4.526 5.247.905-.428-.002-.003zm.131 15.783.91.416.001-.004zm-4.439 5.321.548.837.006-.004zM99.53 66.94l-1 .008.008 1 1-.008zm-.079-9.477-.008-1-1 .008.008 1zm24.437-.919.495.869.005-.003zm1.96-1.993.874.486.003-.005zm-.048-5.796.866-.5zm-1.993-1.96.486-.874-.005-.003zm-23.449-.522-.078-9.477-2 .017.079 9.477zm-1.07-8.469 22.363-.185-.017-2-22.362.186zm22.363-.185c2.493-.02 4.603.556 6.37 1.693l1.082-1.682c-2.14-1.377-4.644-2.034-7.469-2.011zm6.371 1.694c1.773 1.136 3.162 2.737 4.164 4.835l1.805-.861c-1.149-2.407-2.778-4.304-4.89-5.658zm4.162 4.832c.991 2.098 1.514 4.57 1.538 7.442l2-.016c-.026-3.105-.592-5.873-1.729-8.28zm1.538 7.442c.024 2.896-.458 5.389-1.414 7.502l1.822.824c1.098-2.426 1.618-5.216 1.592-8.342zm-1.412 7.498c-.967 2.115-2.33 3.739-4.083 4.904l1.107 1.666c2.089-1.389 3.686-3.313 4.795-5.738zm-4.078 4.9c-1.749 1.146-3.851 1.749-6.348 1.77l.017 2c2.821-.024 5.311-.71 7.427-2.096zm-6.348 1.77-22.362.185.016 2 22.363-.186zm-21.354 1.177-.079-9.477-2 .016.079 9.477zm-1.07-8.47 21.544-.178-.016-2-21.545.179zm21.544-.178c1.232-.01 2.367-.294 3.379-.871l-.991-1.737c-.685.39-1.478.6-2.404.608zm3.384-.874a6.16 6.16 0 0 0 2.334-2.373l-1.747-.973a4.17 4.17 0 0 1-1.588 1.615zm2.337-2.378c.561-1.022.825-2.161.815-3.393l-2 .016c.008.927-.189 1.723-.568 2.414zm.815-3.393c-.01-1.242-.293-2.38-.874-3.384l-1.731 1.001c.387.669.597 1.459.605 2.4zm-.874-3.384a6.17 6.17 0 0 0-2.373-2.334l-.973 1.747a4.17 4.17 0 0 1 1.615 1.588zm-2.378-2.337c-1.021-.56-2.161-.825-3.393-.815l.016 2c.927-.008 1.723.189 2.414.568zm-3.393-.815-21.545.178.017 2 21.544-.178zm-10.9-31.71.088.995.92-.08-.008-.924zm-2.648 1.3.768.64.004-.005zm-.549 5.834.935-.355-.003-.01zm.949 1.356-.589.808zm1.368.449.045-1h-.031zm1.14-.231.454.89.018-.009.018-.01zm.896-.86.822.57.006-.008.005-.009zm1.265-3.641-.979-.202-.002.009zm.59-2.869.98.201v-.002zm3.92-8.368.699.715.005-.005zm3.018-1.951.349.937.008-.003zm3.676-.678-.003-1h-.014zm5.844 1.673.574-.819zm3.671 4.844-.928.373v.002zm.026 15.53.932.362.001-.002zm-4.098 5.283.558.83.006-.004zM121.885 33l-1 .008.009 1.004 1.004-.012zm-.074-9-.062-.998-.946.058.008.949zm2.686-.823.556.831zm1.637-2.025.92.39.002-.004zm.14-5.66.936-.353zm-1.052-1.543.616-.788zm-1.522-.533.012-1h-.041zm-1.393.54.634.774.012-.01.011-.01zM121.23 15.6l.921.39.005-.012zm-.895 3.093-.979-.206v.003zm-.721 3.483.979.204zm-3.297 7.34.752.66.004-.005zm-6.439 2.696-.004-1h-.009zm-5.827-1.724-.578.816h.001zm-3.944-4.962-.913.407v.002zm-.105-14.659.913.41zm3.949-4.788.552.834.006-.004zm5.969-1.755 1-.008-.009-1.005-1.004.014zm-.013 8.072c-1.36.12-2.507.656-3.333 1.662l1.545 1.27c.434-.528 1.053-.859 1.964-.94zm-3.328 1.656c-.847 1.015-1.172 2.438-1.158 4.083l2-.017c-.012-1.423.28-2.289.694-2.785zm-1.158 4.083c.008 1.048.143 1.98.446 2.756l1.863-.728c-.184-.47-.302-1.138-.309-2.045zm.443 2.747c.279.736.694 1.37 1.294 1.809l1.179-1.616c-.201-.146-.419-.415-.604-.903zm1.294 1.809a3.3 3.3 0 0 0 1.943.64l.028-2a1.3 1.3 0 0 1-.792-.256zm1.911.64a3.24 3.24 0 0 0 1.64-.34l-.909-1.78a1.24 1.24 0 0 1-.64.122zm1.676-.359c.489-.275.894-.68 1.228-1.161l-1.644-1.14c-.204.296-.398.464-.565.558zm1.239-1.178c.318-.478.586-1.056.815-1.712l-1.888-.66c-.193.553-.394.967-.593 1.266zm.815-1.712q.345-.992.599-2.29l-1.963-.385a15 15 0 0 1-.524 2.015zm.597-2.28.59-2.87-1.959-.402-.59 2.868zm.59-2.872c.381-1.877.885-3.453 1.501-4.742l-1.805-.861c-.703 1.472-1.251 3.212-1.656 5.205zm1.501-4.742c.619-1.296 1.336-2.325 2.138-3.11l-1.399-1.43c-1.001.98-1.845 2.214-2.544 3.679zm2.143-3.115a7.45 7.45 0 0 1 2.663-1.724l-.699-1.874a9.45 9.45 0 0 0-3.372 2.178zm2.671-1.727c1.002-.384 2.111-.592 3.336-.613l-.034-2c-1.434.025-2.776.27-4.017.745zm3.322-.612c2.126-.008 3.863.507 5.266 1.491l1.149-1.637c-1.797-1.261-3.956-1.863-6.421-1.854zm5.266 1.491c1.418.995 2.531 2.443 3.318 4.4l1.855-.747c-.907-2.256-2.241-4.038-4.024-5.29zm3.318 4.401c.788 1.95 1.211 4.343 1.235 7.208l2-.016c-.026-3.044-.474-5.7-1.38-7.941zm1.235 7.208c.024 2.938-.39 5.46-1.213 7.585l1.865.722c.934-2.411 1.374-5.193 1.348-8.323zm-1.213 7.583c-.812 2.085-2.057 3.679-3.73 4.821l1.128 1.652c2.033-1.388 3.52-3.317 4.466-5.747zm-3.724 4.818c-1.662 1.117-3.849 1.73-6.632 1.764l.025 2c3.057-.037 5.655-.714 7.723-2.105zm-5.62 2.756-.074-9-2 .017.074 9zm-1.013-7.994c1.204-.074 2.28-.388 3.181-.99l-1.111-1.663c-.546.365-1.261.6-2.193.657zm3.181-.99c.898-.6 1.564-1.435 2.001-2.466l-1.841-.78c-.298.702-.724 1.217-1.271 1.583zm2.003-2.47c.432-1.031.625-2.213.614-3.518l-2 .016c.01 1.104-.155 2.005-.459 2.73zm.614-3.518c-.009-1.086-.15-2.057-.46-2.88l-1.872.703c.202.536.325 1.257.332 2.193zm-.46-2.88c-.302-.804-.746-1.49-1.372-1.98l-1.232 1.577c.266.207.523.55.732 1.106zm-1.372-1.98a3.46 3.46 0 0 0-2.126-.744l-.023 2c.35.004.644.108.917.32zm-2.167-.744a3.15 3.15 0 0 0-2.021.786l1.314 1.508c.217-.189.458-.285.766-.294zm-1.998.767c-.588.482-1.027 1.202-1.369 2.04l1.852.756c.281-.69.56-1.066.785-1.25zm-1.364 2.029c-.359.847-.673 1.948-.953 3.276l1.957.412c.267-1.267.55-2.228.838-2.909zm-.953 3.28-.722 3.483 1.959.405.721-3.483zm-.721 3.482c-.621 2.983-1.664 5.257-3.075 6.89l1.513 1.308c1.695-1.962 2.851-4.581 3.52-7.79zm-3.071 6.885c-1.346 1.537-3.202 2.344-5.69 2.354l.009 2c2.966-.012 5.403-1.002 7.186-3.036zm-5.699 2.354c-2.023.027-3.755-.494-5.236-1.54l-1.155 1.632c1.857 1.312 4.01 1.94 6.418 1.908zm-5.235-1.54c-1.517-1.075-2.725-2.58-3.611-4.555l-1.825.818c1.013 2.26 2.435 4.062 4.279 5.369zm-3.61-4.553c-.884-1.982-1.35-4.287-1.372-6.936l-2 .017c.024 2.873.53 5.458 1.546 7.733zm-1.372-6.936c-.022-2.709.412-5.001 1.267-6.906l-1.825-.819c-.998 2.224-1.466 4.814-1.442 7.742zm1.267-6.906c.857-1.911 2.056-3.352 3.588-4.364L103.4 5.244c-1.881 1.244-3.315 2.995-4.31 5.214zm3.594-4.368c1.515-1.019 3.311-1.557 5.424-1.585l-.026-2c-2.455.033-4.639.665-6.514 1.925zm4.411-2.576.075 9.068 2-.017-.075-9.068z" mask="url('#path-5-outside-3_1_5915')"/></svg>