<svg xmlns="http://www.w3.org/2000/svg" width="499" height="347" fill="none"><mask id="path-1-outside-1_1_10673" width="53.786" height="336.412" x="17" y="8.551" fill="#000" maskUnits="userSpaceOnUse"><path fill="#fff" d="M17 8.551h53.786v336.412H17z"/><path d="m19.125 24.048-.113-13.636 46.67 14.977.144 17.272-46.416 15.75-.113-13.636 33.641-10.462-.003-.363zm18.342-2.698.212 25.636-9.454.078-.213-25.635zm-18.02 41.543 46.544-.386.167 20.181q.045 5.319-1.358 8.944-1.4 3.648-4 5.51-2.598 1.885-6.143 1.915-2.568.02-4.69-1.097-2.123-1.097-3.572-3.107-1.425-2.01-1.994-4.711l-.454.004q-.09 3-1.478 5.467a10.45 10.45 0 0 1-3.808 3.94q-2.42 1.475-5.715 1.502-3.818.033-6.812-1.943-2.994-1.953-4.728-5.597-1.736-3.645-1.777-8.713zm10.195 12.553.05 5.909q.026 3.18 1.22 4.762 1.219 1.581 3.56 1.562 1.635-.014 2.766-.773 1.13-.76 1.71-2.15.578-1.37.563-3.301l-.05-6.09zm17.636-.147.043 5.182q.015 1.66.547 2.927.534 1.268 1.516 1.965 1.007.72 2.438.707 2.16-.018 3.283-1.573 1.147-1.555 1.126-3.918l-.044-5.364zm-3.83 75.239q-7.773.065-13.139-2.914-5.343-2.978-8.135-8.092-2.77-5.113-2.822-11.431-.053-6.363 2.654-11.522 2.73-5.137 8.023-8.204 5.316-3.043 13.043-3.108 7.772-.064 13.115 2.891 5.367 2.98 8.136 8.069 2.792 5.114 2.845 11.477.052 6.318-2.655 11.477-2.684 5.159-8 8.226-5.294 3.066-13.065 3.131m-.108-12.999q4.181-.035 7.036-1.172 2.877-1.116 4.336-3.287 1.483-2.148 1.456-5.285-.026-3.135-1.543-5.282-1.495-2.124-4.39-3.214-2.874-1.067-7.055-1.032t-7.059 1.149q-2.854 1.138-4.337 3.286-1.458 2.172-1.433 5.308.026 3.136 1.521 5.26 1.518 2.146 4.39 3.214 2.895 1.09 7.078 1.055m23.657 46.197.104 12.636-29.817.247q-5.318.045-9.225-2.469-3.885-2.49-6.036-6.995-2.128-4.506-2.178-10.483-.05-6.022 2.004-10.562 2.076-4.54 5.918-7.095 3.866-2.532 9.184-2.576l29.817-.248.105 12.636-28.726.239q-2.16.018-3.856.986a6.9 6.9 0 0 0-2.614 2.658q-.94 1.713-.923 3.872.018 2.182.987 3.855a6.9 6.9 0 0 0 2.658 2.615q1.713.94 3.871.922zm-10.038 17.453 10.182-.084.335 40.453-10.181.084-.116-13.999-36.363.302-.103-12.455 36.362-.301zm10.891 85.418.105 12.636-29.817.248q-5.318.043-9.226-2.469-3.884-2.492-6.035-6.996-2.128-4.504-2.178-10.482-.05-6.023 2.003-10.563 2.076-4.54 5.919-7.094 3.865-2.532 9.183-2.577l29.817-.247.105 12.636-28.726.238q-2.16.018-3.855.987a6.9 6.9 0 0 0-2.615 2.658q-.94 1.713-.922 3.871.018 2.182.986 3.856a6.9 6.9 0 0 0 2.658 2.614q1.712.94 3.872.923zM53.668 330.46q2.271-.201 3.531-1.734 1.26-1.511 1.235-4.579-.016-1.955-.504-3.2-.465-1.224-1.265-1.808a3.1 3.1 0 0 0-1.823-.599 3 3 0 0 0-1.52.308q-.657.37-1.196 1.147-.516.776-.938 1.985-.42 1.208-.749 2.87l-.786 3.825q-.786 3.87-2.104 6.631t-3.122 4.526q-1.78 1.765-4.024 2.602-2.243.86-4.902.904-4.59.016-7.791-2.231-3.2-2.246-4.895-6.459-1.694-4.191-1.743-10.1-.05-6.067 1.708-10.605 1.758-4.515 5.464-7.046 3.729-2.508 9.57-2.58l.1 12q-2.136.132-3.582 1.098-1.447.966-2.182 2.7-.736 1.756-.716 4.165.017 2.023.528 3.382.512 1.36 1.404 2.057a3.27 3.27 0 0 0 2.028.71 2.87 2.87 0 0 0 1.858-.72q.813-.666 1.436-2.193.647-1.529 1.194-4.124l.961-4.645q1.29-6.192 4.396-9.786 3.13-3.572 8.584-3.594 4.432-.06 7.77 2.299 3.36 2.381 5.26 6.615 1.898 4.258 1.944 9.78.047 5.637-1.805 9.765-1.852 4.13-5.266 6.385-3.39 2.279-7.958 2.339z"/></mask><path fill="#05C2DF" d="m19.125 24.048-1 .008.006.743.713.209zm-.113-13.636.305-.952L18 9.037l.012 1.383zm46.67 14.977 1-.008-.005-.723-.689-.221zm.144 17.272.321.947.685-.232-.006-.723zM19.41 58.411l-1 .008.011 1.383 1.31-.444zm-.113-13.636L19 43.82l-.71.22.007.743zm33.641-10.462.297.955.71-.22-.007-.743zm-.003-.363 1-.009-.006-.742-.713-.209zm-15.468-12.6 1-.008-.009-1-1 .008zm.212 25.636.008 1 1-.008-.008-1zm-9.454.078-1 .009.008 1 1-.009zm-.213-25.635-.008-1-1 .008.008 1zm-7.887 2.61-.113-13.635-2 .017.113 13.635zm-1.42-12.675 46.672 14.977.611-1.904L19.318 9.46zm45.978 14.034.143 17.272 2-.017-.143-17.272zm.822 16.316-46.417 15.75.643 1.894 46.416-15.75zM20.41 58.402l-.113-13.636-2 .017.113 13.636zm-.817-12.672 33.642-10.462-.594-1.91L19 43.82zm34.345-11.425-.003-.364-2 .017.003.364zm-.722-1.315-33.81-9.902-.562 1.92 33.81 9.902zM36.466 21.36l.213 25.635 2-.016-.212-25.636zm1.205 24.627-9.454.078.016 2 9.455-.078zm-8.446 1.07-.213-25.635-2 .016.213 25.636zM28.02 22.429l9.454-.079-.017-2-9.454.079zm-8.574 40.464-.008-1-1 .009.008 1zm46.544-.386 1-.008-.009-1-1 .008zM64.8 91.632l-.933-.36v.001zm-4 5.51-.583-.812-.005.003zm-10.835.818.466-.885-.007-.004zm-3.571-3.107-.816.578.004.006zM44.4 90.142l.979-.206-.169-.8-.818.006zm-.454.004-.009-1-.963.008-.028.962zm-1.478 5.467-.871-.491-.004.006zm-3.808 3.94-.517-.856-.004.002zm-12.527-.441.55-.835-.004-.003zm-4.728-5.597.902-.43zm8.236-18.07-.008-1-1 .009.008 1zm1.27 10.672-.797.603.006.008zm8.035-1.362-.92-.39-.003.006zm.513-9.39 1-.01-.008-1-1 .01zm7.818-.066-.008-1-1 .009.008 1zm.59 8.11-.922.387zm1.516 1.964.582-.814-.004-.002zm5.72-.866-.804-.593-.006.008zm1.083-9.282 1-.008-.008-1-1 .008zM19.455 63.893 66 63.507l-.016-2-46.544.386zm45.536-1.377.167 20.18 2-.016-.167-20.181zm.167 20.18c.029 3.463-.415 6.31-1.29 8.575l1.865.721c.994-2.569 1.455-5.684 1.425-9.312zm-1.29 8.577c-.881 2.29-2.109 3.952-3.65 5.057l1.165 1.625c1.923-1.379 3.362-3.391 4.351-5.965zm-3.655 5.06c-1.546 1.122-3.386 1.706-5.564 1.724l.017 2c2.548-.021 4.804-.713 6.722-2.105zm-5.564 1.724c-1.559.013-2.958-.319-4.217-.982l-.932 1.77c1.572.828 3.3 1.227 5.166 1.212zm-4.224-.986c-1.27-.656-2.341-1.585-3.219-2.803l-1.623 1.17c1.055 1.462 2.364 2.605 3.924 3.41zm-3.214-2.797c-.863-1.216-1.477-2.656-1.831-4.338l-1.958.412c.404 1.918 1.118 3.618 2.157 5.083zm-2.818-5.132-.455.004.017 2 .454-.004zm-1.446.974c-.055 1.849-.508 3.511-1.35 5.006l1.743.981c1.01-1.793 1.542-3.776 1.606-5.928zm-1.353 5.012a9.45 9.45 0 0 1-3.45 3.57l1.034 1.711a11.44 11.44 0 0 0 4.166-4.312zM38.14 98.7c-1.435.874-3.157 1.338-5.203 1.355l.017 2c2.348-.019 4.436-.556 6.227-1.648zm-5.203 1.355c-2.36.02-4.433-.578-6.252-1.778l-1.102 1.67c2.173 1.433 4.64 2.131 7.371 2.108zm-6.257-1.78c-1.822-1.19-3.283-2.904-4.372-5.19l-1.805.86c1.225 2.573 2.916 4.59 5.085 6.005zm-4.372-5.19c-1.08-2.27-1.652-5.023-1.68-8.292l-2 .017c.03 3.488.642 6.543 1.875 9.134zm-1.68-8.292-.181-21.908-2 .017.182 21.908zm8.014-9.34.05 5.91 2-.017-.05-5.909zm.05 5.91c.018 2.216.44 4.056 1.423 5.357l1.596-1.206c-.61-.806-1.003-2.141-1.02-4.168zm1.428 5.365c1.038 1.346 2.547 1.966 4.36 1.95l-.017-2c-1.309.012-2.172-.41-2.758-1.171zm4.36 1.95c1.246-.01 2.37-.306 3.315-.942l-1.115-1.66c-.56.376-1.282.595-2.217.603zm3.315-.942c.934-.628 1.622-1.508 2.075-2.597l-1.846-.768c-.32.766-.77 1.32-1.344 1.705zm2.073-2.591c.453-1.07.654-2.313.643-3.698l-2 .016c.01 1.19-.165 2.147-.485 2.902zm.643-3.698-.05-6.091-2 .016.05 6.091zm-1.06-7.083-9.817.082.017 2 9.817-.082zm6.827.944.043 5.181 2-.016-.043-5.182zm.043 5.181c.01 1.21.21 2.32.625 3.307l1.844-.775c-.296-.704-.46-1.546-.469-2.548zm.625 3.307c.418.992 1.032 1.806 1.86 2.393l1.157-1.632c-.483-.342-.88-.838-1.173-1.536zm1.857 2.39c.869.621 1.896.903 3.028.894l-.017-2c-.778.007-1.376-.183-1.848-.52zm3.028.894c1.711-.014 3.124-.657 4.084-1.987l-1.62-1.171c-.538.743-1.314 1.148-2.481 1.158zm4.079-1.98c.919-1.246 1.336-2.777 1.321-4.52l-2 .017c.012 1.409-.322 2.49-.931 3.317zm1.321-4.52-.044-5.363-2 .017.044 5.363zm-1.052-6.355-8.91.074.017 2 8.91-.074zm-25.87 73.399-.487.874.002.001zm-8.135-8.092-.88.477.002.003zm-.168-22.953-.883-.47-.003.005zm8.023-8.204-.497-.867-.004.002zm26.158-.217.486-.874-.002-.001zm8.136 8.069-.879.478.001.002zm.19 22.954-.885-.464-.002.003zm-8 8.226-.5-.866-.001.001zm-6.137-11.04-.362-.933-.008.004zm4.336-3.287-.823-.567-.007.01zm-.087-10.567-.818.575.001.002zm-4.39-3.214.351-.936-.004-.001zm-14.114.117-.361-.932-.01.003zm-4.337 3.286-.823-.568-.006.01zm.088 10.568-.818.576.002.001zm4.39 3.214.353-.936-.004-.002zm7.177 13.054c-5.054.042-9.253-.906-12.644-2.788l-.971 1.749c3.763 2.089 8.323 3.083 13.632 3.039zm-12.643-2.787c-3.406-1.899-5.978-4.463-7.745-7.698l-1.755.959c1.957 3.583 4.808 6.413 8.526 8.486zm-7.743-7.695c-1.762-3.253-2.668-6.9-2.701-10.963l-2 .016c.036 4.361 1.011 8.335 2.942 11.9zm-2.701-10.963c-.035-4.093.818-7.769 2.54-11.05l-1.771-.929c-1.889 3.598-2.806 7.604-2.77 11.995zm2.537-11.045c1.728-3.251 4.266-5.852 7.642-7.807l-1.003-1.731c-3.682 2.133-6.492 5.001-8.405 8.599zm7.637-7.805c3.361-1.925 7.53-2.934 12.554-2.976l-.016-2c-5.28.044-9.805 1.106-13.532 3.241zm12.554-2.976c5.056-.042 9.248.899 12.623 2.766l.968-1.75c-3.748-2.073-8.3-3.06-13.607-3.016zm12.622 2.766c3.422 1.899 5.992 4.455 7.742 7.672l1.757-.955c-1.942-3.571-4.795-6.394-8.528-8.466zm7.743 7.674c1.776 3.251 2.69 6.912 2.723 11.006l2-.017c-.036-4.391-1.02-8.381-2.968-11.948zm2.723 11.006c.034 4.061-.818 7.722-2.54 11.004l1.77.929c1.888-3.597 2.806-7.588 2.77-11.95zm-2.542 11.007c-1.697 3.26-4.224 5.866-7.613 7.821l1 1.732c3.699-2.134 6.505-5.012 8.387-8.63zm-7.614 7.822c-3.344 1.937-7.518 2.954-12.573 2.996l.017 2c5.309-.044 9.844-1.114 13.558-3.266zm-12.664-8.003c2.87-.024 5.346-.426 7.398-1.243l-.74-1.858c-1.755.699-3.969 1.078-6.675 1.101zm7.389-1.24c2.074-.804 3.699-2.014 4.805-3.661l-1.66-1.115c-.839 1.248-2.105 2.228-3.868 2.911zm4.798-3.651c1.127-1.633 1.652-3.607 1.633-5.861l-2 .017c.017 1.927-.43 3.477-1.279 4.709zm1.633-5.861c-.018-2.254-.576-4.224-1.727-5.852l-1.633 1.155c.873 1.234 1.345 2.787 1.36 4.714zm-1.726-5.85c-1.132-1.609-2.774-2.791-4.856-3.574l-.704 1.872c1.779.669 3.064 1.631 3.925 2.853zm-4.86-3.575c-2.062-.767-4.542-1.119-7.41-1.095l.016 2c2.708-.023 4.93.313 6.698.969zm-7.41-1.095c-2.869.023-5.35.417-7.412 1.217l.722 1.865c1.774-.688 3.999-1.06 6.706-1.082zm-7.421 1.22c-2.053.818-3.67 2.025-4.79 3.647l1.647 1.136c.857-1.243 2.13-2.227 3.883-2.925zm-4.796 3.657c-1.107 1.646-1.622 3.622-1.604 5.874l2-.017c-.016-1.93.424-3.492 1.263-4.741zm-1.604 5.874c.019 2.251.567 4.213 1.703 5.828l1.636-1.152c-.857-1.218-1.323-2.762-1.339-4.693zm1.705 5.829c1.146 1.622 2.787 2.804 4.858 3.574l.697-1.875c-1.759-.653-3.045-1.613-3.922-2.853zm4.854 3.573c2.079.782 4.568 1.142 7.438 1.119l-.017-2c-2.705.022-4.934-.32-6.716-.991zm31.087 46.316 1-.008-.009-1-1 .008zm.104 12.636.009 1 1-.008-.009-1zM28.06 194.15l.54-.841v-.001zm-6.036-6.995-.904.427.002.004zm-.174-21.045-.91-.416-.001.004zm5.918-7.095-.548-.836-.005.003zm39.001-2.824 1-.008-.008-1-1 .009zm.105 12.636.008 1 1-.008-.008-1zm-32.582 1.225-.496-.868-.005.003zm-2.614 2.658-.874-.486-.003.005zm.064 7.727-.866.501zm2.658 2.615-.486.874.005.002zm31.598.692.104 12.636 2-.016-.105-12.636zm1.096 11.628-29.817.247.016 2 29.818-.247zm-29.817.247c-3.38.028-6.258-.754-8.676-2.31l-1.082 1.682c2.791 1.796 6.063 2.659 9.774 2.628zm-8.677-2.311c-2.42-1.551-4.313-3.735-5.673-6.584l-1.805.862c1.507 3.157 3.639 5.637 6.398 7.406zm-5.671-6.58c-1.346-2.849-2.05-6.196-2.083-10.064l-2 .017c.035 4.101.782 7.743 2.274 10.901zm-2.083-10.064c-.032-3.9.617-7.272 1.915-10.142l-1.822-.824c-1.44 3.183-2.127 6.852-2.092 10.983zm1.913-10.138c1.313-2.872 3.17-5.087 5.563-6.678l-1.107-1.666c-2.73 1.815-4.82 4.33-6.275 7.512zm5.557-6.674c2.394-1.568 5.261-2.385 8.644-2.413l-.016-2c-3.708.031-6.963.931-9.724 2.74zm8.644-2.413 29.817-.248-.016-1.999-29.817.247zm28.81-1.239.104 12.636 2-.017-.105-12.636zm1.096 11.627-28.727.239.017 2 28.726-.239zm-28.727.239c-1.592.013-3.048.379-4.343 1.118l.992 1.737c.967-.553 2.081-.845 3.368-.855zm-4.348 1.121a7.9 7.9 0 0 0-2.987 3.037l1.747.973a5.9 5.9 0 0 1 2.242-2.279zm-2.99 3.042c-.718 1.307-1.059 2.769-1.046 4.361l2-.016c-.01-1.287.263-2.406.8-3.382zm-1.046 4.361c.013 1.605.378 3.064 1.121 4.348l1.731-1.001c-.548-.948-.841-2.059-.852-3.363zm1.121 4.348a7.9 7.9 0 0 0 3.038 2.988l.972-1.748a5.9 5.9 0 0 1-2.279-2.241zm3.042 2.99c1.307.718 2.77 1.059 4.362 1.046l-.017-2c-1.287.011-2.406-.263-3.382-.799zm4.362 1.046 28.726-.238-.017-2-28.726.238zm18.68 16.215-.008-1-1 .009.008.999zm10.182-.084 1-.009-.009-1-1 .009zm.335 40.453.009 1 1-.008-.009-1zm-10.181.084-1 .009.008 1 1-.009zm-.116-13.999 1-.008-.009-1-1 .008zm-36.363.302-1 .008.009 1 1-.009zm-.103-12.455-.008-1-1 .009.008 1zm36.362-.301.009 1 1-.009-.009-1zm-.108-13 10.182-.084-.017-2-10.181.084zm9.174-1.076.335 40.453 2-.016-.335-40.454zm1.327 39.445-10.182.084.017 2 10.182-.084zm-9.173 1.076-.116-13.999-2 .016.116 14zm-1.125-14.991-36.362.302.017 1.999 36.362-.301zm-35.354 1.293-.103-12.454-2 .017.103 12.454zm-1.095-11.446 36.363-.301-.017-2-36.362.301zm37.354-1.31-.116-13.999-2 .016.116 14zm9.775 71.427 1-.008-.008-1-1 .009zm.105 12.636.008 1 1-.008-.008-1zm-39.043-2.221.541-.841v-.001zm-6.035-6.996-.904.427.001.004zm-.175-21.045-.91-.415v.003zm5.919-7.094-.548-.837-.006.004zm39-2.824 1-.008-.008-1-1 .008zm.105 12.636.009 1 1-.008-.009-1zm-32.581 1.225-.496-.869-.005.003zm-2.615 2.658-.874-.486-.002.005zm.064 7.727-.865.501zm2.658 2.614-.486.874.005.003zm31.598.693.105 12.636 2-.017-.105-12.636zm1.097 11.627-29.818.248.017 2 29.817-.248zm-29.818.248c-3.38.028-6.257-.755-8.676-2.31l-1.082 1.682c2.792 1.795 6.064 2.659 9.775 2.628zm-8.677-2.311c-2.42-1.552-4.312-3.735-5.673-6.585l-1.805.862c1.508 3.157 3.64 5.637 6.399 7.407zm-5.671-6.581c-1.346-2.849-2.05-6.195-2.082-10.063l-2 .016c.034 4.101.782 7.743 2.274 10.901zm-2.082-10.063c-.033-3.9.616-7.273 1.914-10.143l-1.822-.824c-1.44 3.184-2.126 6.853-2.092 10.983zm1.913-10.139c1.313-2.872 3.169-5.086 5.563-6.678l-1.108-1.665c-2.73 1.815-4.82 4.33-6.274 7.512zm5.557-6.674c2.393-1.568 5.26-2.385 8.644-2.413l-.017-2c-3.707.031-6.962.932-9.723 2.74zm8.644-2.413 29.817-.247-.017-2-29.817.247zm28.809-1.239.104 12.636 2-.016-.105-12.636zm1.096 11.628-28.726.238.016 2 28.727-.238zm-28.726.238c-1.592.013-3.048.379-4.343 1.118l.991 1.737c.968-.552 2.082-.844 3.368-.855zm-4.348 1.121a7.9 7.9 0 0 0-2.988 3.038l1.748.972a5.9 5.9 0 0 1 2.241-2.279zm-2.99 3.043c-.718 1.306-1.06 2.769-1.046 4.361l2-.017c-.011-1.287.263-2.405.799-3.382zm-1.046 4.361c.013 1.605.378 3.064 1.12 4.348l1.732-1.002c-.549-.948-.842-2.059-.852-3.363zm1.12 4.348a7.9 7.9 0 0 0 3.038 2.987l.973-1.747a5.9 5.9 0 0 1-2.28-2.242zm3.043 2.99c1.307.718 2.769 1.059 4.361 1.046l-.017-2c-1.286.011-2.405-.263-3.381-.799zm4.361 1.046 28.726-.239-.016-1.999-28.726.238zm14.536 42.614-.088-.997-.92.082.008.923zm3.531-1.734-.768-.641-.005.006zm.731-7.779-.935.355.004.009zm-1.265-1.808.59-.808zm-1.823-.599-.046.999.016.001h.016zm-1.52.308-.455-.89-.018.009-.018.01zm-1.196 1.147-.821-.57-.006.008-.005.008zm-1.687 4.855.98.201.002-.008zm-.786 3.825-.98-.202v.003zm-2.104 6.631-.903-.431zm-3.122 4.526-.7-.715-.004.005zm-4.024 2.602-.35-.937-.008.003zm-4.902.904.004 1h.013zm-7.791-2.231-.575.819zm-4.895-6.459.928-.374v-.001zm-.035-20.705-.932-.363v.001zm5.464-7.046-.558-.83-.006.004zm9.57-2.58 1-.008-.008-1.004-1.004.013zm.1 12 .061.998.947-.058-.008-.948zm-3.582 1.098-.556-.831zm-2.182 2.7-.921-.391-.002.005zm-.188 7.547-.936.352zm1.404 2.057-.616.788zm2.028.71-.011 1 .02.001.02-.001zm1.858-.72-.634-.773-.012.01-.011.01zm1.436-2.193-.92-.39-.005.012zm1.194-4.124.978.206v-.003zm.961-4.645-.979-.203v.001zm4.396-9.786-.752-.659-.004.005zm8.584-3.594.005 1 .009-.001zm7.77 2.299.578-.816-.001-.001zm5.26 6.615.913-.407-.001-.002zm.139 19.545-.913-.409zm-5.266 6.385-.551-.834-.006.004zm-7.958 2.339-1 .008.009 1.005 1.005-.013zm-.012-11.094c1.738-.154 3.18-.834 4.216-2.095l-1.546-1.27c-.643.783-1.556 1.258-2.846 1.372zm4.211-2.09c1.057-1.266 1.485-3.071 1.467-5.227l-2 .016c.016 1.935-.38 3.183-1.003 3.93zm1.467-5.227c-.011-1.374-.188-2.573-.573-3.557l-1.862.729c.265.678.425 1.612.435 2.844zm-.57-3.547c-.356-.94-.876-1.726-1.61-2.261l-1.179 1.616c.335.244.658.663.92 1.355zm-1.61-2.261a4.1 4.1 0 0 0-2.398-.791l-.028 2c.482.007.887.143 1.247.407zm-2.366-.79a4 4 0 0 0-2.021.417l.91 1.781a2 2 0 0 1 1.02-.2zm-2.057.436c-.598.337-1.102.836-1.526 1.448l1.643 1.14c.295-.425.588-.69.864-.845zm-1.537 1.464c-.404.608-.75 1.352-1.05 2.209l1.889.66c.263-.754.542-1.334.826-1.762zm-1.05 2.209q-.45 1.294-.786 3.007l1.963.386q.318-1.611.712-2.733zm-.784 2.998-.787 3.825 1.96.403.786-3.825zm-.787 3.828c-.512 2.522-1.192 4.65-2.027 6.399l1.805.862c.923-1.932 1.646-4.225 2.182-6.863zm-2.027 6.399c-.838 1.757-1.815 3.163-2.918 4.242l1.399 1.43c1.301-1.274 2.405-2.886 3.324-4.81zm-2.923 4.247c-1.091 1.081-2.313 1.869-3.67 2.375l.7 1.874c1.634-.61 3.095-1.557 4.378-2.829zm-3.678 2.378c-1.375.527-2.892.81-4.56.838l.033 2c1.877-.032 3.628-.352 5.243-.971zm-4.547.838c-2.89.01-5.277-.69-7.214-2.049l-1.149 1.637c2.331 1.636 5.14 2.423 8.37 2.412zm-7.214-2.049c-1.95-1.37-3.472-3.356-4.541-6.015l-1.856.747c1.19 2.958 2.932 5.279 5.248 6.905zm-4.542-6.016c-1.07-2.648-1.638-5.883-1.67-9.733l-2 .016c.034 4.029.628 7.526 1.816 10.466zm-1.67-9.733c-.032-3.949.524-7.354 1.64-10.236l-1.865-.723c-1.227 3.168-1.809 6.834-1.775 10.975zm1.64-10.235c1.105-2.837 2.805-5.018 5.096-6.582l-1.128-1.652c-2.65 1.81-4.593 4.327-5.832 7.509zm5.09-6.578c2.283-1.536 5.268-2.364 9.024-2.41l-.024-1.999c-4.03.049-7.426.94-10.116 2.749zm8.012-3.401.1 11.999 2-.016-.1-12zm1.038 10.993c-1.56.096-2.934.502-4.076 1.265l1.111 1.662c.787-.525 1.8-.852 3.088-.931zm-4.076 1.265c-1.14.761-1.987 1.821-2.547 3.14l1.841.782c.42-.992 1.028-1.732 1.817-2.26zm-2.549 3.145c-.554 1.324-.807 2.853-.793 4.559l2-.016c-.012-1.505.212-2.753.638-3.771zm-.793 4.559c.012 1.424.197 2.676.592 3.726l1.872-.704c-.287-.762-.453-1.764-.464-3.038zm.592 3.726c.388 1.031.949 1.887 1.724 2.493l1.231-1.576c-.414-.324-.789-.839-1.083-1.621zm1.724 2.493a4.27 4.27 0 0 0 2.633.922l.023-2a2.27 2.27 0 0 1-1.425-.498zm2.674.922a3.88 3.88 0 0 0 2.485-.966l-1.314-1.507a1.88 1.88 0 0 1-1.23.474zm2.462-.946c.724-.593 1.282-1.496 1.728-2.589l-1.851-.756c-.386.944-.785 1.503-1.145 1.798zm1.723-2.578c.467-1.102.88-2.546 1.251-4.307l-1.957-.412c-.358 1.7-.74 3.005-1.136 3.94zm1.252-4.31.961-4.645-1.958-.405-.962 4.644zm.961-4.644c.836-4.015 2.245-7.105 4.174-9.336l-1.513-1.308c-2.213 2.56-3.736 5.995-4.619 10.237zm4.17-9.331c1.868-2.133 4.439-3.239 7.836-3.253l-.009-2c-3.876.016-7.028 1.305-9.332 3.935zm7.845-3.254c2.762-.037 5.14.676 7.179 2.116l1.154-1.633c-2.413-1.705-5.213-2.525-8.36-2.482zm7.178 2.116c2.077 1.471 3.723 3.528 4.925 6.209l1.825-.819c-1.33-2.965-3.19-5.319-5.594-7.022zm4.924 6.207c1.2 2.691 1.829 5.811 1.858 9.38l2-.016c-.031-3.794-.7-7.194-2.031-10.179zm1.858 9.38c.03 3.648-.554 6.755-1.718 9.348l1.825.819c1.306-2.912 1.925-6.316 1.893-10.183zm-1.718 9.348c-1.165 2.599-2.803 4.572-4.904 5.96l1.103 1.669c2.45-1.62 4.322-3.904 5.626-6.81zm-4.91 5.964c-2.08 1.398-4.54 2.131-7.414 2.169l.026 2c3.216-.043 6.063-.869 8.503-2.509zm-6.4 3.161-.101-12.091-2 .017.1 12.09z" mask="url('#path-1-outside-1_1_10673')"/><mask id="path-3-outside-2_1_10673" width="53.786" height="336.412" x="222.992" y="6.842" fill="#000" maskUnits="userSpaceOnUse"><path fill="#fff" d="M222.992 6.842h53.786v336.412h-53.786z"/><path d="m225.117 22.34-.113-13.637 46.672 14.977.143 17.272-46.416 15.75-.114-13.636 33.642-10.462-.003-.363zm18.342-2.699.213 25.636-9.454.078-.213-25.635zM225.44 61.184l46.544-.386.167 20.181q.044 5.319-1.358 8.944-1.401 3.648-3.999 5.51-2.599 1.885-6.144 1.915-2.568.02-4.691-1.097-2.123-1.097-3.571-3.107-1.426-2.01-1.994-4.711l-.455.004q-.088 3-1.477 5.467a10.45 10.45 0 0 1-3.808 3.94q-2.42 1.475-5.715 1.502-3.818.033-6.812-1.943-2.994-1.953-4.729-5.598t-1.776-8.712zm10.195 12.553.049 5.909q.027 3.18 1.222 4.762 1.217 1.581 3.558 1.562 1.636-.014 2.767-.773 1.13-.76 1.709-2.15.579-1.37.564-3.301l-.051-6.09zm17.636-.147.043 5.182q.013 1.66.547 2.927.533 1.268 1.516 1.965 1.007.72 2.438.707 2.159-.018 3.283-1.573 1.146-1.555 1.126-3.918l-.044-5.364zm-3.831 75.239q-7.772.065-13.138-2.914-5.343-2.978-8.135-8.092-2.77-5.113-2.823-11.431-.053-6.363 2.655-11.522 2.73-5.137 8.023-8.204 5.316-3.043 13.043-3.108 7.772-.064 13.115 2.891 5.365 2.98 8.136 8.069 2.792 5.114 2.845 11.477.053 6.318-2.655 11.477-2.685 5.159-8 8.226-5.293 3.066-13.066 3.131m-.107-12.999q4.181-.035 7.036-1.172 2.877-1.115 4.336-3.287 1.483-2.148 1.456-5.284-.026-3.136-1.544-5.283-1.494-2.125-4.39-3.214-2.873-1.067-7.054-1.032-4.182.035-7.059 1.149-2.855 1.138-4.337 3.286-1.459 2.172-1.433 5.308t1.521 5.26q1.518 2.146 4.39 3.214 2.896 1.09 7.078 1.055m23.656 46.197.105 12.636-29.817.247q-5.317.045-9.225-2.469-3.885-2.49-6.036-6.995-2.129-4.506-2.178-10.483-.05-6.022 2.004-10.562 2.076-4.54 5.918-7.095 3.865-2.532 9.184-2.576l29.817-.247.105 12.635-28.727.239q-2.158.018-3.855.986a6.9 6.9 0 0 0-2.615 2.658q-.94 1.713-.922 3.872.018 2.182.987 3.855a6.9 6.9 0 0 0 2.658 2.615q1.712.94 3.871.922zm-10.037 17.453 10.182-.084.335 40.453-10.181.084-.116-13.999-36.363.302-.103-12.455 36.362-.301zm10.891 85.418.105 12.636-29.817.248q-5.319.044-9.226-2.469-3.884-2.49-6.035-6.996-2.129-4.505-2.178-10.482-.05-6.022 2.003-10.563 2.076-4.54 5.919-7.094 3.865-2.532 9.183-2.577l29.817-.247.105 12.636-28.726.238q-2.159.018-3.856.987a6.9 6.9 0 0 0-2.614 2.658q-.94 1.713-.923 3.871.019 2.182.987 3.856a6.9 6.9 0 0 0 2.658 2.614q1.712.94 3.872.923zm-14.182 43.853q2.271-.201 3.531-1.734 1.26-1.511 1.235-4.579-.016-1.955-.504-3.2-.465-1.224-1.265-1.808a3.1 3.1 0 0 0-1.823-.599 3 3 0 0 0-1.521.308q-.655.37-1.195 1.147-.516.776-.938 1.985-.422 1.208-.749 2.87l-.786 3.825q-.786 3.87-2.104 6.631t-3.122 4.526q-1.781 1.765-4.024 2.602-2.243.86-4.902.904-4.59.015-7.791-2.231t-4.895-6.459q-1.693-4.191-1.743-10.1-.05-6.067 1.708-10.605 1.758-4.515 5.464-7.046 3.729-2.508 9.57-2.58l.1 12q-2.136.132-3.582 1.098-1.447.966-2.183 2.7-.735 1.756-.715 4.165.016 2.023.528 3.382.512 1.36 1.403 2.057a3.27 3.27 0 0 0 2.029.71 2.87 2.87 0 0 0 1.858-.72q.813-.666 1.436-2.193.647-1.529 1.193-4.124l.962-4.645q1.29-6.192 4.396-9.786 3.13-3.571 8.584-3.594 4.432-.06 7.77 2.299 3.36 2.381 5.259 6.615 1.899 4.258 1.945 9.78.046 5.637-1.805 9.765-1.852 4.13-5.266 6.385-3.39 2.279-7.958 2.339z"/></mask><path fill="#05C2DF" fill-opacity=".2" d="m225.117 22.34-.999.007.006.743.712.209zm-.113-13.637.306-.952-1.317-.423.011 1.384zm46.672 14.977 1-.008-.006-.723-.689-.221zm.143 17.272.321.947.685-.232-.006-.723zm-46.416 15.75-1 .008.011 1.383 1.31-.444zm-.114-13.636-.296-.955-.71.22.006.743zm33.642-10.462.297.955.709-.22-.006-.743zm-.003-.363 1-.008-.006-.743-.713-.209zm-15.469-12.6 1-.008-.008-1-1 .008zm.213 25.636.008 1 1-.008-.008-1zm-9.454.078-1 .009.008 1 1-.009zm-.213-25.635-.008-1-1 .008.008 1zm-7.888 2.61-.113-13.635-2 .017.114 13.635zm-1.418-12.675 46.671 14.977.611-1.904L225.31 7.751zm45.977 14.034.143 17.272 2-.017-.143-17.272zm.822 16.316-46.417 15.75.643 1.894 46.416-15.75zm-45.095 16.688-.114-13.636-2 .017.114 13.636zm-.817-12.672 33.642-10.462-.594-1.91-33.641 10.462zm34.345-11.425-.003-.363-2 .016.003.364zm-.722-1.315-33.81-9.902-.563 1.92 33.811 9.901zm-16.75-11.631.213 25.635 2-.016-.213-25.636zm1.205 24.627-9.454.078.016 2 9.454-.078zm-8.446 1.07-.213-25.635-2 .016.213 25.636zm-1.205-24.627 9.455-.079-.017-2-9.454.079zm-8.573 40.464-.009-1-.999.009.008 1zm46.544-.386 1-.008-.009-1-1 .008zm-1.191 29.125-.932-.36-.001.001zm-3.999 5.51-.583-.812-.005.003zm-10.835.818.466-.885-.007-.004zm-3.571-3.107-.816.578.004.006zm-1.994-4.711.979-.206-.169-.8-.818.006zm-.455.004-.008-1-.963.008-.028.962zm-1.477 5.467-.871-.491-.004.006zm-3.808 3.94-.517-.856-.004.002zm-12.527-.441.551-.835-.005-.003zm-4.729-5.597.903-.43zm8.237-18.07-.008-1-1 .009.008 1zm1.271 10.672-.798.603.005.008zm8.034-1.362-.921-.39-.002.006zm.513-9.39 1-.01-.008-1-1 .01zm7.818-.066-.008-1-1 .009.008 1zm.59 8.11-.922.387zm1.516 1.964.582-.814-.004-.002zm5.721-.866-.805-.593-.006.008zm1.082-9.282 1-.008-.009-1-1 .008zm-36.732-11.332 46.544-.386-.017-2-46.544.386zm45.536-1.377.167 20.18 2-.016-.167-20.181zm.167 20.18c.029 3.463-.415 6.31-1.29 8.575l1.865.721c.994-2.569 1.455-5.684 1.425-9.312zm-1.291 8.577c-.88 2.29-2.108 3.952-3.649 5.057l1.165 1.625c1.923-1.378 3.362-3.391 4.351-5.965zm-3.654 5.06c-1.546 1.122-3.386 1.706-5.564 1.724l.016 2c2.549-.021 4.805-.713 6.723-2.105zm-5.564 1.724c-1.559.013-2.958-.319-4.217-.982l-.932 1.77c1.572.828 3.3 1.228 5.165 1.212zm-4.224-.986c-1.27-.656-2.342-1.585-3.219-2.803l-1.623 1.17c1.054 1.463 2.364 2.605 3.924 3.41zm-3.215-2.797c-.862-1.216-1.477-2.656-1.83-4.338l-1.958.412c.404 1.918 1.118 3.618 2.157 5.083zm-2.817-5.132-.455.004.017 2 .454-.004zm-1.446.974c-.055 1.849-.508 3.511-1.349 5.006l1.742.981c1.01-1.794 1.542-3.776 1.606-5.928zm-1.353 5.012a9.45 9.45 0 0 1-3.45 3.57l1.034 1.712a11.45 11.45 0 0 0 4.166-4.313zm-3.454 3.572c-1.435.874-3.157 1.338-5.203 1.356l.017 1.999c2.348-.019 4.436-.556 6.227-1.648zm-5.203 1.356c-2.36.019-4.433-.579-6.252-1.779l-1.102 1.67c2.173 1.433 4.64 2.131 7.371 2.108zm-6.257-1.782c-1.822-1.188-3.284-2.903-4.372-5.19l-1.806.86c1.226 2.574 2.916 4.59 5.086 6.005zm-4.372-5.19c-1.08-2.268-1.652-5.022-1.679-8.29l-2 .016c.029 3.488.64 6.543 1.873 9.134zm-1.679-8.29-.182-21.909-2 .017.182 21.908zm8.013-9.34.049 5.909 2-.017-.049-5.909zm.049 5.909c.019 2.216.44 4.056 1.424 5.357l1.595-1.206c-.609-.806-1.002-2.141-1.019-4.168zm1.429 5.365c1.038 1.346 2.547 1.966 4.359 1.95l-.016-2c-1.309.012-2.172-.41-2.758-1.171zm4.359 1.95c1.247-.01 2.37-.306 3.316-.942l-1.115-1.66c-.561.376-1.282.595-2.217.603zm3.316-.942c.934-.628 1.622-1.508 2.075-2.597l-1.846-.768c-.319.766-.771 1.32-1.344 1.705zm2.073-2.59c.453-1.07.654-2.314.643-3.7l-2 .017c.009 1.19-.165 2.147-.485 2.902zm.643-3.7-.051-6.09-2 .016.051 6.091zm-1.059-7.082-9.818.082.016 2 9.818-.082zm6.826.944.043 5.181 2-.016-.043-5.182zm.043 5.181c.01 1.21.21 2.32.625 3.307l1.844-.775c-.296-.704-.461-1.546-.469-2.548zm.625 3.307c.417.992 1.032 1.806 1.86 2.393l1.156-1.632c-.482-.342-.879-.838-1.172-1.536zm1.857 2.39c.869.621 1.896.903 3.027.894l-.016-2c-.778.007-1.376-.183-1.848-.52zm3.027.894c1.712-.014 3.124-.657 4.085-1.987l-1.621-1.171c-.537.743-1.313 1.149-2.48 1.158zm4.08-1.98c.919-1.246 1.336-2.777 1.321-4.52l-2 .017c.012 1.409-.322 2.49-.931 3.317zm1.321-4.52-.044-5.363-2 .017.044 5.363zm-1.053-6.355-8.908.074.016 2 8.909-.074zm-25.869 73.399-.487.874.002.001zm-8.135-8.092-.88.477.002.003zm-.168-22.953-.883-.47-.003.005zm8.023-8.204-.497-.867-.004.002zm26.158-.217.486-.874-.002-.001zm8.136 8.069-.879.478.001.002zm.19 22.954-.885-.464-.002.003zm-8 8.226-.5-.866-.001.001zm-6.137-11.04-.362-.933-.009.004zm4.336-3.287-.823-.567-.007.01zm-.088-10.567-.817.575.001.002zm-4.39-3.214.352-.936-.004-.001zm-14.113.117-.361-.932-.009.003zm-4.337 3.286-.823-.568-.007.01zm.088 10.568-.818.576.001.001zm4.39 3.214.353-.936-.004-.002zm7.177 13.054c-5.054.042-9.253-.906-12.644-2.788l-.971 1.749c3.763 2.089 8.323 3.083 13.632 3.039zm-12.643-2.787c-3.406-1.899-5.978-4.463-7.745-7.698l-1.755.959c1.957 3.583 4.808 6.413 8.526 8.486zm-7.743-7.695c-1.762-3.253-2.668-6.9-2.702-10.963l-2 .016c.037 4.361 1.012 8.335 2.943 11.9zm-2.702-10.963c-.034-4.093.819-7.769 2.54-11.05l-1.771-.929c-1.888 3.598-2.805 7.604-2.769 11.995zm2.538-11.045c1.728-3.251 4.266-5.852 7.641-7.807l-1.002-1.731c-3.682 2.133-6.493 5.001-8.405 8.599zm7.637-7.805c3.361-1.925 7.53-2.934 12.554-2.976l-.016-2c-5.279.044-9.805 1.106-13.532 3.241zm12.554-2.976c5.056-.042 9.248.899 12.623 2.766l.968-1.75c-3.748-2.073-8.3-3.06-13.607-3.016zm12.622 2.766c3.421 1.899 5.992 4.455 7.742 7.672l1.757-.955c-1.943-3.571-4.796-6.394-8.528-8.466zm7.743 7.674c1.776 3.251 2.689 6.912 2.723 11.006l2-.017c-.037-4.391-1.02-8.381-2.968-11.948zm2.723 11.006c.034 4.061-.818 7.722-2.54 11.004l1.771.929c1.887-3.597 2.805-7.588 2.769-11.95zm-2.542 11.007c-1.697 3.26-4.225 5.866-7.613 7.821l1 1.732c3.699-2.134 6.505-5.012 8.387-8.63zm-7.614 7.822c-3.344 1.937-7.518 2.954-12.573 2.996l.017 2c5.309-.044 9.844-1.114 13.558-3.266zm-12.664-8.003c2.87-.024 5.346-.426 7.398-1.243l-.741-1.858c-1.754.699-3.968 1.078-6.674 1.101zm7.389-1.24c2.074-.804 3.699-2.014 4.805-3.661l-1.66-1.115c-.839 1.248-2.105 2.228-3.868 2.911zm4.798-3.651c1.127-1.633 1.652-3.607 1.633-5.861l-2 .017c.016 1.927-.43 3.477-1.279 4.709zm1.633-5.861c-.018-2.254-.576-4.224-1.727-5.852l-1.633 1.155c.873 1.234 1.344 2.787 1.36 4.714zm-1.726-5.85c-1.133-1.609-2.774-2.791-4.856-3.574l-.704 1.872c1.779.669 3.064 1.631 3.925 2.853zm-4.86-3.575c-2.062-.767-4.543-1.119-7.411-1.095l.017 2c2.708-.023 4.93.313 6.698.969zm-7.411-1.095c-2.868.023-5.349.417-7.411 1.217l.722 1.865c1.773-.688 3.999-1.06 6.706-1.082zm-7.42 1.22c-2.053.818-3.671 2.025-4.79 3.647l1.646 1.136c.858-1.243 2.131-2.227 3.884-2.925zm-4.797 3.657c-1.106 1.646-1.622 3.622-1.603 5.874l2-.017c-.016-1.93.424-3.492 1.263-4.741zm-1.603 5.874c.019 2.251.567 4.213 1.703 5.828l1.636-1.152c-.857-1.217-1.323-2.762-1.339-4.693zm1.704 5.829c1.147 1.622 2.787 2.804 4.859 3.574l.697-1.875c-1.759-.653-3.045-1.613-3.923-2.853zm4.855 3.573c2.078.782 4.568 1.142 7.438 1.119l-.017-2c-2.705.022-4.934-.32-6.716-.991zm31.086 46.316 1-.008-.008-1-1 .008zm.105 12.636.009 1 1-.008-.009-1zm-39.042-2.222.541-.841-.001-.001zm-6.036-6.995-.904.427.002.004zm-.174-21.045-.91-.416-.002.004zm5.918-7.095-.548-.836-.005.003zm39.001-2.823 1-.009-.008-1-1 .009zm.105 12.635.008 1 1-.008-.008-1zm-32.582 1.225-.496-.868-.005.003zm-2.615 2.658-.873-.486-.003.005zm.065 7.727-.866.501zm2.658 2.615-.487.874.005.002zm31.597.692.105 12.636 2-.016-.105-12.636zm1.097 11.628-29.817.247.016 2 29.818-.247zm-29.817.247c-3.38.028-6.258-.754-8.676-2.31l-1.082 1.682c2.791 1.796 6.063 2.659 9.774 2.628zm-8.677-2.311c-2.421-1.551-4.313-3.735-5.673-6.584l-1.805.862c1.507 3.157 3.639 5.637 6.398 7.406zm-5.672-6.58c-1.345-2.849-2.05-6.196-2.082-10.064l-2 .017c.034 4.101.782 7.743 2.274 10.901zm-2.082-10.064c-.032-3.9.617-7.272 1.915-10.142l-1.823-.824c-1.439 3.183-2.126 6.852-2.092 10.983zm1.913-10.138c1.313-2.872 3.169-5.087 5.563-6.678l-1.107-1.666c-2.73 1.815-4.82 4.33-6.275 7.512zm5.557-6.674c2.394-1.568 5.261-2.385 8.644-2.413l-.017-2c-3.707.031-6.962.931-9.723 2.74zm8.644-2.413 29.817-.248-.016-1.999-29.818.247zm28.809-1.239.105 12.636 2-.017-.105-12.636zm1.096 11.627-28.726.239.017 2 28.726-.239zm-28.726.239c-1.592.013-3.048.379-4.343 1.118l.992 1.737c.967-.553 2.081-.845 3.368-.855zm-4.348 1.121a7.9 7.9 0 0 0-2.987 3.037l1.747.973a5.9 5.9 0 0 1 2.242-2.279zm-2.99 3.042c-.718 1.307-1.059 2.769-1.046 4.361l2-.016c-.011-1.287.263-2.406.799-3.382zm-1.046 4.361c.013 1.605.378 3.064 1.121 4.348l1.731-1.001c-.548-.948-.841-2.059-.852-3.363zm1.121 4.348a7.9 7.9 0 0 0 3.037 2.988l.973-1.748a5.9 5.9 0 0 1-2.279-2.241zm3.042 2.99c1.307.718 2.769 1.06 4.361 1.046l-.016-2c-1.287.011-2.406-.263-3.382-.799zm4.361 1.046 28.727-.238-.017-2-28.726.238zm18.681 16.215-.008-1-1 .009.008 1zm10.182-.084.999-.009-.008-1-1 .009zm.335 40.453.008 1 1-.008-.008-1zm-10.181.084-1 .009.008 1 1-.009zm-.116-13.999.999-.008-.008-1-1 .008zm-36.363.302-1 .008.008 1 1-.009zm-.103-12.455-.008-1-1 .009.008 1zm36.362-.301.008 1 1-.009-.008-1zm-.108-13 10.182-.084-.017-2-10.181.084zm9.174-1.076.335 40.453 2-.016-.336-40.454zm1.327 39.445-10.182.084.017 2 10.181-.084zm-9.173 1.076-.117-13.999-1.999.016.116 14zm-1.125-14.991-36.362.302.016 1.999 36.363-.301zm-35.354 1.293-.103-12.454-2 .017.103 12.454zm-1.095-11.446 36.362-.301-.016-2-36.362.301zm37.354-1.31-.116-13.999-2 .017.116 13.999zm9.775 71.427 1-.008-.008-1-1 .009zm.105 12.636.008 1 1-.008-.008-1zm-39.043-2.221.541-.841-.001-.001zm-6.035-6.996-.904.427.001.004zm-.175-21.045-.909-.415-.002.003zm5.919-7.094-.548-.837-.006.004zm39-2.824 1-.008-.008-1-1 .008zm.105 12.636.009 1 .999-.008-.008-1zm-32.582 1.225-.495-.869-.005.003zm-2.614 2.658-.874-.486-.003.005zm.064 7.727-.866.501zm2.658 2.614-.486.874.005.003zm31.598.693.105 12.636 2-.017-.105-12.636zm1.096 11.627-29.817.248.017 2 29.817-.248zm-29.817.248c-3.379.028-6.257-.755-8.676-2.31l-1.082 1.682c2.792 1.795 6.064 2.659 9.775 2.628zm-8.677-2.311c-2.42-1.552-4.312-3.735-5.673-6.585l-1.805.862c1.508 3.157 3.639 5.637 6.398 7.407zm-5.671-6.581c-1.346-2.849-2.05-6.195-2.082-10.063l-2 .016c.034 4.101.782 7.743 2.274 10.901zm-2.082-10.063c-.033-3.9.616-7.273 1.914-10.142l-1.822-.825c-1.44 3.184-2.126 6.853-2.092 10.983zm1.913-10.139c1.313-2.871 3.168-5.086 5.562-6.678l-1.107-1.665c-2.729 1.815-4.819 4.33-6.274 7.512zm5.557-6.674c2.393-1.568 5.26-2.385 8.644-2.413l-.017-2c-3.708.031-6.963.932-9.723 2.74zm8.644-2.413 29.817-.247-.017-2-29.817.247zm28.808-1.239.105 12.636 2-.016-.105-12.636zm1.097 11.628-28.726.238.016 2 28.727-.238zm-28.726.238c-1.592.013-3.049.379-4.343 1.118l.991 1.737c.967-.552 2.082-.844 3.368-.855zm-4.348 1.121a7.9 7.9 0 0 0-2.988 3.038l1.748.972a5.9 5.9 0 0 1 2.241-2.279zm-2.991 3.043c-.717 1.306-1.059 2.769-1.045 4.361l1.999-.017c-.01-1.287.263-2.405.799-3.382zm-1.045 4.361c.013 1.605.378 3.064 1.12 4.348l1.732-1.002c-.549-.948-.842-2.059-.853-3.363zm1.12 4.348a7.9 7.9 0 0 0 3.038 2.987l.973-1.747a5.9 5.9 0 0 1-2.279-2.242zm3.043 2.99c1.307.718 2.769 1.059 4.361 1.046l-.017-2c-1.286.011-2.405-.263-3.381-.799zm4.361 1.046 28.726-.239-.016-1.999-28.727.238zm14.536 42.614-.088-.997-.92.082.008.923zm3.531-1.734-.768-.641-.005.006zm.731-7.779-.935.355.004.009zm-1.265-1.808.59-.808zm-1.823-.599-.046.999.016.001h.016zm-1.521.308-.454-.89-.018.009-.018.01zm-1.195 1.147-.821-.57-.006.008-.006.008zm-1.687 4.855.98.201.001-.008zm-.786 3.825-.98-.202v.003zm-2.104 6.631-.903-.431zm-3.122 4.526-.699-.715-.005.005zm-4.024 2.602-.35-.937-.008.003zm-4.902.904.004 1h.013zm-7.791-2.231-.575.819zm-4.895-6.459.928-.374-.001-.001zm-.035-20.705-.932-.363-.001.001zm5.464-7.046-.558-.83-.006.004zm9.57-2.58 1-.008-.008-1.004-1.004.013zm.1 12 .061.998.946-.058-.008-.948zm-3.582 1.098-.556-.831zm-2.183 2.7-.92-.391-.002.005zm-.187 7.547-.936.352zm1.403 2.057-.615.788zm2.029.71-.012 1 .021.001.021-.001zm1.858-.72-.634-.773-.012.01-.011.01zm1.436-2.193-.921-.39-.005.012zm1.193-4.124.979.206.001-.003zm.962-4.645-.979-.203v.001zm4.396-9.786-.752-.659-.004.005zm8.584-3.594.004 1 .01-.001zm7.77 2.299.578-.816-.001-.001zm5.259 6.615.913-.407v-.002zm.14 19.545-.913-.409zm-5.266 6.385-.551-.834-.007.004zm-7.958 2.339-1 .008.008 1.005 1.005-.013zm-.012-11.094c1.738-.154 3.179-.834 4.216-2.095l-1.546-1.27c-.643.783-1.556 1.258-2.846 1.372zm4.211-2.09c1.057-1.266 1.485-3.071 1.467-5.227l-2 .016c.016 1.935-.379 3.183-1.003 3.93zm1.467-5.227c-.012-1.374-.188-2.573-.573-3.557l-1.862.729c.265.678.425 1.612.435 2.844zm-.569-3.547c-.357-.94-.878-1.726-1.61-2.261l-1.18 1.616c.334.244.657.663.92 1.355zm-1.61-2.261a4.1 4.1 0 0 0-2.399-.791l-.028 2c.482.007.887.143 1.247.407zm-2.368-.79a4 4 0 0 0-2.02.417l.909 1.781a2 2 0 0 1 1.02-.2zm-2.056.436c-.599.337-1.102.836-1.526 1.448l1.643 1.14c.295-.425.588-.69.864-.845zm-1.538 1.464c-.404.608-.75 1.352-1.049 2.209l1.888.66c.263-.754.543-1.334.827-1.762zm-1.049 2.209q-.45 1.294-.786 3.007l1.962.386q.32-1.611.712-2.733zm-.784 2.998-.787 3.825 1.959.403.787-3.825zm-.787 3.828c-.512 2.522-1.192 4.65-2.027 6.399l1.805.862c.923-1.932 1.646-4.225 2.182-6.863zm-2.027 6.399c-.838 1.757-1.815 3.163-2.918 4.242l1.398 1.43c1.302-1.274 2.406-2.885 3.325-4.81zm-2.923 4.247c-1.091 1.081-2.313 1.869-3.67 2.375l.7 1.874c1.634-.61 3.095-1.557 4.378-2.829zm-3.678 2.378c-1.375.527-2.892.81-4.561.838l.034 2c1.877-.032 3.628-.352 5.243-.971zm-4.547.838c-2.891.01-5.277-.69-7.214-2.049l-1.149 1.637c2.331 1.636 5.139 2.423 8.37 2.412zm-7.214-2.049c-1.951-1.37-3.472-3.356-4.541-6.015l-1.856.747c1.19 2.958 2.932 5.279 5.248 6.905zm-4.542-6.016c-1.07-2.648-1.638-5.883-1.67-9.733l-2 .016c.034 4.029.628 7.526 1.816 10.466zm-1.67-9.733c-.033-3.949.524-7.354 1.64-10.236l-1.865-.723c-1.227 3.168-1.809 6.834-1.775 10.975zm1.64-10.235c1.105-2.837 2.805-5.018 5.096-6.582l-1.128-1.652c-2.651 1.81-4.593 4.327-5.832 7.509zm5.09-6.578c2.283-1.536 5.268-2.364 9.024-2.41l-.024-1.999c-4.031.049-7.426.94-10.116 2.749zm8.012-3.401.1 11.999 1.999-.016-.099-12zm1.038 10.993c-1.56.096-2.934.502-4.076 1.265l1.111 1.662c.787-.525 1.801-.852 3.088-.931zm-4.076 1.265c-1.14.761-1.987 1.821-2.547 3.14l1.841.782c.421-.992 1.028-1.732 1.817-2.26zm-2.549 3.145c-.555 1.324-.807 2.853-.793 4.559l2-.016c-.013-1.505.212-2.753.638-3.771zm-.793 4.559c.012 1.424.197 2.676.592 3.726l1.872-.704c-.287-.762-.454-1.764-.464-3.038zm.592 3.726c.388 1.031.949 1.887 1.724 2.493l1.231-1.576c-.414-.324-.789-.839-1.083-1.621zm1.724 2.493a4.27 4.27 0 0 0 2.632.922l.024-2a2.27 2.27 0 0 1-1.425-.498zm2.674.922a3.88 3.88 0 0 0 2.485-.966l-1.314-1.507a1.88 1.88 0 0 1-1.23.474zm2.462-.946c.723-.593 1.282-1.496 1.728-2.589l-1.852-.756c-.385.944-.784 1.503-1.144 1.798zm1.723-2.578c.467-1.102.88-2.546 1.251-4.307l-1.957-.412c-.358 1.7-.74 3.005-1.136 3.94zm1.252-4.31.961-4.645-1.958-.405-.962 4.644zm.961-4.644c.836-4.015 2.245-7.105 4.174-9.336l-1.513-1.308c-2.214 2.56-3.736 5.995-4.619 10.237zm4.169-9.331c1.869-2.133 4.439-3.239 7.836-3.253l-.008-2c-3.876.016-7.028 1.305-9.332 3.935zm7.846-3.254c2.762-.037 5.141.676 7.178 2.116l1.155-1.633c-2.413-1.705-5.213-2.525-8.36-2.482zm7.177 2.116c2.077 1.471 3.723 3.528 4.926 6.209l1.825-.819c-1.33-2.965-3.19-5.319-5.594-7.022zm4.925 6.207c1.201 2.691 1.828 5.811 1.858 9.38l2-.016c-.031-3.794-.7-7.194-2.032-10.179zm1.858 9.38c.03 3.648-.554 6.755-1.718 9.348l1.825.819c1.306-2.912 1.925-6.316 1.893-10.183zm-1.718 9.348c-1.165 2.599-2.803 4.572-4.904 5.96l1.103 1.669c2.45-1.62 4.322-3.903 5.626-6.81zm-4.911 5.964c-2.08 1.398-4.538 2.131-7.413 2.169l.026 2c3.216-.043 6.063-.869 8.503-2.509zm-6.4 3.161-.1-12.091-2 .017.1 12.09z" mask="url('#path-3-outside-2_1_10673')"/><mask id="path-5-outside-3_1_10673" width="53.786" height="336.412" x="428.985" y="5.133" fill="#000" maskUnits="userSpaceOnUse"><path fill="#fff" d="M428.985 5.133h53.786v336.412h-53.786z"/><path d="m431.11 20.63-.113-13.636 46.672 14.977.143 17.272-46.416 15.75-.114-13.636 33.642-10.462-.003-.363zm18.342-2.698.213 25.636-9.454.078-.213-25.635zm-18.019 41.543 46.544-.386.167 20.181q.044 5.319-1.358 8.944-1.4 3.648-4 5.51-2.598 1.885-6.143 1.915-2.568.02-4.691-1.097-2.123-1.097-3.571-3.107-1.427-2.01-1.994-4.711l-.455.004q-.088 3-1.477 5.467a10.45 10.45 0 0 1-3.808 3.94q-2.42 1.475-5.715 1.502-3.818.033-6.812-1.943-2.994-1.953-4.729-5.597t-1.777-8.713zm10.195 12.553.049 5.908q.027 3.183 1.222 4.763 1.216 1.581 3.558 1.562 1.636-.014 2.766-.773 1.131-.76 1.71-2.15.58-1.37.563-3.301l-.05-6.09zm17.636-.147.043 5.182q.013 1.66.547 2.927.533 1.268 1.516 1.965 1.007.72 2.438.707 2.159-.018 3.283-1.573 1.146-1.555 1.126-3.918l-.044-5.364zm-3.831 75.239q-7.772.065-13.138-2.914-5.343-2.978-8.135-8.091-2.77-5.114-2.823-11.432-.052-6.363 2.655-11.522 2.73-5.137 8.023-8.204 5.316-3.043 13.043-3.108 7.772-.064 13.115 2.891 5.365 2.98 8.136 8.069 2.792 5.114 2.845 11.477.052 6.318-2.655 11.477-2.685 5.159-8 8.226-5.293 3.066-13.066 3.131m-.107-12.999q4.181-.035 7.036-1.172 2.877-1.116 4.336-3.286 1.482-2.15 1.456-5.285t-1.544-5.283q-1.495-2.124-4.39-3.214-2.873-1.067-7.054-1.032-4.182.035-7.059 1.149-2.855 1.138-4.337 3.286-1.459 2.172-1.433 5.308t1.521 5.26q1.518 2.146 4.39 3.214 2.896 1.09 7.078 1.055m23.656 46.197.105 12.636-29.817.247q-5.317.045-9.225-2.469-3.885-2.49-6.036-6.995-2.129-4.506-2.178-10.483-.05-6.022 2.004-10.562 2.075-4.54 5.918-7.095 3.865-2.532 9.184-2.576l29.817-.247.105 12.635-28.727.239q-2.159.018-3.855.986a6.9 6.9 0 0 0-2.615 2.658q-.94 1.713-.922 3.872.018 2.182.987 3.855a6.9 6.9 0 0 0 2.658 2.615q1.712.94 3.871.922zm-10.037 17.453 10.181-.084.336 40.453-10.181.084-.117-13.999-36.362.302-.103-12.455 36.362-.301zm10.891 85.418.105 12.636-29.817.248q-5.319.043-9.226-2.469-3.884-2.49-6.035-6.996-2.128-4.504-2.178-10.482-.05-6.022 2.003-10.563 2.076-4.54 5.919-7.094 3.866-2.532 9.183-2.577l29.817-.247.105 12.636-28.726.238q-2.159.018-3.856.987a6.9 6.9 0 0 0-2.614 2.658q-.94 1.713-.923 3.871.019 2.182.987 3.856a6.9 6.9 0 0 0 2.658 2.614q1.712.94 3.872.923zm-14.182 43.853q2.271-.201 3.531-1.734 1.26-1.51 1.235-4.579-.017-1.955-.504-3.2-.465-1.224-1.265-1.808a3.1 3.1 0 0 0-1.823-.599 3 3 0 0 0-1.521.308q-.655.37-1.195 1.147-.516.776-.938 1.985-.422 1.208-.749 2.87l-.786 3.825q-.787 3.87-2.104 6.631-1.319 2.761-3.122 4.526-1.781 1.765-4.024 2.602-2.243.86-4.902.904-4.59.015-7.791-2.231t-4.895-6.459q-1.693-4.191-1.743-10.1-.05-6.067 1.708-10.605 1.758-4.515 5.464-7.046 3.729-2.508 9.57-2.579l.099 11.999q-2.135.132-3.581 1.098t-2.183 2.7q-.735 1.756-.715 4.165.017 2.023.528 3.382.512 1.36 1.403 2.057a3.27 3.27 0 0 0 2.029.71 2.87 2.87 0 0 0 1.858-.72q.812-.665 1.436-2.193.647-1.529 1.193-4.124l.962-4.645q1.29-6.192 4.396-9.786 3.13-3.572 8.584-3.594 4.432-.06 7.77 2.299 3.36 2.381 5.259 6.615 1.899 4.258 1.945 9.78.046 5.637-1.805 9.765-1.852 4.13-5.266 6.385-3.39 2.279-7.958 2.339z"/></mask><path fill="#05C2DF" fill-opacity=".05" d="m431.11 20.63-1 .008.007.743.712.209zm-.113-13.636.306-.952-1.317-.423.011 1.384zm46.672 14.977 1-.008-.006-.723-.689-.221zm.143 17.272.321.947.685-.232-.006-.723zm-46.416 15.75-1 .008.011 1.383 1.31-.444zm-.114-13.636-.297-.955-.709.22.006.743zm33.642-10.462.297.955.709-.22-.006-.743zm-.003-.363 1-.009-.006-.742-.713-.209zm-15.469-12.6 1-.008-.008-1-1 .009zm.213 25.636.008 1 1-.008-.008-1zm-9.454.078-1 .009.008 1 1-.009zm-.213-25.635-.008-1-1 .008.008 1zm-7.888 2.61-.113-13.635-2 .017.113 13.635zm-1.418-12.675 46.671 14.977.611-1.904-46.671-14.977zm45.977 14.034.143 17.272 2-.017-.143-17.272zm.822 16.316-46.417 15.75.643 1.894 46.416-15.75zm-45.096 16.688-.113-13.636-2 .017.114 13.636zm-.816-12.672 33.642-10.462-.594-1.91-33.642 10.462zm34.345-11.425-.003-.364-2 .017.003.364zm-.722-1.315-33.811-9.902-.562 1.92 33.811 9.901zm-16.75-11.631.213 25.635 2-.016-.213-25.636zm1.205 24.627-9.455.078.017 2 9.454-.078zm-8.446 1.07-.213-25.635-2 .016.213 25.636zm-1.205-24.627 9.455-.079-.017-2-9.454.079zm-8.573 40.464-.009-1-1 .009.009 1zm46.544-.386 1-.008-.009-1-1 .008zm-1.191 29.125-.932-.36-.001.001zm-4 5.51-.582-.812-.005.003zm-10.834.818.466-.885-.007-.004zm-3.571-3.107-.816.578.004.006zm-1.994-4.711.979-.206-.169-.8-.818.006zm-.455.004-.008-1-.963.008-.028.962zm-1.477 5.467-.871-.491-.004.006zm-3.808 3.94-.517-.856-.004.002zm-12.527-.441.551-.835-.005-.003zm-4.729-5.597.903-.43zm8.237-18.07-.008-1-1 .009.008 1zm1.271 10.672-.798.603.005.007zm8.034-1.362-.921-.39-.002.006zm.513-9.39 1-.01-.008-1-1 .01zm7.818-.066-.008-1-1 .009.008 1zm.59 8.11-.922.387zm1.516 1.964.582-.814-.004-.002zm5.721-.866-.805-.593-.006.008zm1.082-9.282 1-.008-.009-1-1 .008zm-36.732-11.332 46.544-.386-.017-2-46.544.386zm45.536-1.378.167 20.182 2-.017-.167-20.181zm.167 20.182c.029 3.462-.415 6.31-1.29 8.574l1.865.721c.993-2.569 1.455-5.684 1.425-9.312zm-1.291 8.576c-.88 2.29-2.108 3.952-3.649 5.057l1.165 1.625c1.923-1.379 3.362-3.391 4.351-5.965zm-3.654 5.06c-1.546 1.122-3.386 1.706-5.564 1.724l.016 2c2.549-.021 4.805-.713 6.723-2.105zm-5.564 1.724c-1.559.013-2.958-.319-4.217-.982l-.932 1.77c1.572.828 3.3 1.227 5.165 1.212zm-4.224-.986c-1.27-.656-2.342-1.585-3.219-2.803l-1.623 1.17c1.054 1.463 2.364 2.605 3.924 3.41zm-3.215-2.797c-.862-1.216-1.477-2.656-1.83-4.338l-1.958.412c.404 1.918 1.118 3.618 2.157 5.083zm-2.817-5.132-.455.004.017 2 .454-.004zm-1.446.974c-.055 1.849-.508 3.512-1.349 5.006l1.742.981c1.01-1.794 1.542-3.776 1.606-5.928zm-1.353 5.012a9.45 9.45 0 0 1-3.45 3.57l1.034 1.712a11.45 11.45 0 0 0 4.166-4.313zm-3.454 3.572c-1.435.874-3.157 1.339-5.203 1.356l.017 2c2.348-.02 4.436-.557 6.227-1.649zm-5.203 1.356c-2.36.02-4.433-.579-6.252-1.779l-1.102 1.67c2.173 1.433 4.64 2.131 7.371 2.108zm-6.257-1.782c-1.822-1.188-3.284-2.903-4.372-5.19l-1.806.86c1.226 2.574 2.916 4.59 5.085 6.005zm-4.372-5.19c-1.08-2.268-1.652-5.022-1.68-8.29l-1.999.016c.028 3.488.64 6.544 1.873 9.134zm-1.68-8.29-.181-21.909-2 .017.182 21.908zm8.014-9.34.049 5.909 2-.017-.049-5.909zm.049 5.909c.019 2.216.44 4.056 1.424 5.357l1.595-1.206c-.609-.806-1.002-2.141-1.019-4.168zm1.429 5.365c1.038 1.346 2.547 1.966 4.359 1.95l-.016-2c-1.309.012-2.172-.41-2.758-1.171zm4.359 1.95c1.247-.01 2.37-.306 3.316-.942l-1.115-1.66c-.561.376-1.282.595-2.217.603zm3.316-.942c.934-.627 1.622-1.508 2.075-2.596l-1.846-.77c-.319.767-.771 1.32-1.344 1.706zm2.073-2.59c.453-1.07.654-2.314.642-3.7l-1.999.017c.009 1.19-.165 2.147-.485 2.902zm.642-3.7-.05-6.09-2 .016.051 6.091zm-1.058-7.082-9.818.082.016 2 9.818-.082zm6.826.944.043 5.181 2-.016-.043-5.182zm.043 5.181c.01 1.21.21 2.32.625 3.307l1.844-.775c-.296-.704-.461-1.546-.469-2.548zm.625 3.307c.417.993 1.032 1.806 1.86 2.393l1.156-1.632c-.482-.342-.879-.838-1.172-1.536zm1.857 2.39c.869.621 1.896.903 3.027.894l-.016-2c-.778.007-1.376-.183-1.848-.52zm3.027.894c1.712-.014 3.124-.657 4.085-1.987l-1.621-1.171c-.537.743-1.313 1.148-2.48 1.158zm4.079-1.98c.92-1.246 1.337-2.777 1.322-4.52l-2 .017c.012 1.409-.322 2.49-.931 3.317zm1.322-4.52-.044-5.363-2 .017.044 5.363zm-1.053-6.355-8.908.074.016 2 8.909-.074zm-25.869 73.399-.487.874.002.001zm-8.135-8.091-.88.476.002.003zm-.168-22.954-.883-.47-.003.005zm8.023-8.204-.497-.867-.004.002zm26.158-.217.485-.874-.001-.001zm8.136 8.069-.879.478.001.002zm.19 22.954-.885-.464-.002.003zm-8 8.226-.5-.866-.002.001zm-6.137-11.04-.362-.933-.009.004zm4.336-3.286-.823-.568-.007.01zm-.088-10.568-.817.575.001.002zm-4.39-3.214.352-.936-.004-.001zm-14.113.117-.362-.932-.008.003zm-4.337 3.286-.823-.568-.007.01zm.088 10.568-.818.576.001.001zm4.39 3.214.353-.936-.004-.002zm7.177 13.054c-5.054.042-9.253-.906-12.645-2.788l-.97 1.749c3.763 2.089 8.323 3.083 13.632 3.039zm-12.643-2.787c-3.406-1.899-5.978-4.463-7.745-7.698l-1.755.959c1.957 3.583 4.808 6.413 8.526 8.486zm-7.743-7.695c-1.762-3.253-2.668-6.9-2.702-10.963l-2 .016c.037 4.361 1.012 8.335 2.943 11.9zm-2.702-10.963c-.034-4.093.819-7.769 2.54-11.05l-1.771-.929c-1.888 3.598-2.805 7.604-2.769 11.995zm2.538-11.045c1.728-3.251 4.266-5.852 7.641-7.807l-1.002-1.731c-3.682 2.133-6.493 5.001-8.405 8.599zm7.637-7.805c3.361-1.925 7.53-2.934 12.554-2.976l-.016-2c-5.279.044-9.805 1.106-13.532 3.241zm12.554-2.976c5.056-.042 9.248.899 12.623 2.766l.968-1.75c-3.748-2.073-8.3-3.06-13.607-3.016zm12.622 2.766c3.421 1.899 5.992 4.455 7.742 7.672l1.757-.955c-1.943-3.571-4.796-6.394-8.529-8.466zm7.743 7.674c1.776 3.251 2.689 6.912 2.723 11.006l2-.017c-.037-4.391-1.02-8.381-2.968-11.948zm2.723 11.006c.034 4.061-.819 7.722-2.54 11.004l1.77.929c1.888-3.597 2.806-7.588 2.77-11.95zm-2.542 11.007c-1.697 3.26-4.225 5.866-7.613 7.821l1 1.732c3.699-2.134 6.504-5.012 8.387-8.63zm-7.615 7.822c-3.343 1.937-7.517 2.954-12.572 2.996l.017 2c5.309-.044 9.844-1.114 13.558-3.266zm-12.663-8.003c2.87-.024 5.346-.426 7.398-1.243l-.741-1.858c-1.754.699-3.968 1.078-6.674 1.101zm7.389-1.24c2.074-.804 3.699-2.014 4.805-3.661l-1.66-1.115c-.839 1.249-2.105 2.228-3.868 2.911zm4.798-3.651c1.127-1.633 1.652-3.607 1.633-5.861l-2 .017c.016 1.927-.43 3.477-1.279 4.709zm1.633-5.861c-.018-2.254-.576-4.224-1.727-5.852l-1.633 1.155c.873 1.235 1.344 2.787 1.36 4.714zm-1.726-5.85c-1.133-1.609-2.774-2.791-4.856-3.574l-.704 1.872c1.779.669 3.064 1.631 3.925 2.853zm-4.86-3.575c-2.062-.767-4.543-1.119-7.411-1.095l.017 2c2.708-.023 4.93.313 6.698.969zm-7.411-1.095c-2.868.023-5.349.417-7.412 1.217l.723 1.865c1.773-.688 3.999-1.06 6.706-1.082zm-7.42 1.22c-2.053.818-3.671 2.025-4.79 3.647l1.646 1.136c.858-1.243 2.131-2.227 3.884-2.925zm-4.797 3.657c-1.106 1.646-1.622 3.622-1.603 5.874l2-.017c-.016-1.93.424-3.492 1.263-4.741zm-1.603 5.874c.019 2.251.567 4.213 1.703 5.828l1.636-1.152c-.858-1.217-1.323-2.762-1.339-4.693zm1.704 5.829c1.147 1.622 2.787 2.804 4.859 3.574l.697-1.875c-1.759-.653-3.045-1.613-3.923-2.853zm4.855 3.573c2.078.782 4.568 1.142 7.438 1.119l-.017-2c-2.705.022-4.934-.32-6.716-.991zm31.086 46.316 1-.008-.008-1-1 .008zm.105 12.636.008 1 1-.008-.008-1zm-39.042-2.222.541-.841h-.002zm-6.036-6.995-.904.427.002.004zm-.174-21.045-.91-.416-.002.004zm5.918-7.095-.548-.836-.005.003zm39.001-2.823 1-.009-.008-1-1 .009zm.105 12.635.008 1 1-.008-.008-1zm-32.582 1.225-.496-.868-.005.003zm-2.615 2.658-.873-.486-.003.005zm.065 7.727-.866.501zm2.658 2.615-.487.874.005.002zm31.597.692.105 12.636 2-.016-.105-12.636zm1.097 11.628-29.817.247.016 2 29.817-.247zm-29.817.247c-3.38.028-6.258-.754-8.676-2.31l-1.082 1.682c2.791 1.796 6.063 2.659 9.774 2.628zm-8.678-2.31c-2.42-1.552-4.312-3.736-5.672-6.585l-1.805.862c1.507 3.157 3.639 5.637 6.398 7.406zm-5.671-6.581c-1.346-2.849-2.05-6.196-2.082-10.064l-2 .017c.034 4.101.782 7.743 2.274 10.901zm-2.082-10.064c-.032-3.9.617-7.272 1.915-10.142l-1.823-.824c-1.439 3.183-2.126 6.853-2.092 10.983zm1.913-10.138c1.313-2.872 3.169-5.086 5.563-6.678l-1.107-1.666c-2.73 1.815-4.82 4.33-6.275 7.512zm5.557-6.674c2.394-1.568 5.261-2.385 8.644-2.413l-.017-2c-3.707.031-6.962.931-9.723 2.74zm8.644-2.413 29.817-.248-.016-1.999-29.818.247zm28.809-1.239.105 12.636 2-.017-.105-12.636zm1.096 11.627-28.726.239.017 2 28.726-.239zm-28.726.239c-1.592.013-3.048.379-4.343 1.118l.992 1.737c.967-.552 2.081-.845 3.368-.855zm-4.348 1.121a7.9 7.9 0 0 0-2.987 3.037l1.747.973a5.9 5.9 0 0 1 2.242-2.279zm-2.99 3.042c-.718 1.307-1.059 2.769-1.046 4.361l2-.016c-.011-1.287.263-2.406.799-3.382zm-1.046 4.361c.013 1.605.378 3.064 1.121 4.348l1.731-1.001c-.548-.948-.841-2.059-.852-3.363zm1.121 4.348a7.9 7.9 0 0 0 3.037 2.988l.973-1.748a5.9 5.9 0 0 1-2.279-2.241zm3.042 2.99c1.307.718 2.769 1.06 4.361 1.046l-.016-2c-1.287.011-2.406-.262-3.382-.799zm4.361 1.046 28.727-.238-.017-2-28.726.238zm18.681 16.215-.008-1-1 .009.008 1zm10.181-.084 1-.009-.008-1-1 .009zm.336 40.453.008 1 1-.008-.008-1zm-10.181.084-1 .009.008 1 1-.009zm-.117-13.999 1-.008-.008-1-1 .008zm-36.362.302-1 .008.008 1 1-.008zm-.103-12.455-.009-1-.999.009.008 1zm36.362-.301.008 1 1-.009-.008-1zm-.108-13 10.182-.084-.017-2-10.181.084zm9.174-1.076.335 40.453 2-.016-.336-40.454zm1.327 39.445-10.182.084.017 2 10.181-.084zm-9.173 1.076-.117-13.999-1.999.016.116 14zm-1.125-14.991-36.362.302.016 2 36.363-.302zm-35.354 1.293-.103-12.454-2 .017.103 12.454zm-1.095-11.446 36.362-.301-.016-2-36.363.301zm37.354-1.31-.116-13.999-2 .017.116 13.999zm9.775 71.428 1-.009-.008-1-1 .009zm.105 12.635.008 1 1-.008-.008-1zm-39.043-2.221.541-.841-.001-.001zm-6.035-6.996-.905.427.002.004zm-.175-21.045-.909-.415-.002.003zm5.919-7.094-.548-.837-.006.004zm39-2.824 1-.008-.008-1-1 .008zm.105 12.636.008 1 1-.008-.008-1zm-32.582 1.225-.496-.869-.005.003zm-2.614 2.658-.874-.486-.003.005zm.064 7.727-.866.501zm2.658 2.614-.486.874.005.003zm31.598.693.105 12.636 2-.017-.105-12.636zm1.096 11.627-29.817.248.017 2 29.817-.248zm-29.817.248c-3.379.028-6.257-.755-8.676-2.31l-1.082 1.682c2.792 1.795 6.064 2.659 9.775 2.628zm-8.677-2.311c-2.42-1.552-4.312-3.735-5.673-6.585l-1.805.862c1.508 3.157 3.639 5.637 6.398 7.407zm-5.671-6.581c-1.346-2.849-2.05-6.195-2.082-10.063l-2 .016c.034 4.101.782 7.743 2.273 10.901zm-2.082-10.063c-.033-3.9.616-7.273 1.914-10.142l-1.822-.825c-1.44 3.184-2.127 6.853-2.092 10.983zm1.912-10.139c1.314-2.871 3.169-5.086 5.563-6.678l-1.107-1.665c-2.729 1.815-4.819 4.33-6.274 7.512zm5.558-6.674c2.393-1.568 5.26-2.385 8.643-2.413l-.016-2c-3.708.031-6.963.932-9.723 2.74zm8.643-2.413 29.818-.247-.017-2-29.817.247zm28.809-1.239.105 12.636 2-.016-.105-12.636zm1.097 11.628-28.726.238.016 2 28.726-.238zm-28.726.238c-1.592.013-3.049.379-4.344 1.118l.992 1.737c.967-.552 2.082-.844 3.368-.855zm-4.349 1.121a7.9 7.9 0 0 0-2.987 3.038l1.748.972a5.9 5.9 0 0 1 2.241-2.279zm-2.99 3.043c-.717 1.307-1.059 2.769-1.046 4.361l2-.017c-.01-1.287.263-2.405.799-3.382zm-1.046 4.361c.014 1.605.378 3.064 1.121 4.348l1.732-1.002c-.549-.948-.842-2.059-.853-3.363zm1.121 4.348a7.9 7.9 0 0 0 3.038 2.987l.973-1.747a5.9 5.9 0 0 1-2.279-2.242zm3.043 2.99c1.307.718 2.769 1.059 4.361 1.046l-.017-2c-1.286.011-2.405-.263-3.382-.799zm4.361 1.046 28.726-.239-.016-1.999-28.727.238zm14.536 42.614-.088-.997-.92.082.008.923zm3.531-1.734-.768-.641-.005.006zm.731-7.779-.935.355.004.009zm-1.265-1.808.589-.808zm-1.823-.599-.046.999.016.001h.016zm-1.521.308-.454-.89-.018.009-.018.01zm-1.195 1.147-.821-.57-.006.008-.006.008zm-1.687 4.855.98.201.001-.008zm-.786 3.825-.98-.202v.003zm-2.104 6.631-.903-.431zm-3.122 4.526-.699-.715-.005.005zm-4.024 2.602-.35-.937-.008.003zm-4.902.904.004 1h.013zm-7.791-2.231-.575.819zm-4.895-6.459.928-.374-.001-.001zm-.035-20.705-.932-.363-.001.001zm5.464-7.046-.558-.83-.006.004zm9.57-2.579 1-.009-.008-1.004-1.004.013zm.099 11.999.062.998.946-.058-.008-.948zm-3.581 1.098-.556-.831zm-2.183 2.7-.92-.391-.002.005zm-.187 7.547-.936.352zm1.403 2.057-.615.788zm2.029.71-.012 1 .021.001.021-.001zm1.858-.72-.634-.773-.012.01-.011.01zm1.436-2.193-.921-.39-.005.012zm1.193-4.124.979.206.001-.003zm.962-4.645-.979-.203v.001zm4.396-9.786-.752-.659-.004.005zm8.584-3.594.004 1 .01-.001zm7.77 2.299.578-.816-.001-.001zm5.259 6.615.913-.407v-.002zm.14 19.545-.913-.409zm-5.266 6.385-.551-.834-.007.004zm-7.958 2.339-1 .008.008 1.005 1.005-.013zm-.012-11.094c1.738-.154 3.179-.834 4.215-2.095l-1.545-1.27c-.643.783-1.556 1.259-2.846 1.372zm4.211-2.09c1.057-1.266 1.485-3.071 1.467-5.227l-2 .016c.016 1.935-.379 3.183-1.003 3.93zm1.467-5.227c-.012-1.374-.188-2.573-.573-3.557l-1.862.729c.265.678.425 1.612.435 2.844zm-.569-3.547c-.357-.94-.878-1.726-1.611-2.261l-1.179 1.616c.334.244.657.663.92 1.355zm-1.611-2.261a4.1 4.1 0 0 0-2.398-.791l-.028 2c.482.007.887.143 1.247.407zm-2.367-.79a4 4 0 0 0-2.02.417l.909 1.781a2 2 0 0 1 1.02-.2zm-2.056.436c-.599.337-1.102.836-1.526 1.448l1.643 1.14c.295-.425.588-.69.864-.845zm-1.538 1.464c-.404.608-.75 1.352-1.049 2.209l1.888.66c.263-.754.543-1.334.827-1.762zm-1.049 2.209q-.45 1.294-.786 3.007l1.962.386q.32-1.611.712-2.733zm-.784 2.998-.787 3.825 1.959.403.787-3.825zm-.787 3.828c-.512 2.522-1.192 4.65-2.027 6.399l1.805.862c.922-1.932 1.646-4.225 2.182-6.863zm-2.027 6.399c-.838 1.757-1.816 3.163-2.918 4.242l1.398 1.43c1.302-1.274 2.406-2.885 3.325-4.81zm-2.923 4.247c-1.091 1.081-2.313 1.869-3.67 2.375l.699 1.874c1.635-.61 3.096-1.557 4.379-2.829zm-3.678 2.378c-1.375.527-2.892.81-4.561.838l.034 2c1.877-.032 3.628-.351 5.243-.971zm-4.547.838c-2.891.01-5.277-.69-7.214-2.049l-1.149 1.637c2.331 1.636 5.139 2.423 8.37 2.412zm-7.214-2.049c-1.951-1.37-3.472-3.356-4.541-6.015l-1.856.747c1.19 2.958 2.932 5.279 5.248 6.905zm-4.542-6.016c-1.07-2.648-1.638-5.883-1.67-9.733l-2 .016c.034 4.029.628 7.526 1.816 10.466zm-1.67-9.733c-.033-3.949.524-7.354 1.64-10.236l-1.865-.723c-1.227 3.168-1.809 6.834-1.775 10.975zm1.639-10.235c1.105-2.837 2.806-5.018 5.097-6.582l-1.128-1.652c-2.651 1.81-4.593 4.327-5.832 7.509zm5.091-6.578c2.283-1.536 5.268-2.364 9.024-2.41l-.024-1.999c-4.031.049-7.426.94-10.116 2.749zm8.012-3.401.1 11.999 1.999-.016-.099-12zm1.038 10.993c-1.56.096-2.934.502-4.076 1.265l1.111 1.663c.787-.526 1.801-.853 3.088-.932zm-4.076 1.265c-1.14.761-1.987 1.821-2.547 3.14l1.841.782c.421-.992 1.028-1.732 1.817-2.259zm-2.549 3.145c-.555 1.324-.807 2.853-.793 4.56l2-.017c-.013-1.505.212-2.753.638-3.771zm-.793 4.56c.012 1.423.197 2.675.592 3.725l1.872-.704c-.287-.762-.454-1.764-.464-3.038zm.592 3.725c.387 1.031.949 1.887 1.724 2.493l1.231-1.576c-.414-.324-.789-.839-1.083-1.621zm1.724 2.493a4.27 4.27 0 0 0 2.632.922l.024-2a2.27 2.27 0 0 1-1.425-.498zm2.674.922a3.88 3.88 0 0 0 2.485-.966l-1.314-1.507a1.88 1.88 0 0 1-1.23.474zm2.462-.946c.723-.593 1.282-1.496 1.728-2.589l-1.852-.756c-.385.944-.784 1.503-1.144 1.798zm1.723-2.578c.466-1.102.88-2.546 1.251-4.307l-1.957-.412c-.358 1.7-.74 3.005-1.136 3.94zm1.252-4.31.961-4.645-1.958-.405-.962 4.644zm.961-4.644c.836-4.015 2.245-7.105 4.174-9.336l-1.513-1.308c-2.214 2.56-3.736 5.995-4.619 10.237zm4.169-9.331c1.869-2.133 4.439-3.239 7.836-3.253l-.008-2c-3.876.016-7.028 1.305-9.332 3.935zm7.846-3.254c2.761-.037 5.14.676 7.178 2.116l1.155-1.633c-2.413-1.705-5.213-2.525-8.36-2.482zm7.177 2.116c2.077 1.471 3.723 3.528 4.926 6.209l1.825-.819c-1.33-2.965-3.19-5.319-5.594-7.022zm4.925 6.207c1.2 2.691 1.828 5.811 1.858 9.38l2-.016c-.032-3.794-.7-7.194-2.032-10.179zm1.858 9.38c.03 3.648-.555 6.755-1.718 9.348l1.825.819c1.306-2.912 1.925-6.316 1.893-10.183zm-1.718 9.348c-1.166 2.599-2.803 4.572-4.904 5.96l1.103 1.669c2.45-1.62 4.322-3.903 5.626-6.81zm-4.911 5.964c-2.08 1.398-4.538 2.131-7.413 2.169l.026 2c3.216-.043 6.063-.869 8.503-2.509zm-6.4 3.161-.1-12.091-2 .017.1 12.09z" mask="url('#path-5-outside-3_1_10673')"/><mask id="path-7-outside-4_1_10673" width="53.786" height="336.412" x="119.963" y="3.696" fill="#000" maskUnits="userSpaceOnUse"><path fill="#fff" d="M119.963 3.696h53.786v336.412h-53.786z"/><path d="m171.623 324.611.114 13.636-46.672-14.977-.143-17.272 46.416-15.749.113 13.636-33.641 10.461.003.363zm-18.341 2.698-.213-25.636 9.454-.078.213 25.635zm18.019-41.543-46.544.386-.167-20.181q-.045-5.318 1.358-8.944 1.401-3.648 3.999-5.51 2.598-1.885 6.144-1.915 2.568-.021 4.691 1.098 2.123 1.095 3.571 3.106 1.426 2.011 1.994 4.711l.454-.003q.09-3.001 1.478-5.467a10.45 10.45 0 0 1 3.808-3.941q2.42-1.475 5.715-1.502 3.819-.031 6.812 1.943 2.994 1.953 4.728 5.598 1.735 3.645 1.777 8.712zm-10.195-12.552-.049-5.909q-.027-3.182-1.222-4.763-1.217-1.58-3.558-1.561-1.636.013-2.767.772-1.13.76-1.709 2.151-.579 1.369-.564 3.3l.051 6.091zm-17.636.146-.043-5.182q-.014-1.66-.547-2.927-.534-1.269-1.516-1.965-1.007-.719-2.438-.707-2.16.018-3.283 1.573-1.146 1.555-1.126 3.918l.044 5.364zm3.83-75.239q7.773-.065 13.139 2.914 5.343 2.979 8.135 8.092 2.77 5.113 2.823 11.431.053 6.364-2.655 11.523-2.73 5.136-8.023 8.203-5.316 3.043-13.043 3.108-7.772.064-13.115-2.891-5.366-2.978-8.136-8.069-2.792-5.114-2.845-11.477-.053-6.318 2.655-11.477 2.685-5.159 8-8.226 5.293-3.066 13.065-3.131m.108 13q-4.181.034-7.036 1.172-2.877 1.114-4.336 3.286-1.483 2.148-1.456 5.285.026 3.136 1.543 5.283 1.496 2.124 4.391 3.213 2.872 1.068 7.054 1.033t7.059-1.15q2.854-1.137 4.337-3.286 1.458-2.171 1.433-5.308-.026-3.136-1.521-5.26-1.518-2.147-4.391-3.213-2.895-1.09-7.077-1.055m-23.656-46.198-.105-12.636 29.817-.247q5.317-.045 9.225 2.469 3.885 2.49 6.036 6.996 2.129 4.505 2.178 10.482.05 6.023-2.004 10.562-2.076 4.54-5.918 7.095-3.865 2.532-9.184 2.576l-29.817.248-.105-12.636 28.726-.239q2.16-.017 3.856-.986a6.9 6.9 0 0 0 2.614-2.658q.94-1.712.923-3.872-.018-2.181-.987-3.855a6.9 6.9 0 0 0-2.658-2.615q-1.712-.94-3.871-.922zm10.037-17.453-10.182.084-.335-40.453 10.181-.084.116 13.999 36.363-.301.103 12.454-36.362.301zm-10.891-85.418-.105-12.636 29.817-.248q5.319-.044 9.226 2.47 3.884 2.49 6.035 6.995 2.129 4.505 2.178 10.482.05 6.022-2.003 10.563-2.076 4.539-5.919 7.095-3.865 2.532-9.183 2.576l-29.817.247-.105-12.636 28.726-.238q2.159-.017 3.856-.987a6.9 6.9 0 0 0 2.614-2.658q.94-1.712.922-3.871-.017-2.182-.986-3.856a6.9 6.9 0 0 0-2.658-2.614q-1.713-.94-3.872-.923zM137.08 18.2q-2.271.2-3.531 1.733-1.26 1.511-1.235 4.58.016 1.953.504 3.2.465 1.223 1.265 1.807a3.1 3.1 0 0 0 1.823.599 3 3 0 0 0 1.521-.308q.655-.369 1.195-1.147.516-.777.938-1.985t.749-2.87l.786-3.825q.786-3.87 2.104-6.63 1.319-2.761 3.122-4.527 1.78-1.765 4.024-2.601 2.242-.86 4.902-.905 4.59-.015 7.791 2.231 3.2 2.246 4.895 6.46 1.693 4.19 1.743 10.1.05 6.067-1.708 10.605-1.758 4.515-5.464 7.045-3.729 2.508-9.57 2.58l-.1-12q2.136-.13 3.582-1.098 1.447-.966 2.183-2.7.735-1.755.715-4.165-.016-2.023-.528-3.382-.512-1.36-1.404-2.057a3.27 3.27 0 0 0-2.028-.71 2.88 2.88 0 0 0-1.858.72q-.813.666-1.436 2.194-.647 1.528-1.193 4.123l-.962 4.645q-1.29 6.192-4.396 9.787-3.13 3.57-8.584 3.594-4.432.06-7.77-2.3-3.36-2.38-5.259-6.615-1.9-4.257-1.945-9.78-.046-5.636 1.805-9.765 1.852-4.13 5.266-6.385 3.39-2.278 7.958-2.339z"/></mask><path fill="#05C2DF" fill-opacity=".5" d="m171.623 324.611 1-.008-.006-.743-.713-.209zm.114 13.636-.306.952 1.317.423-.011-1.383zm-46.672-14.977-1 .008.006.723.689.221zm-.143-17.272-.321-.947-.685.232.006.723zm46.416-15.749 1-.009-.011-1.383-1.31.445zm.113 13.636.297.954.71-.22-.007-.743zm-33.641 10.461-.297-.955-.709.22.006.743zm.003.363-1 .009.006.742.713.209zm15.469 12.6-1 .008.008 1 1-.008zm-.213-25.636-.008-1-1 .009.008 1zm9.454-.078 1-.008-.008-1-1 .008zm.213 25.635.008 1 1-.008-.008-1zm7.887-2.611.114 13.636 2-.016-.114-13.636zm1.419 12.676-46.671-14.977-.611 1.904 46.671 14.977zm-45.977-14.033-.143-17.272-2 .016.143 17.272zm-.822-16.317 46.417-15.749-.643-1.894-46.416 15.749zm45.095-16.688.113 13.636 2-.017-.113-13.636zm.817 12.673-33.642 10.461.594 1.91 33.641-10.462zm-34.345 11.424.003.364 2-.017-.003-.364zm.722 1.315 33.81 9.902.562-1.92-33.81-9.901zm16.749 11.631-.212-25.635-2 .017.213 25.635zm-1.204-24.627 9.454-.078-.016-2-9.454.078zm8.446-1.07.213 25.636 2-.017-.213-25.635zm1.204 24.627-9.454.079.017 2 9.454-.079zm8.574-40.464.008 1 1-.009-.008-.999zm-46.544.386-1 .008.009 1 1-.008zm1.191-29.125.932.361.001-.002zm3.999-5.51.583.813.005-.004zm10.835-.817-.466.884.007.004zm3.571 3.106.816-.578-.004-.006zm1.994 4.711-.979.206.169.801.818-.007zm.454-.003.009 1 .963-.008.028-.963zm1.478-5.467.871.49.004-.006zm3.808-3.941.517.856.004-.002zm12.527.441-.551.835.005.003zm4.728 5.598-.902.429zm-8.236 18.069.008 1 1-.009-.008-1zm-1.271-10.672.798-.603-.005-.007zm-8.034 1.362.921.39.002-.005zm-.513 9.391-1 .008.008 1 1-.008zm-7.818.065.008 1 1-.008-.008-1zm-.59-8.109.922-.388zm-1.516-1.965-.582.814.004.002zm-5.721.866.805.593.006-.008zm-1.082 9.282-1 .008.009 1 .999-.008zm36.732 11.332-46.544.386.017 2 46.543-.386zm-45.536 1.378-.167-20.181-2 .016.167 20.181zm-.167-20.181c-.029-3.463.415-6.31 1.29-8.575l-1.865-.721c-.994 2.569-1.455 5.684-1.425 9.312zm1.291-8.577c.88-2.29 2.108-3.952 3.649-5.056l-1.165-1.626c-1.923 1.379-3.362 3.391-4.351 5.965zm3.654-5.06c1.546-1.122 3.386-1.706 5.564-1.724l-.016-2c-2.549.021-4.805.714-6.723 2.105zm5.564-1.724c1.559-.013 2.958.319 4.217.982l.932-1.769c-1.572-.828-3.3-1.228-5.165-1.213zm4.224.986c1.27.656 2.342 1.585 3.219 2.803l1.623-1.169c-1.054-1.463-2.364-2.605-3.924-3.411zm3.214 2.797c.863 1.216 1.478 2.656 1.831 4.338l1.958-.411c-.404-1.918-1.118-3.619-2.157-5.084zm2.818 5.132.455-.003-.017-2-.454.003zm1.446-.974c.055-1.849.508-3.511 1.349-5.006l-1.742-.981c-1.01 1.794-1.542 3.776-1.606 5.928zm1.353-5.012a9.44 9.44 0 0 1 3.45-3.569l-1.034-1.712a11.45 11.45 0 0 0-4.166 4.312zm3.454-3.571c1.435-.875 3.157-1.339 5.203-1.356l-.017-2c-2.348.019-4.436.556-6.227 1.648zm5.203-1.356c2.36-.02 4.433.578 6.252 1.778l1.102-1.669c-2.173-1.434-4.641-2.132-7.371-2.109zm6.257 1.781c1.822 1.188 3.284 2.904 4.372 5.189l1.805-.859c-1.225-2.574-2.916-4.591-5.085-6.005zm4.372 5.189c1.08 2.269 1.652 5.023 1.679 8.292l2-.017c-.029-3.488-.64-6.543-1.874-9.134zm1.679 8.292.182 21.908 2-.016-.182-21.909zm-8.013 9.339-.049-5.909-2 .017.049 5.909zm-.049-5.909c-.019-2.215-.44-4.056-1.424-5.357l-1.595 1.206c.609.807 1.002 2.142 1.019 4.168zm-1.429-5.364c-1.038-1.347-2.547-1.966-4.359-1.951l.016 1.999c1.309-.01 2.172.411 2.758 1.172zm-4.359-1.951c-1.247.01-2.37.307-3.316.942l1.115 1.661c.561-.377 1.282-.596 2.217-.604zm-3.316.942c-.934.628-1.622 1.508-2.075 2.597l1.846.769c.319-.767.771-1.32 1.344-1.705zm-2.073 2.591c-.453 1.07-.654 2.313-.643 3.699l2-.017c-.01-1.19.165-2.147.485-2.902zm-.643 3.699.051 6.09 2-.016-.051-6.091zm1.059 7.082 9.818-.081-.017-2-9.817.081zm-6.826-.943-.043-5.182-2 .017.043 5.181zm-.043-5.182c-.01-1.21-.21-2.319-.625-3.307l-1.844.775c.296.704.461 1.547.469 2.549zm-.625-3.307c-.418-.992-1.032-1.806-1.86-2.393l-1.156 1.632c.482.342.878.838 1.172 1.536zm-1.857-2.39c-.869-.621-1.896-.903-3.027-.894l.016 2c.778-.006 1.376.183 1.848.521zm-3.027-.894c-1.712.014-3.125.658-4.085 1.987l1.621 1.171c.537-.743 1.313-1.148 2.48-1.158zm-4.08 1.979c-.919 1.247-1.336 2.778-1.321 4.521l2-.017c-.012-1.409.322-2.49.931-3.317zm-1.321 4.521.044 5.363 2-.016-.044-5.364zm1.052 6.355 8.909-.074-.016-2-8.909.074zm25.87-73.399.487-.874-.002-.001zm8.135 8.092.88-.477-.002-.003zm.168 22.954.883.469.003-.005zm-8.023 8.203.497.868.004-.003zm-26.158.217-.486.874.002.001zm-8.136-8.069.879-.478-.001-.002zm-.19-22.954.885.465.002-.003zm8-8.226.5.866.001-.001zm6.137 11.041.362.932.009-.003zm-4.336 3.286.823.568.007-.01zm.087 10.568.818-.576-.001-.002zm4.391 3.213-.352.936.004.002zm14.113-.117.361.933.009-.004zm4.337-3.286.823.568.007-.01zm-.088-10.568.818-.575-.002-.002zm-4.391-3.213-.352.935.004.002zm-7.176-13.055c5.054-.042 9.253.906 12.644 2.788l.971-1.749c-3.763-2.088-8.323-3.083-13.632-3.039zm12.643 2.787c3.406 1.899 5.978 4.463 7.745 7.698l1.755-.959c-1.957-3.583-4.808-6.413-8.526-8.486zm7.743 7.695c1.762 3.253 2.668 6.901 2.702 10.964l1.999-.017c-.036-4.361-1.011-8.335-2.942-11.9zm2.702 10.964c.034 4.093-.819 7.769-2.54 11.049l1.771.929c1.888-3.598 2.805-7.604 2.768-11.995zm-2.538 11.044c-1.728 3.251-4.266 5.852-7.641 7.808l1.002 1.73c3.682-2.133 6.493-5.001 8.405-8.599zm-7.637 7.805c-3.361 1.925-7.53 2.935-12.554 2.976l.016 2c5.279-.044 9.805-1.106 13.532-3.24zm-12.554 2.976c-5.056.042-9.248-.899-12.623-2.766l-.968 1.75c3.748 2.074 8.3 3.06 13.607 3.016zm-12.622-2.765c-3.421-1.9-5.992-4.456-7.742-7.673l-1.757.956c1.942 3.57 4.795 6.393 8.528 8.465zm-7.743-7.675c-1.776-3.251-2.689-6.912-2.723-11.005l-2 .016c.036 4.392 1.02 8.382 2.968 11.948zm-2.723-11.005c-.034-4.062.818-7.723 2.54-11.004l-1.771-.93c-1.887 3.598-2.805 7.588-2.769 11.95zm2.542-11.007c1.697-3.261 4.225-5.867 7.613-7.822l-1-1.732c-3.699 2.134-6.505 5.013-8.387 8.63zm7.614-7.823c3.344-1.937 7.518-2.954 12.573-2.996l-.017-2c-5.309.044-9.844 1.114-13.558 3.266zm12.664 8.004c-2.87.023-5.346.425-7.398 1.243l.741 1.858c1.754-.699 3.968-1.079 6.674-1.101zm-7.389 1.239c-2.074.804-3.699 2.015-4.805 3.661l1.66 1.116c.839-1.249 2.105-2.229 3.868-2.912zm-4.798 3.651c-1.127 1.633-1.652 3.607-1.633 5.861l2-.017c-.016-1.927.43-3.477 1.279-4.708zm-1.633 5.861c.018 2.255.576 4.224 1.727 5.852l1.633-1.155c-.873-1.234-1.344-2.787-1.36-4.714zm1.726 5.85c1.132 1.61 2.774 2.791 4.856 3.574l.704-1.872c-1.779-.669-3.064-1.63-3.925-2.853zm4.86 3.576c2.062.766 4.542 1.118 7.411 1.095l-.017-2c-2.708.022-4.93-.314-6.698-.97zm7.411 1.095c2.868-.024 5.348-.418 7.411-1.217l-.722-1.865c-1.774.687-3.999 1.059-6.706 1.082zm7.42-1.221c2.053-.818 3.671-2.025 4.79-3.647l-1.647-1.136c-.857 1.243-2.13 2.227-3.883 2.925zm4.797-3.657c1.106-1.646 1.622-3.622 1.603-5.874l-2 .017c.016 1.93-.424 3.492-1.263 4.741zm1.603-5.874c-.019-2.251-.567-4.213-1.703-5.827l-1.636 1.151c.857 1.218 1.323 2.762 1.339 4.693zm-1.705-5.829c-1.146-1.622-2.787-2.804-4.858-3.574l-.697 1.875c1.759.653 3.045 1.613 3.922 2.854zm-4.854-3.572c-2.079-.782-4.568-1.143-7.438-1.119l.017 2c2.705-.023 4.934.32 6.716.99zm-31.086-46.317-1 .008.008 1 1-.008zm-.105-12.636-.009-1-1 .009.009 1zm39.042 2.222-.541.841.001.001zm6.036 6.996.904-.428-.002-.003zm.174 21.044.91.416.001-.004zm-5.918 7.095.548.837.005-.004zm-39.001 2.824-1 .008.008 1 1-.008zm-.105-12.636-.008-1-1 .008.008 1zm32.582-1.225.496.868.005-.003zm2.614-2.658.874.486.003-.005zm-.064-7.727.866-.501zm-2.658-2.615.487-.873-.005-.003zm-31.598-.692-.104-12.636-2 .017.105 12.635zm-1.096-11.628 29.817-.247-.016-2-29.818.247zm29.817-.247c3.38-.028 6.258.754 8.676 2.31l1.082-1.682c-2.791-1.796-6.063-2.659-9.774-2.628zm8.677 2.311c2.42 1.551 4.313 3.735 5.673 6.584l1.805-.861c-1.507-3.158-3.639-5.638-6.398-7.407zm5.672 6.581c1.345 2.849 2.05 6.195 2.082 10.063l2-.016c-.034-4.102-.782-7.744-2.274-10.902zm2.082 10.063c.032 3.9-.617 7.272-1.915 10.142l1.822.824c1.44-3.183 2.127-6.852 2.093-10.982zm-1.913 10.138c-1.313 2.872-3.169 5.087-5.563 6.678l1.107 1.666c2.73-1.815 4.82-4.33 6.275-7.512zm-5.557 6.675c-2.394 1.567-5.261 2.384-8.644 2.412l.016 2c3.708-.03 6.963-.931 9.724-2.739zm-8.644 2.412-29.817.248.016 2 29.817-.248zm-28.809 1.239-.105-12.636-2 .017.105 12.636zm-1.097-11.627 28.727-.239-.017-2-28.726.239zm28.727-.239c1.592-.013 3.048-.378 4.343-1.118l-.992-1.737c-.967.553-2.081.845-3.368.855zm4.348-1.121a7.9 7.9 0 0 0 2.987-3.037l-1.747-.973a5.9 5.9 0 0 1-2.242 2.279zm2.99-3.042c.718-1.307 1.059-2.769 1.046-4.361l-2 .017c.011 1.286-.263 2.405-.799 3.381zm1.046-4.361c-.013-1.605-.378-3.064-1.121-4.348l-1.731 1.002c.548.947.841 2.059.852 3.363zm-1.121-4.348a7.9 7.9 0 0 0-3.037-2.987l-.973 1.747a5.9 5.9 0 0 1 2.279 2.242zm-3.042-2.99c-1.307-.718-2.769-1.059-4.362-1.046l.017 2c1.287-.011 2.406.263 3.382.799zm-4.362-1.046-28.726.238.017 2 28.726-.238zm-18.68-16.215.008 1 1-.008-.008-1zm-10.182.084-1 .009.009 1 1-.009zm-.335-40.453-.009-1-.999.009.008 1zm10.181-.084 1-.008-.008-1-1 .008zm.116 13.999-1 .009.009 1 1-.009zm36.363-.301 1-.009-.009-1-1 .009zm.103 12.454.008 1 1-.009-.008-1zm-36.362.301-.009-.999-1 .008.009 1zm.108 13-10.182.084.017 2 10.181-.084zm-9.174 1.076-.335-40.453-2 .017.335 40.453zm-1.327-39.445 10.182-.084-.017-2-10.182.084zm9.173-1.076.116 14 2-.017-.116-13.999zm1.125 14.991 36.362-.301-.017-2-36.362.301zm35.354-1.293.103 12.454 2-.017-.103-12.454zm1.095 11.446-36.363.302.017 1.999 36.362-.301zm-37.354 1.31.116 13.999 2-.016-.116-14zm-9.775-71.427-1 .008.008 1 1-.008zm-.105-12.636-.008-1-1 .008.008 1zm39.043 2.221-.541.841.001.001zm6.035 6.996.904-.427-.001-.004zm.175 21.045.909.416.002-.004zm-5.919 7.095.548.836.006-.004zm-39 2.823-1 .008.008 1 1-.008zm-.105-12.636-.009-1-1 .009.009 1zm32.582-1.225.495.869.005-.003zm2.614-2.658.874.487.003-.005zm-.064-7.727.865-.5zm-2.658-2.614.486-.874-.005-.003zm-31.598-.693-.105-12.635-2 .016.105 12.636zm-1.097-11.627 29.818-.248-.017-2-29.817.248zm29.818-.248c3.379-.028 6.257.755 8.676 2.31l1.082-1.682c-2.792-1.795-6.064-2.658-9.775-2.628zm8.677 2.311c2.42 1.552 4.312 3.735 5.673 6.585l1.805-.862c-1.508-3.157-3.639-5.637-6.399-7.406zm5.671 6.581c1.346 2.85 2.05 6.195 2.082 10.064l2-.017c-.034-4.101-.782-7.743-2.274-10.901zm2.082 10.064c.033 3.9-.616 7.272-1.914 10.142l1.822.824c1.44-3.183 2.126-6.853 2.092-10.983zm-1.913 10.138c-1.313 2.872-3.169 5.086-5.562 6.678l1.107 1.665c2.729-1.814 4.819-4.33 6.274-7.511zm-5.557 6.674c-2.393 1.568-5.26 2.385-8.644 2.413l.017 2c3.708-.03 6.963-.931 9.723-2.74zm-8.644 2.413-29.817.247.017 2 29.817-.247zm-28.808 1.239-.105-12.636-2 .017.105 12.636zM123.03 77.96l28.726-.238-.016-2-28.727.238zm28.726-.238c1.592-.013 3.049-.379 4.343-1.118l-.991-1.737c-.967.552-2.082.844-3.368.855zm4.348-1.121a7.9 7.9 0 0 0 2.988-3.037l-1.748-.973a5.9 5.9 0 0 1-2.241 2.279zm2.991-3.042c.717-1.307 1.059-2.77 1.045-4.361l-2 .016c.011 1.287-.262 2.406-.799 3.382zm1.045-4.361c-.013-1.605-.378-3.064-1.121-4.348l-1.731 1.001c.549.948.842 2.06.852 3.363zm-1.121-4.348a7.9 7.9 0 0 0-3.037-2.988l-.973 1.748a5.9 5.9 0 0 1 2.279 2.241zm-3.042-2.99c-1.307-.718-2.769-1.06-4.361-1.047l.017 2c1.286-.01 2.405.263 3.381.8zm-4.361-1.047-28.726.239.016 2 28.727-.239zM137.08 18.2l.088.996.92-.082-.008-.923zm-3.531 1.733.768.641.005-.006zm-.731 7.78.935-.355-.004-.01zm1.265 1.807-.59.808zm1.823.599.046-1h-.032zm1.521-.308.454.89.018-.009.018-.01zm1.195-1.147.821.57.006-.008.005-.008zm1.687-4.855-.98-.201-.002.008zm.786-3.825.98.202v-.002zm2.104-6.63.903.43zm3.122-4.527.699.715.005-.005zm4.024-2.602.349.937.009-.003zm4.902-.904-.004-1h-.013zm7.791 2.231.575-.818zm4.895 6.46-.928.373.001.001zm.035 20.705.932.363.001-.002zm-5.464 7.045.558.83.006-.004zm-9.57 2.58-1 .008.008 1.004 1.004-.012zm-.1-12-.061-.998-.946.058.007.948zm3.582-1.098.556.832zm2.183-2.7.92.39.002-.004zm.187-7.547.936-.352zm-1.404-2.057.616-.788zm-2.028-.71.011-1h-.041zm-1.858.72.634.773.012-.01.011-.01zm-1.436 2.194.921.39.004-.012zm-1.193 4.123-.979-.206-.001.004zm-.962 4.645.979.204v-.002zm-4.396 9.787.752.659.004-.005zm-8.584 3.594-.004-1h-.01zm-7.77-2.3-.578.816.001.001zm-5.259-6.615-.914.407.001.002zm-.14-19.545.913.409zm5.266-6.385.551.834.006-.004zm7.958-2.339 1-.008-.009-1.005-1.004.013zm.012 11.094c-1.738.154-3.179.835-4.216 2.096l1.546 1.27c.643-.784 1.556-1.26 2.846-1.373zm-4.211 2.09c-1.057 1.267-1.485 3.071-1.467 5.227l2-.016c-.016-1.935.379-3.183 1.003-3.93zm-1.467 5.227c.012 1.374.188 2.573.573 3.557l1.862-.729c-.265-.677-.425-1.612-.435-2.844zm.569 3.548c.357.94.878 1.725 1.61 2.26l1.18-1.615c-.334-.244-.657-.664-.92-1.355zm1.61 2.26a4.1 4.1 0 0 0 2.399.79l.028-2a2.1 2.1 0 0 1-1.247-.405zm2.368.79a4 4 0 0 0 2.02-.417l-.909-1.78a2 2 0 0 1-1.02.199zm2.056-.436c.598-.336 1.102-.836 1.526-1.448l-1.643-1.14c-.295.425-.588.69-.864.845zm1.537-1.464c.404-.608.75-1.352 1.05-2.209l-1.888-.66c-.263.754-.543 1.334-.827 1.762zm1.05-2.209q.45-1.294.786-3.006l-1.963-.387c-.211 1.076-.45 1.984-.711 2.734zm.784-2.998.787-3.825-1.959-.403-.787 3.825zm.787-3.827c.512-2.522 1.192-4.65 2.027-6.4l-1.805-.862c-.923 1.933-1.646 4.225-2.182 6.863zm2.027-6.4c.838-1.757 1.815-3.163 2.918-4.242l-1.399-1.43c-1.301 1.274-2.405 2.886-3.324 4.81zm2.923-4.247c1.091-1.081 2.313-1.869 3.669-2.375l-.699-1.873c-1.634.61-3.095 1.556-4.378 2.828zm3.678-2.378c1.375-.527 2.892-.81 4.561-.838l-.034-2c-1.877.032-3.628.352-5.243.97zm4.547-.838c2.891-.01 5.277.69 7.214 2.05l1.149-1.637c-2.331-1.636-5.139-2.424-8.37-2.413zm7.214 2.05c1.951 1.369 3.472 3.355 4.541 6.014l1.856-.746c-1.19-2.96-2.932-5.28-5.248-6.905zm4.542 6.015c1.07 2.648 1.638 5.883 1.67 9.734l2-.017c-.034-4.028-.628-7.526-1.816-10.466zm1.67 9.734c.033 3.949-.524 7.353-1.64 10.235l1.865.723c1.227-3.168 1.809-6.834 1.775-10.975zm-1.64 10.234c-1.105 2.837-2.805 5.018-5.096 6.582l1.128 1.652c2.651-1.81 4.593-4.327 5.832-7.508zm-5.09 6.578c-2.283 1.536-5.268 2.364-9.024 2.41l.024 2c4.031-.05 7.426-.941 10.116-2.75zm-8.012 3.401-.1-12-2 .017.1 12zm-1.038-10.993c1.56-.096 2.934-.501 4.076-1.264l-1.111-1.663c-.787.526-1.801.852-3.088.931zm4.076-1.264c1.14-.762 1.987-1.822 2.547-3.141l-1.841-.781c-.421.991-1.028 1.732-1.817 2.259zm2.549-3.146c.554-1.324.807-2.852.793-4.56l-2 .017c.013 1.505-.212 2.753-.638 3.77zm.793-4.56c-.012-1.422-.197-2.675-.592-3.725l-1.872.704c.287.762.453 1.765.464 3.038zm-.592-3.725c-.388-1.03-.949-1.887-1.724-2.493l-1.231 1.576c.414.324.789.839 1.083 1.62zm-1.724-2.493a4.27 4.27 0 0 0-2.633-.922l-.023 2c.54.006 1.003.169 1.425.498zm-2.674-.922a3.87 3.87 0 0 0-2.485.966l1.314 1.508c.348-.304.745-.46 1.23-.475zm-2.462.946c-.723.593-1.282 1.497-1.728 2.59l1.851.756c.386-.944.785-1.504 1.145-1.799zm-1.723 2.578c-.467 1.102-.88 2.546-1.251 4.307l1.957.412c.358-1.7.74-3.004 1.136-3.94zm-1.252 4.31-.961 4.645 1.958.406.962-4.645zm-.961 4.644c-.836 4.015-2.245 7.105-4.174 9.337l1.513 1.308c2.214-2.56 3.736-5.996 4.619-10.237zm-4.169 9.332c-1.869 2.132-4.44 3.239-7.836 3.253l.008 2c3.876-.016 7.028-1.306 9.332-3.935zm-7.846 3.253c-2.762.037-5.141-.676-7.179-2.116l-1.154 1.633c2.413 1.705 5.213 2.525 8.36 2.483zm-7.178-2.115c-2.076-1.472-3.723-3.528-4.925-6.21l-1.825.819c1.33 2.965 3.19 5.319 5.594 7.022zm-4.924-6.208c-1.201-2.691-1.829-5.811-1.858-9.38l-2 .016c.031 3.795.7 7.194 2.031 10.18zm-1.858-9.38c-.03-3.648.554-6.755 1.718-9.348l-1.825-.819c-1.306 2.913-1.925 6.316-1.893 10.183zm1.718-9.348c1.165-2.599 2.803-4.571 4.904-5.96l-1.103-1.668c-2.45 1.619-4.322 3.903-5.626 6.81zm4.91-5.964c2.081-1.398 4.539-2.13 7.414-2.169l-.026-2c-3.216.043-6.063.87-8.503 2.509zm6.401-3.16.1 12.09 2-.017-.1-12.09z" mask="url('#path-7-outside-4_1_10673')"/><mask id="path-9-outside-5_1_10673" width="53.786" height="336.412" x="325.956" y="1.987" fill="#000" maskUnits="userSpaceOnUse"><path fill="#fff" d="M325.956 1.987h53.786v336.412h-53.786z"/><path d="m377.616 322.902.113 13.636-46.671-14.977-.143-17.272 46.416-15.749.113 13.636-33.641 10.461.003.363zm-18.342 2.698-.212-25.636 9.454-.078.213 25.635zm18.02-41.543-46.544.386-.167-20.181q-.045-5.318 1.357-8.944 1.402-3.647 4-5.51 2.598-1.885 6.144-1.915 2.567-.021 4.691 1.098 2.122 1.095 3.571 3.106 1.426 2.011 1.994 4.711l.454-.003q.09-3.001 1.478-5.467a10.44 10.44 0 0 1 3.808-3.941q2.42-1.475 5.715-1.502 3.819-.031 6.812 1.943 2.994 1.953 4.728 5.598 1.735 3.645 1.777 8.712zm-10.195-12.552-.049-5.909q-.027-3.182-1.222-4.763-1.218-1.58-3.558-1.561-1.636.013-2.767.773-1.13.76-1.709 2.15-.58 1.369-.564 3.3l.051 6.091zm-17.636.146-.043-5.182q-.014-1.66-.547-2.927-.534-1.269-1.516-1.965-1.007-.719-2.438-.707-2.16.018-3.283 1.573-1.146 1.555-1.126 3.918l.044 5.364zm3.83-75.239q7.773-.065 13.139 2.914 5.343 2.979 8.135 8.092 2.77 5.113 2.822 11.431.054 6.364-2.654 11.523-2.73 5.136-8.023 8.203-5.316 3.043-13.043 3.108-7.773.064-13.115-2.891-5.366-2.979-8.136-8.069-2.792-5.114-2.845-11.477-.053-6.318 2.655-11.477 2.684-5.159 8-8.226 5.293-3.066 13.065-3.131m.108 13q-4.182.034-7.036 1.172-2.877 1.114-4.336 3.286-1.482 2.148-1.457 5.285.026 3.136 1.544 5.283 1.495 2.124 4.391 3.213 2.872 1.068 7.054 1.033t7.059-1.15q2.854-1.137 4.337-3.286 1.458-2.171 1.433-5.307-.027-3.137-1.521-5.261-1.518-2.147-4.391-3.213-2.895-1.09-7.077-1.055m-23.657-46.198-.104-12.636 29.817-.247q5.317-.045 9.225 2.469 3.885 2.49 6.036 6.996 2.127 4.505 2.178 10.482.05 6.023-2.004 10.562-2.076 4.54-5.918 7.095-3.866 2.532-9.184 2.576l-29.817.248-.105-12.636 28.726-.239q2.16-.017 3.856-.986a6.9 6.9 0 0 0 2.614-2.658q.94-1.712.923-3.872-.018-2.181-.987-3.855a6.9 6.9 0 0 0-2.658-2.615q-1.713-.94-3.871-.922zm10.038-17.453-10.182.084-.335-40.453 10.181-.084.116 13.999 36.363-.301.103 12.454-36.362.301zm-10.891-85.418-.105-12.636 29.817-.248q5.319-.044 9.226 2.47 3.884 2.49 6.035 6.995 2.128 4.506 2.178 10.482.05 6.022-2.003 10.563-2.076 4.54-5.919 7.095-3.865 2.532-9.183 2.576l-29.818.247-.104-12.636 28.726-.238q2.159-.017 3.855-.987a6.9 6.9 0 0 0 2.615-2.658q.94-1.712.922-3.871-.018-2.182-.986-3.856a6.9 6.9 0 0 0-2.658-2.614q-1.713-.94-3.872-.923zm14.182-43.852q-2.271.2-3.531 1.733-1.26 1.511-1.235 4.58.017 1.953.504 3.2.464 1.223 1.265 1.807a3.1 3.1 0 0 0 1.823.599 3 3 0 0 0 1.52-.308q.657-.369 1.195-1.146.517-.778.939-1.986t.749-2.87l.786-3.824q.786-3.87 2.104-6.632t3.122-4.526q1.78-1.765 4.024-2.601 2.243-.86 4.902-.905 4.59-.015 7.791 2.231 3.2 2.246 4.895 6.46 1.694 4.19 1.743 10.1.05 6.067-1.708 10.605-1.758 4.515-5.464 7.045-3.73 2.508-9.57 2.58l-.1-12q2.136-.13 3.582-1.098 1.447-.966 2.182-2.7.736-1.756.716-4.165-.017-2.022-.528-3.382-.512-1.36-1.404-2.057a3.27 3.27 0 0 0-2.028-.71 2.87 2.87 0 0 0-1.858.72q-.813.666-1.436 2.194-.646 1.527-1.194 4.123l-.961 4.645q-1.29 6.192-4.396 9.787-3.13 3.57-8.584 3.594-4.433.06-7.77-2.3-3.36-2.38-5.259-6.615-1.9-4.257-1.945-9.78-.047-5.635 1.805-9.765t5.266-6.385q3.39-2.278 7.958-2.339z"/></mask><path fill="#05C2DF" fill-opacity=".1" d="m377.616 322.902 1-.008-.006-.743-.713-.209zm.113 13.636-.305.952 1.317.423-.012-1.383zm-46.671-14.977-1 .008.006.723.689.221zm-.143-17.272-.321-.947-.685.232.006.723zm46.416-15.749 1-.009-.011-1.383-1.31.445zm.113 13.636.297.954.709-.22-.006-.743zm-33.641 10.461-.297-.955-.709.22.006.743zm.003.363-1 .009.006.742.713.209zm15.468 12.6-1 .008.009 1 1-.008zm-.212-25.636-.009-1-1 .009.009 1zm9.454-.078 1-.008-.008-1-1 .008zm.213 25.635.008 1 1-.008-.008-1zm7.887-2.611.113 13.636 2-.016-.113-13.636zm1.419 12.676-46.671-14.977-.611 1.904 46.671 14.977zm-45.977-14.033-.143-17.272-2 .016.143 17.272zm-.822-16.317 46.417-15.749-.643-1.894-46.416 15.749zm45.095-16.688.113 13.636 2-.017-.113-13.636zm.816 12.673-33.641 10.461.594 1.91 33.641-10.462zm-34.344 11.424.003.364 2-.017-.003-.363zm.722 1.315 33.81 9.902.562-1.92-33.81-9.901zm16.749 11.632-.212-25.636-2 .017.212 25.635zm-1.204-24.628 9.454-.078-.016-2-9.455.078zm8.446-1.07.213 25.636 2-.017-.213-25.635zm1.204 24.627-9.454.079.017 2 9.454-.079zm8.574-40.464.008 1 1-.008-.008-1zm-46.544.386-1 .008.009 1 .999-.008zm1.19-29.125.933.361.001-.002zm4-5.51.583.813.005-.004zm10.835-.817-.466.884.007.004zm3.571 3.106.816-.578-.004-.006zm1.994 4.711-.979.206.169.801.818-.007zm.454-.003.009 1 .962-.008.029-.963zm1.478-5.467.871.49.004-.006zm3.808-3.941.517.856.004-.002zm12.527.441-.551.835.005.003zm4.728 5.598-.903.429zm-8.236 18.069.008 1 1-.009-.008-1zm-1.271-10.672.798-.603-.006-.007zm-8.034 1.362.921.39.002-.005zm-.513 9.391-1 .008.008 1 1-.008zm-7.818.065.008 1 1-.008-.008-1zm-.59-8.109.922-.388zm-1.516-1.965-.582.814.003.002zm-5.721.866.805.593.006-.007zm-1.082 9.282-1 .008.008 1 1-.008zm36.732 11.332-46.544.386.016 2 46.544-.386zm-45.536 1.378-.167-20.181-2 .016.167 20.181zm-.167-20.181c-.029-3.463.414-6.31 1.29-8.575l-1.865-.721c-.994 2.569-1.455 5.684-1.425 9.312zm1.291-8.577c.88-2.29 2.108-3.952 3.649-5.056l-1.165-1.626c-1.924 1.379-3.362 3.391-4.351 5.965zm3.654-5.06c1.546-1.122 3.386-1.706 5.564-1.724l-.017-2c-2.548.021-4.804.714-6.722 2.105zm5.564-1.724c1.559-.013 2.958.319 4.217.982l.932-1.769c-1.572-.828-3.3-1.228-5.166-1.213zm4.224.986c1.27.656 2.341 1.585 3.219 2.803l1.623-1.169c-1.055-1.463-2.364-2.605-3.924-3.411zm3.214 2.797c.863 1.216 1.477 2.656 1.831 4.338l1.957-.411c-.403-1.918-1.117-3.619-2.156-5.084zm2.818 5.132.455-.003-.017-2-.454.003zm1.446-.974c.055-1.849.508-3.511 1.349-5.006l-1.743-.981c-1.01 1.794-1.542 3.776-1.605 5.928zm1.353-5.012a9.44 9.44 0 0 1 3.45-3.569l-1.034-1.712a11.44 11.44 0 0 0-4.166 4.312zm3.454-3.571c1.435-.875 3.156-1.339 5.202-1.356l-.016-2c-2.348.019-4.436.556-6.227 1.648zm5.202-1.356c2.361-.02 4.434.578 6.253 1.778l1.102-1.669c-2.173-1.434-4.641-2.132-7.371-2.109zm6.258 1.781c1.822 1.189 3.283 2.904 4.371 5.189l1.806-.859c-1.225-2.574-2.916-4.59-5.085-6.005zm4.371 5.189c1.08 2.269 1.653 5.023 1.68 8.292l2-.017c-.029-3.488-.641-6.543-1.874-9.134zm1.68 8.292.182 21.908 2-.016-.182-21.909zm-8.013 9.339-.049-5.909-2 .017.049 5.909zm-.049-5.909c-.019-2.215-.44-4.056-1.424-5.357l-1.596 1.206c.61.807 1.003 2.142 1.02 4.168zm-1.43-5.364c-1.037-1.347-2.546-1.966-4.359-1.951l.017 2c1.309-.011 2.172.41 2.758 1.171zm-4.359-1.951c-1.246.01-2.369.307-3.315.943l1.115 1.66c.561-.377 1.282-.596 2.217-.603zm-3.315.943c-.934.627-1.622 1.507-2.075 2.596l1.846.769c.319-.767.771-1.32 1.344-1.705zm-2.073 2.59c-.453 1.07-.654 2.313-.643 3.699l2-.017c-.01-1.19.165-2.147.485-2.902zm-.643 3.699.051 6.09 2-.016-.051-6.091zm1.059 7.082 9.818-.081-.017-2-9.818.081zm-6.826-.943-.043-5.182-2 .017.043 5.181zm-.043-5.182c-.01-1.21-.21-2.319-.625-3.307l-1.844.776c.296.703.461 1.546.469 2.548zm-.625-3.307c-.418-.992-1.032-1.806-1.86-2.393l-1.157 1.632c.483.342.879.838 1.173 1.537zm-1.857-2.39c-.869-.621-1.896-.903-3.028-.894l.017 2c.778-.006 1.375.183 1.848.521zm-3.028-.894c-1.711.014-3.124.658-4.084 1.987l1.621 1.172c.537-.744 1.313-1.149 2.48-1.159zm-4.079 1.979c-.919 1.247-1.336 2.778-1.321 4.521l2-.017c-.012-1.409.322-2.49.931-3.317zm-1.321 4.521.044 5.363 2-.016-.044-5.364zm1.052 6.355 8.909-.074-.016-2-8.909.074zm25.87-73.399.487-.874h-.002zm8.135 8.092.88-.477-.002-.003zm.168 22.954.883.469.002-.005zm-8.023 8.203.497.868.004-.003zm-26.158.217-.486.874.002.001zm-8.136-8.069.879-.478-.001-.002zm-.19-22.954.885.465.002-.003zm8-8.226.5.866.001-.001zm6.137 11.041.362.932.008-.003zm-4.336 3.286.823.568.007-.01zm.087 10.568.818-.576-.001-.002zm4.391 3.213-.352.936.004.002zm14.113-.117.361.933.009-.004zm4.337-3.286.823.568.006-.01zm-.088-10.568.818-.575-.002-.002zm-4.391-3.213-.352.935.004.002zm-7.176-13.055c5.054-.042 9.253.906 12.644 2.788l.971-1.748c-3.763-2.089-8.323-3.084-13.632-3.04zm12.643 2.787c3.406 1.899 5.978 4.463 7.745 7.698l1.755-.959c-1.957-3.583-4.808-6.413-8.526-8.486zm7.743 7.695c1.762 3.253 2.668 6.901 2.701 10.964l2-.017c-.036-4.361-1.011-8.335-2.942-11.9zm2.701 10.964c.034 4.093-.818 7.769-2.54 11.049l1.771.929c1.889-3.598 2.806-7.604 2.769-11.995zm-2.537 11.044c-1.728 3.251-4.266 5.852-7.642 7.808l1.003 1.73c3.682-2.133 6.492-5.001 8.405-8.599zm-7.637 7.805c-3.361 1.925-7.53 2.935-12.554 2.976l.016 2c5.279-.044 9.805-1.106 13.532-3.24zm-12.554 2.976c-5.056.042-9.248-.899-12.623-2.766l-.968 1.75c3.748 2.074 8.3 3.06 13.607 3.016zm-12.622-2.765c-3.422-1.9-5.992-4.456-7.742-7.673l-1.757.956c1.942 3.57 4.795 6.393 8.528 8.465zm-7.743-7.675c-1.776-3.251-2.689-6.912-2.723-11.005l-2 .016c.036 4.392 1.02 8.382 2.968 11.948zm-2.723-11.005c-.034-4.062.818-7.723 2.54-11.004l-1.771-.93c-1.887 3.598-2.805 7.588-2.769 11.95zm2.542-11.007c1.697-3.261 4.224-5.867 7.613-7.822l-1-1.732c-3.699 2.134-6.505 5.013-8.387 8.63zm7.614-7.823c3.344-1.937 7.518-2.954 12.573-2.996l-.017-2c-5.309.044-9.845 1.114-13.558 3.266zm12.664 8.004c-2.87.023-5.347.425-7.398 1.243l.74 1.858c1.755-.699 3.969-1.079 6.674-1.101zm-7.389 1.239c-2.074.804-3.699 2.015-4.805 3.661l1.66 1.116c.839-1.249 2.105-2.229 3.868-2.912zm-4.798 3.651c-1.127 1.633-1.652 3.607-1.633 5.861l1.999-.017c-.016-1.927.43-3.477 1.28-4.708zm-1.633 5.861c.018 2.255.576 4.224 1.727 5.852l1.633-1.155c-.873-1.234-1.345-2.787-1.361-4.714zm1.726 5.85c1.132 1.61 2.774 2.791 4.856 3.574l.704-1.872c-1.779-.669-3.064-1.63-3.925-2.853zm4.86 3.576c2.062.766 4.542 1.118 7.41 1.095l-.016-2c-2.708.022-4.93-.314-6.698-.97zm7.41 1.095c2.869-.024 5.349-.418 7.412-1.217l-.722-1.865c-1.774.687-3.999 1.059-6.706 1.082zm7.421-1.221c2.053-.818 3.671-2.025 4.79-3.647l-1.647-1.136c-.857 1.243-2.131 2.227-3.883 2.925zm4.796-3.657c1.107-1.646 1.622-3.622 1.604-5.874l-2 .017c.016 1.93-.424 3.492-1.263 4.741zm1.604-5.874c-.019-2.251-.567-4.213-1.703-5.827l-1.636 1.151c.857 1.218 1.323 2.762 1.339 4.693zm-1.705-5.829c-1.146-1.622-2.787-2.804-4.858-3.574l-.697 1.875c1.759.653 3.045 1.613 3.922 2.854zm-4.854-3.572c-2.079-.782-4.568-1.143-7.438-1.119l.016 2c2.706-.023 4.935.32 6.717.99zm-31.087-46.317-1 .008.009 1 1-.008zm-.104-12.636-.009-1-1 .009.009 1zm39.042 2.222-.541.841.001.001zm6.036 6.996.904-.428-.002-.003zm.174 21.044.91.416.001-.004zm-5.918 7.095.548.837.005-.004zm-39.001 2.824-1 .008.008 1 1-.008zm-.105-12.636-.008-1-1 .008.008 1zm32.582-1.225.496.868.005-.003zm2.614-2.658.874.486.003-.005zm-.064-7.727.866-.501zm-2.658-2.615.486-.873-.005-.003zm-31.598-.692-.104-12.636-2 .017.104 12.635zm-1.096-11.628 29.817-.247-.017-2-29.817.247zm29.817-.247c3.38-.028 6.258.754 8.676 2.31l1.082-1.682c-2.791-1.796-6.064-2.659-9.775-2.628zm8.677 2.311c2.42 1.551 4.313 3.735 5.673 6.584l1.805-.861c-1.507-3.157-3.639-5.638-6.398-7.407zm5.671 6.581c1.346 2.849 2.05 6.195 2.083 10.063l1.999-.016c-.034-4.102-.781-7.744-2.273-10.902zm2.083 10.063c.032 3.9-.617 7.272-1.915 10.142l1.822.824c1.44-3.183 2.127-6.852 2.092-10.982zm-1.913 10.138c-1.313 2.872-3.169 5.087-5.563 6.678l1.107 1.666c2.73-1.815 4.82-4.33 6.275-7.512zm-5.557 6.675c-2.394 1.567-5.261 2.384-8.644 2.412l.016 2c3.708-.03 6.963-.931 9.724-2.739zm-8.644 2.412-29.817.248.016 2 29.817-.248zm-28.809 1.239-.105-12.636-2 .017.105 12.636zm-1.097-11.627 28.727-.239-.017-2-28.726.239zm28.727-.239c1.592-.013 3.048-.378 4.343-1.118l-.992-1.737c-.967.553-2.081.845-3.368.855zm4.348-1.121a7.9 7.9 0 0 0 2.987-3.037l-1.747-.973a5.9 5.9 0 0 1-2.242 2.279zm2.99-3.042c.718-1.307 1.059-2.769 1.046-4.361l-2 .017c.011 1.286-.263 2.405-.799 3.381zm1.046-4.361c-.014-1.605-.378-3.064-1.121-4.348l-1.731 1.002c.548.947.841 2.059.852 3.363zm-1.121-4.348a7.9 7.9 0 0 0-3.038-2.987l-.972 1.747a5.9 5.9 0 0 1 2.279 2.242zm-3.043-2.99c-1.306-.718-2.769-1.059-4.361-1.046l.017 2c1.287-.011 2.405.263 3.382.799zm-4.361-1.046-28.726.238.017 2 28.726-.238zm-18.68-16.215.008 1 1-.008-.008-1zm-10.182.084-1 .009.009 1 1-.009zm-.335-40.453-.009-1-1 .009.009 1zm10.181-.084 1-.008-.008-1-1 .008zm.116 13.999-1 .009.009 1 1-.009zm36.363-.301 1-.009-.009-1-1 .009zm.103 12.454.008 1 1-.009-.008-.999zm-36.362.301-.009-.999-1 .008.009 1zm.107 13-10.181.085.017 1.999 10.181-.084zm-9.173 1.076-.335-40.453-2 .017.335 40.453zm-1.327-39.445 10.181-.084-.016-2-10.182.084zm9.173-1.076.116 14 2-.017-.116-13.999zm1.125 14.991 36.362-.301-.017-2-36.362.301zm35.354-1.293.103 12.454 2-.016-.103-12.455zm1.095 11.446-36.363.302.017 1.999 36.362-.301zm-37.354 1.31.116 13.999 2-.016-.116-14zm-9.775-71.427-1 .008.008 1 1-.008zm-.105-12.636-.008-1-1 .008.008 1zm39.043 2.221-.541.842h.001zm6.035 6.996.904-.427-.001-.004zm.175 21.045.909.416.002-.004zm-5.919 7.095.548.836.006-.004zm-39.001 2.823-1 .008.009 1 1-.008zm-.104-12.636-.009-1-1 .009.009 1zm32.581-1.225.496.869.005-.003zm2.615-2.658.874.487.002-.005zm-.064-7.727.865-.5zm-2.658-2.614.486-.874-.005-.003zm-31.598-.693-.105-12.635-2 .016.105 12.636zm-1.097-11.627 29.818-.248-.017-2-29.817.248zm29.818-.248c3.379-.028 6.257.755 8.676 2.31l1.082-1.682c-2.792-1.795-6.064-2.658-9.775-2.628zm8.677 2.311c2.42 1.552 4.312 3.735 5.673 6.585l1.805-.862c-1.508-3.157-3.639-5.637-6.399-7.406zm5.671 6.581c1.346 2.85 2.05 6.195 2.082 10.064l2-.017c-.034-4.101-.782-7.743-2.274-10.901zm2.082 10.064c.032 3.9-.616 7.272-1.914 10.142l1.822.824c1.44-3.183 2.126-6.853 2.092-10.983zm-1.913 10.138c-1.313 2.872-3.169 5.086-5.563 6.678l1.108 1.665c2.729-1.814 4.819-4.33 6.274-7.511zm-5.557 6.674c-2.393 1.568-5.261 2.385-8.644 2.413l.017 2c3.707-.03 6.962-.931 9.723-2.74zm-8.644 2.413-29.817.247.017 2 29.817-.247zm-28.809 1.239-.104-12.636-2 .017.104 12.635zm-1.096-11.628 28.726-.238-.016-2-28.727.238zm28.726-.238c1.592-.013 3.048-.379 4.343-1.118l-.991-1.737c-.968.552-2.082.844-3.368.855zm4.348-1.121a7.9 7.9 0 0 0 2.988-3.037l-1.748-.973a5.9 5.9 0 0 1-2.241 2.279zm2.99-3.042c.718-1.307 1.06-2.77 1.046-4.361l-2 .016c.011 1.287-.263 2.406-.799 3.382zm1.046-4.361c-.013-1.605-.378-3.065-1.121-4.349l-1.731 1.002c.549.948.842 2.06.852 3.363zm-1.121-4.349a7.9 7.9 0 0 0-3.037-2.987l-.973 1.748a5.9 5.9 0 0 1 2.279 2.241zm-3.042-2.99c-1.307-.717-2.769-1.059-4.361-1.046l.016 2c1.287-.01 2.406.263 3.382.8zm-4.361-1.046-28.726.239.016 2 28.726-.239zm-14.536-42.613.088.996.92-.081-.008-.924zm-3.531 1.733.768.641.004-.006zm-.731 7.78.935-.356-.004-.009zm1.265 1.807-.59.808zm1.823.599.046-1h-.032zm1.52-.308.455.89.018-.009.018-.01zm1.195-1.146.822.57.006-.009.005-.008zm1.688-4.856-.98-.201-.002.008zm.786-3.825.98.202v-.002zm2.104-6.63.903.43zm3.122-4.527.699.715.005-.005zm4.024-2.601.349.936.009-.003zm4.902-.905-.004-1h-.013zm7.791 2.231.575-.818zm4.895 6.46-.928.373.001.002zm.035 20.705.932.362.001-.001zm-5.464 7.045.558.83.006-.004zm-9.57 2.58-1 .008.008 1.004 1.004-.012zm-.1-12-.061-.998-.947.058.008.948zm3.582-1.098.556.832zm2.182-2.7.921.39.002-.004zm.188-7.547.936-.352zm-1.404-2.057.616-.788zm-2.028-.71.011-1h-.041zm-1.858.72.634.773.011-.01.012-.01zm-1.436 2.194.921.39.004-.012zm-1.194 4.123-.978-.206-.001.004zm-.961 4.645.979.204v-.002zm-4.396 9.787.752.659.004-.005zm-8.584 3.594-.005-1h-.009zm-7.77-2.3-.578.816.001.001zm-5.259-6.615-.914.407.001.002zm-.14-19.545.913.409zm5.266-6.385.551.834.006-.004zm7.958-2.339 1-.008-.009-1.005-1.005.013zm.012 11.095c-1.738.153-3.179.834-4.216 2.095l1.545 1.27c.644-.784 1.557-1.26 2.847-1.373zm-4.211 2.089c-1.057 1.267-1.485 3.071-1.467 5.227l2-.016c-.016-1.935.379-3.183 1.003-3.93zm-1.467 5.227c.012 1.374.188 2.573.573 3.557l1.862-.729c-.265-.677-.425-1.612-.435-2.844zm.569 3.548c.357.94.877 1.725 1.61 2.26l1.18-1.615c-.335-.244-.658-.664-.92-1.356zm1.61 2.26a4.1 4.1 0 0 0 2.399.79l.028-2a2.1 2.1 0 0 1-1.247-.405zm2.367.79a4 4 0 0 0 2.021-.416l-.909-1.782a2 2 0 0 1-1.02.2zm2.057-.436c.598-.336 1.102-.836 1.526-1.448l-1.643-1.14c-.295.425-.588.69-.864.845zm1.537-1.464c.404-.608.75-1.352 1.05-2.209l-1.889-.66c-.263.754-.542 1.334-.826 1.762zm1.05-2.209q.45-1.294.786-3.006l-1.963-.387q-.318 1.612-.712 2.734zm.784-2.998.787-3.825-1.96-.403-.786 3.825zm.787-3.827c.512-2.522 1.192-4.65 2.027-6.4l-1.805-.862c-.923 1.933-1.646 4.225-2.182 6.864zm2.027-6.4c.838-1.757 1.815-3.163 2.918-4.242l-1.399-1.43c-1.301 1.275-2.405 2.886-3.324 4.81zm2.923-4.247c1.091-1.081 2.313-1.869 3.669-2.375l-.699-1.873c-1.634.61-3.095 1.556-4.378 2.828zm3.678-2.378c1.375-.527 2.892-.81 4.56-.838l-.033-2c-1.877.032-3.628.352-5.243.97zm4.547-.838c2.891-.01 5.277.69 7.214 2.05l1.149-1.637c-2.331-1.636-5.139-2.424-8.37-2.413zm7.214 2.05c1.951 1.369 3.472 3.355 4.541 6.014l1.856-.746c-1.19-2.96-2.932-5.28-5.248-6.905zm4.542 6.016c1.07 2.647 1.638 5.882 1.67 9.732l2-.016c-.034-4.028-.628-7.526-1.816-10.466zm1.67 9.732c.032 3.95-.524 7.354-1.64 10.236l1.865.723c1.227-3.168 1.809-6.834 1.775-10.975zm-1.64 10.235c-1.105 2.837-2.805 5.018-5.096 6.582l1.128 1.652c2.65-1.81 4.593-4.326 5.832-7.508zm-5.09 6.578c-2.283 1.536-5.268 2.364-9.024 2.41l.024 2c4.031-.05 7.426-.94 10.116-2.75zm-8.012 3.401-.1-12-2 .017.1 12zm-1.038-10.993c1.56-.096 2.934-.501 4.076-1.264l-1.111-1.663c-.787.526-1.801.852-3.088.931zm4.076-1.264c1.14-.762 1.987-1.822 2.547-3.141l-1.841-.781c-.421.991-1.028 1.732-1.817 2.259zm2.549-3.146c.554-1.324.807-2.852.793-4.56l-2 .017c.012 1.505-.212 2.753-.638 3.77zm.793-4.56c-.012-1.423-.197-2.675-.592-3.725l-1.872.704c.287.762.453 1.765.464 3.038zm-.592-3.725c-.388-1.03-.949-1.887-1.724-2.493l-1.231 1.576c.414.324.789.839 1.083 1.62zm-1.724-2.493a4.27 4.27 0 0 0-2.633-.922l-.023 2c.539.006 1.003.169 1.425.498zm-2.674-.922a3.87 3.87 0 0 0-2.485.966l1.314 1.508c.348-.304.745-.46 1.23-.475zm-2.462.946c-.724.593-1.282 1.497-1.728 2.59l1.851.756c.386-.944.785-1.504 1.145-1.799zm-1.723 2.578c-.467 1.102-.88 2.546-1.251 4.307l1.957.412c.358-1.7.74-3.004 1.136-3.94zm-1.252 4.31L354.919 28l1.958.406.962-4.645zM354.919 28c-.836 4.015-2.245 7.105-4.174 9.337l1.513 1.308c2.213-2.56 3.736-5.996 4.619-10.237zm-4.169 9.332c-1.869 2.132-4.44 3.239-7.837 3.253l.009 2c3.876-.016 7.027-1.306 9.332-3.935zm-7.846 3.253c-2.762.037-5.141-.676-7.179-2.116l-1.154 1.633c2.413 1.705 5.213 2.525 8.36 2.483zm-7.178-2.116c-2.077-1.471-3.723-3.527-4.925-6.208l-1.825.818c1.33 2.965 3.19 5.319 5.594 7.022zm-4.924-6.207c-1.201-2.691-1.829-5.811-1.858-9.38l-2 .016c.031 3.795.7 7.194 2.031 10.18zm-1.858-9.38c-.031-3.648.554-6.755 1.718-9.348l-1.825-.819c-1.306 2.913-1.925 6.316-1.893 10.183zm1.718-9.348c1.165-2.599 2.803-4.571 4.904-5.96l-1.103-1.668c-2.45 1.619-4.322 3.903-5.626 6.81zm4.91-5.964c2.081-1.398 4.539-2.13 7.414-2.169l-.027-2c-3.215.043-6.062.87-8.502 2.509zm6.401-3.16.1 12.09 2-.017-.1-12.09z" mask="url('#path-9-outside-5_1_10673')"/></svg>