<svg xmlns="http://www.w3.org/2000/svg" width="86" height="84" fill="none"><g clip-path="url('#clip0_1_7726')"><path stroke="#05C2DF" stroke-linecap="round" d="M77.84 7.079v73.59H25.052v-1.86c0-1.066-.878-1.916-1.941-1.916s-1.94.85-1.94 1.916v1.86H8.724V27.842c0-.498.412-.916.94-.916h12.506V14.629c0-.498.413-.916.94-.916h4.823V7.08c0-.498.413-.916.94-.916h6.744V1.416c0-.498.413-.916.94-.916.528 0 .941.418.941.916v4.747h6.743c.528 0 .941.418.941.916v6.634h3.881V7.08c0-.498.413-.916.941-.916h26.893c.528 0 .941.418.941.916ZM44.019 77.5V51.073M50.125 77.427V51M56.231 77.427V51"/><path fill="#05C2DF" stroke="#05040B" stroke-linecap="round" stroke-width=".5" d="M58.6 16.517c0 .64-.53 1.166-1.192 1.166s-1.19-.526-1.19-1.166V14.63c0-.64.529-1.166 1.19-1.166.662 0 1.191.526 1.191 1.166zM64.362 16.517c0 .64-.529 1.166-1.19 1.166-.662 0-1.191-.526-1.191-1.166V14.63c0-.64.529-1.166 1.19-1.166.662 0 1.191.526 1.191 1.166zM70.126 16.517c0 .64-.53 1.166-1.191 1.166-.662 0-1.19-.526-1.19-1.166V14.63c0-.64.528-1.166 1.19-1.166s1.19.526 1.19 1.166zM58.6 25.955c0 .64-.53 1.166-1.192 1.166s-1.19-.526-1.19-1.166v-1.888c0-.64.529-1.166 1.19-1.166.662 0 1.191.526 1.191 1.166zM64.362 25.955c0 .64-.529 1.166-1.19 1.166-.662 0-1.191-.526-1.191-1.166v-1.888c0-.64.529-1.166 1.19-1.166.662 0 1.191.526 1.191 1.166zM70.126 25.955c0 .64-.53 1.166-1.191 1.166-.662 0-1.19-.526-1.19-1.166v-1.888c0-.64.528-1.166 1.19-1.166s1.19.526 1.19 1.166zM58.6 35.393c0 .64-.53 1.166-1.192 1.166s-1.19-.526-1.19-1.166v-1.888c0-.64.529-1.165 1.19-1.165.662 0 1.191.526 1.191 1.165zM64.362 35.393c0 .64-.529 1.166-1.19 1.166-.662 0-1.191-.526-1.191-1.166v-1.888c0-.64.529-1.165 1.19-1.165.662 0 1.191.526 1.191 1.165zM70.126 35.393c0 .64-.53 1.166-1.191 1.166-.662 0-1.19-.526-1.19-1.166v-1.888c0-.64.528-1.165 1.19-1.165s1.19.526 1.19 1.165zM18.26 39.169c0 .64-.53 1.165-1.191 1.165-.662 0-1.191-.526-1.191-1.165V37.28c0-.64.529-1.166 1.19-1.166.662 0 1.191.526 1.191 1.166zM24.023 39.169c0 .64-.53 1.165-1.191 1.165-.662 0-1.19-.526-1.19-1.165V37.28c0-.64.528-1.166 1.19-1.166s1.19.526 1.19 1.166zM29.785 39.169c0 .64-.529 1.165-1.19 1.165-.662 0-1.191-.526-1.191-1.165V37.28c0-.64.529-1.166 1.19-1.166.662 0 1.191.526 1.191 1.166zM18.26 48.607c0 .64-.53 1.166-1.191 1.166-.662 0-1.191-.526-1.191-1.166V46.72c0-.64.529-1.165 1.19-1.165.662 0 1.191.526 1.191 1.165zM24.023 48.607c0 .64-.53 1.166-1.191 1.166-.662 0-1.19-.526-1.19-1.166V46.72c0-.64.528-1.165 1.19-1.165s1.19.526 1.19 1.165zM29.785 48.607c0 .64-.529 1.166-1.19 1.166-.662 0-1.191-.526-1.191-1.166V46.72c0-.64.529-1.165 1.19-1.165.662 0 1.191.526 1.191 1.165zM18.26 58.045c0 .64-.53 1.165-1.191 1.165-.662 0-1.191-.526-1.191-1.165v-1.888c0-.64.529-1.166 1.19-1.166.662 0 1.191.526 1.191 1.166zM24.023 58.045c0 .64-.53 1.165-1.191 1.165-.662 0-1.19-.526-1.19-1.165v-1.888c0-.64.528-1.166 1.19-1.166s1.19.526 1.19 1.166zM29.785 58.045c0 .64-.529 1.165-1.19 1.165-.662 0-1.191-.526-1.191-1.165v-1.888c0-.64.529-1.166 1.19-1.166.662 0 1.191.526 1.191 1.166zM18.26 67.483c0 .64-.53 1.166-1.191 1.166-.662 0-1.191-.526-1.191-1.166v-1.888c0-.64.529-1.165 1.19-1.165.662 0 1.191.525 1.191 1.165zM24.023 67.483c0 .64-.53 1.166-1.191 1.166-.662 0-1.19-.526-1.19-1.166v-1.888c0-.64.528-1.165 1.19-1.165s1.19.525 1.19 1.165zM29.785 67.483c0 .64-.529 1.166-1.19 1.166-.662 0-1.191-.526-1.191-1.166v-1.888c0-.64.529-1.165 1.19-1.165.662 0 1.191.525 1.191 1.165zM70.126 44.832c0 .64-.53 1.165-1.191 1.165-.662 0-1.19-.526-1.19-1.165v-1.888c0-.64.528-1.166 1.19-1.166s1.19.526 1.19 1.166zM70.126 54.27c0 .64-.53 1.166-1.191 1.166-.662 0-1.19-.526-1.19-1.166v-1.888c0-.64.528-1.165 1.19-1.165s1.19.526 1.19 1.166zM70.126 63.708c0 .64-.53 1.165-1.191 1.165-.662 0-1.19-.526-1.19-1.165V61.82c0-.64.528-1.166 1.19-1.166s1.19.526 1.19 1.166zM70.126 73.146c0 .64-.53 1.166-1.191 1.166-.662 0-1.19-.526-1.19-1.166v-1.888c0-.64.528-1.165 1.19-1.165s1.19.526 1.19 1.165z"/><path stroke="#05C2DF" stroke-linecap="round" d="M42.315 20H30.79"/><path fill="#05C2DF" fill-rule="evenodd" d="M57.231 42a1 1 0 0 0-1 1v1h2.035v-1a1 1 0 0 0-1-1zM63.337 42a1 1 0 0 0-1 1v1h2.035v-1a1 1 0 0 0-1-1z" clip-rule="evenodd"/></g><defs><clipPath id="clip0_1_7726"><path fill="#fff" d="M.26 0h85.482v84H.26z"/></clipPath></defs></svg>