<svg xmlns="http://www.w3.org/2000/svg" width="110" height="82" fill="none"><path stroke="#05C2DF" stroke-linejoin="round" stroke-width="1.007" d="M48.58 18.175c2.695 3.795 4.12 8.284 4.12 12.983 0 12.208-9.73 22.14-21.69 22.14-11.958 0-21.688-9.932-21.688-22.14S19.052 9.017 31.01 9.017c4.595 0 8.986 1.45 12.7 4.192"/><path stroke="#05C2DF" stroke-width="1.007" d="M31.012 40.013c-4.767 0-8.664-3.963-8.664-8.855s3.897-8.855 8.664-8.855 8.664 3.963 8.664 8.855-3.897 8.855-8.664 8.855ZM108.045 1c-9.063 0-16.436 7.527-16.436 16.779v8.743a14 14 0 0 0-5.825 3.495"/><path stroke="#05C2DF" stroke-width="1.007" d="M47.7 56.03a30.2 30.2 0 0 0 9.966-11.874m32.77 8.436a22.5 22.5 0 0 0-5.41-3.736l-.328-.162M82.065 36.35a14.7 14.7 0 0 0-.558 4v6.774l-1.685-.83a52.8 52.8 0 0 0-20.864-5.351 30.6 30.6 0 0 0 1.596-9.784C60.555 14.528 47.302 1 31.012 1S1.47 14.529 1.47 31.158s13.252 30.158 29.542 30.158c4.987 0 9.688-1.27 13.813-3.507 1.536 1.36 26.908 23.627 40.178 23.627q.244 0 .482-.01c13.28-.566 23.319-11.682 23.74-12.155"/></svg>