<svg xmlns="http://www.w3.org/2000/svg" width="251" height="28" fill="none"><path fill="#fff" d="M17.69 9.46a3.5 3.5 0 0 0-.524-1.189 3.3 3.3 0 0 0-.895-.882 3.7 3.7 0 0 0-1.227-.55 5.7 5.7 0 0 0-1.521-.191q-1.79 0-3.056.856-1.252.857-1.917 2.468-.652 1.61-.652 3.886 0 2.3.626 3.938.627 1.636 1.867 2.505 1.24.87 3.08.87 1.624 0 2.698-.474 1.087-.472 1.624-1.342t.537-2.045l1.227.128h-5.983v-5.063h11.608v3.63q0 3.58-1.521 6.124-1.509 2.531-4.168 3.887-2.646 1.342-6.072 1.342-3.823 0-6.712-1.624-2.889-1.623-4.513-4.628-1.61-3.003-1.61-7.146 0-3.247.984-5.753.996-2.505 2.761-4.231a11.7 11.7 0 0 1 4.078-2.62Q10.723.46 13.37.46q2.328 0 4.321.665 2.008.652 3.541 1.866a9.7 9.7 0 0 1 2.493 2.851 9.1 9.1 0 0 1 1.151 3.618zM28.496 27V.818h18.87v5.727H35.603v4.5h10.79v5.728h-10.79v4.5h11.71V27zM50.175 6.545V.818H72.93v5.727h-7.875V27H58.05V6.545zM89.885.818V27h-7.108V.818zm26.022 0V27h-5.932l-9.46-13.756h-.153V27h-7.108V.818h6.034l9.307 13.705h.204V.818z"/><path fill="#05C2DF" d="M126.493 3.63V.819h19.636v2.813h-8.233V27h-3.171V3.63zm45.53 10.28q0 4.14-1.496 7.158-1.496 3.017-4.103 4.654-2.609 1.636-5.958 1.636t-5.957-1.636-4.104-4.654-1.496-7.159 1.496-7.159 4.104-4.653T160.466.46t5.958 1.637q2.607 1.636 4.103 4.653t1.496 7.16m-3.068 0q0-3.401-1.138-5.741-1.125-2.34-3.055-3.541-1.918-1.202-4.296-1.202-2.377 0-4.308 1.202-1.917 1.201-3.055 3.541-1.125 2.34-1.125 5.74t1.125 5.74q1.137 2.34 3.055 3.541 1.93 1.202 4.308 1.202 2.377 0 4.296-1.202 1.93-1.2 3.055-3.54 1.138-2.34 1.138-5.74M194.536.817h3.17v17.335q0 2.685-1.265 4.794-1.254 2.097-3.541 3.312-2.289 1.2-5.37 1.201-3.081 0-5.369-1.201-2.288-1.215-3.554-3.312-1.253-2.109-1.253-4.794V.818h3.171v17.08q0 1.917.843 3.413.844 1.483 2.404 2.34 1.572.843 3.758.843t3.759-.843q1.572-.857 2.403-2.34.844-1.496.844-3.413zM225.106 9h-3.171q-.28-1.368-.984-2.403a6.6 6.6 0 0 0-1.688-1.74 7.2 7.2 0 0 0-2.186-1.073 8.7 8.7 0 0 0-2.505-.358q-2.378 0-4.309 1.202-1.917 1.201-3.055 3.541-1.125 2.34-1.125 5.74t1.125 5.74q1.138 2.34 3.055 3.541 1.931 1.202 4.309 1.202 1.303 0 2.505-.358a7.3 7.3 0 0 0 2.186-1.061 6.702 6.702 0 0 0 2.672-4.155h3.171q-.358 2.008-1.304 3.592a9.8 9.8 0 0 1-2.352 2.698 10.3 10.3 0 0 1-3.158 1.675 11.8 11.8 0 0 1-3.72.575q-3.35 0-5.958-1.636-2.607-1.637-4.103-4.654t-1.496-7.159 1.496-7.159 4.103-4.653Q211.222.46 214.572.46q1.981 0 3.72.576 1.751.575 3.158 1.687a9.7 9.7 0 0 1 2.352 2.685q.946 1.572 1.304 3.592m5.123 18V.818h3.171v11.66h13.96V.817h3.17V27h-3.17V15.29H233.4V27z"/></svg>