<svg xmlns="http://www.w3.org/2000/svg" width="453" height="95" fill="none"><path fill="#fff" d="M.241 7.864V.545h29.077v7.319H19.256V34h-8.952V7.864zM32.736 34V.545h9.083v13.069H53.84V.545h9.083V34H53.84V20.932H41.82V34zm34.5 0V.545h24.111v7.319H76.32v5.75h13.787v7.318H76.319v5.75h14.963V34zM133.962.545V34h-7.58l-12.088-17.577h-.196V34h-9.082V.545h7.71l11.892 17.512h.261V.545zM138.258 34V.545h24.111v7.319H147.34v5.75h13.787v7.318H147.34v5.75h14.963V34zm37.109 0L165.501.545h10.128l4.574 20.583h.261L185.887.545h7.972l5.423 20.648h.262L204.117.545h10.128L204.379 34h-8.691l-5.684-18.687h-.262L184.058 34zm69.017-23q-.131-1.633-1.225-2.548-1.079-.915-3.284-.915-1.404 0-2.303.343-.882.327-1.307.898-.424.572-.441 1.307-.033.605.212 1.095.262.474.817.866.555.375 1.421.686.867.31 2.059.555l2.744.588q2.777.589 4.753 1.552 1.977.964 3.235 2.27a8.1 8.1 0 0 1 1.846 2.908q.605 1.617.62 3.529-.015 3.3-1.649 5.586-1.634 2.288-4.672 3.48-3.023 1.192-7.269 1.192-4.362 0-7.613-1.29-3.234-1.29-5.031-3.97-1.78-2.696-1.797-6.893h8.625q.082 1.535.768 2.58.686 1.047 1.927 1.585 1.258.54 2.99.54 1.453 0 2.434-.36.98-.36 1.486-.997a2.35 2.35 0 0 0 .523-1.453 2.07 2.07 0 0 0-.506-1.34q-.474-.588-1.569-1.045-1.094-.474-2.956-.883l-3.333-.718q-4.443-.964-7.007-3.218-2.548-2.271-2.532-6.191-.016-3.186 1.698-5.57 1.732-2.402 4.787-3.741 3.07-1.34 7.04-1.34 4.051 0 7.008 1.356t4.558 3.822q1.617 2.45 1.633 5.734zm11.688-3.136V.545h29.076v7.319h-10.062V34h-8.952V7.864zM293.034 34h-9.801L294.276.545h12.414L317.733 34h-9.801l-7.318-24.241h-.262zm-1.829-13.199h18.426v6.796h-18.426zM320.955 34V.545h14.44q3.725 0 6.518 1.356t4.345 3.904q1.552 2.55 1.552 6.11 0 3.594-1.601 6.06-1.584 2.467-4.459 3.725-2.859 1.257-6.681 1.257h-8.625v-7.056h6.795q1.601 0 2.728-.393 1.143-.408 1.748-1.29.621-.882.621-2.303 0-1.438-.621-2.336-.605-.915-1.748-1.34-1.127-.44-2.728-.44h-3.202V34zm19.602-15.355L348.921 34h-9.866l-8.168-15.355zm10.21-10.781V.545h29.077v7.319h-10.063V34h-8.952V7.864zm74.068 9.409q0 5.586-2.173 9.425-2.172 3.823-5.864 5.8-3.692 1.96-8.233 1.96-4.573 0-8.266-1.977-3.675-1.993-5.848-5.815-2.156-3.84-2.156-9.393 0-5.587 2.156-9.41 2.173-3.839 5.848-5.798 3.693-1.977 8.266-1.977 4.541 0 8.233 1.977 3.692 1.96 5.864 5.799 2.173 3.822 2.173 9.409m-9.344 0q0-3.006-.8-5.064-.785-2.075-2.336-3.137-1.536-1.078-3.79-1.078t-3.806 1.078q-1.536 1.062-2.336 3.137-.784 2.058-.784 5.064 0 3.005.784 5.08.8 2.059 2.336 3.136 1.551 1.062 3.806 1.062t3.79-1.062q1.551-1.078 2.336-3.136.8-2.075.8-5.08M429.037 34V.545h23.523v7.319h-14.441v5.75h13.003v7.318h-13.003V34z"/><path fill="#05C2DF" d="m4.423 60.546 9.932 28.161h.392l9.932-28.161h4.247L16.642 94H12.46L.176 60.546zM34.137 94V60.546h11.304q3.92 0 6.436 1.339 2.516 1.323 3.725 3.643 1.208 2.32 1.208 5.276t-1.208 5.244q-1.209 2.286-3.708 3.593-2.5 1.29-6.388 1.29H36.36v-3.658h9.017q2.679 0 4.312-.784 1.65-.785 2.385-2.222.752-1.454.752-3.463t-.752-3.512-2.401-2.32q-1.65-.833-4.362-.833h-7.122V94zm15.747-15.028L58.117 94h-4.704L45.31 78.972zM76.498 94V60.546h4.051v29.86h15.552V94zm52.8-16.727q0 5.292-1.911 9.148t-5.244 5.945q-3.332 2.091-7.612 2.091t-7.612-2.09q-3.333-2.093-5.244-5.946-1.911-3.856-1.911-9.148 0-5.293 1.911-9.148t5.244-5.946q3.332-2.09 7.612-2.09t7.612 2.09q3.333 2.091 5.244 5.946 1.911 3.856 1.911 9.148m-3.921 0q0-4.346-1.453-7.335-1.438-2.99-3.904-4.525-2.451-1.535-5.489-1.535-3.039 0-5.505 1.535-2.45 1.536-3.904 4.525-1.438 2.99-1.438 7.335t1.438 7.334q1.453 2.99 3.904 4.525 2.466 1.536 5.505 1.536t5.489-1.536q2.466-1.536 3.904-4.525 1.453-2.989 1.453-7.334M163.03 71h-4.051q-.36-1.748-1.258-3.071a8.4 8.4 0 0 0-2.156-2.222 9.2 9.2 0 0 0-2.793-1.372 11.2 11.2 0 0 0-3.202-.457q-3.039 0-5.505 1.535-2.45 1.536-3.904 4.525-1.437 2.99-1.438 7.335t1.438 7.334q1.453 2.99 3.904 4.525 2.466 1.536 5.505 1.536 1.666 0 3.202-.458a9.4 9.4 0 0 0 2.793-1.356 8.6 8.6 0 0 0 2.156-2.237q.898-1.34 1.258-3.072h4.051q-.457 2.565-1.666 4.59a12.6 12.6 0 0 1-3.006 3.447 13.2 13.2 0 0 1-4.034 2.14q-2.223.735-4.754.735-4.28 0-7.612-2.09-3.333-2.093-5.244-5.946-1.911-3.856-1.911-9.148 0-5.293 1.911-9.148t5.244-5.946q3.332-2.09 7.612-2.09 2.531 0 4.754.734a13 13 0 0 1 4.034 2.156q1.797 1.405 3.006 3.43 1.209 2.01 1.666 4.591m34.774 6.273q0 5.292-1.911 9.148t-5.244 5.945-7.612 2.091q-4.28 0-7.612-2.09-3.333-2.093-5.244-5.946-1.911-3.856-1.911-9.148 0-5.293 1.911-9.148t5.244-5.946q3.332-2.09 7.612-2.09t7.612 2.09 5.244 5.946q1.911 3.856 1.911 9.148m-3.921 0q0-4.346-1.453-7.335-1.438-2.99-3.905-4.525-2.45-1.535-5.488-1.535t-5.505 1.535q-2.45 1.536-3.904 4.525-1.438 2.99-1.438 7.335t1.438 7.334q1.453 2.99 3.904 4.525 2.466 1.536 5.505 1.536t5.488-1.536q2.467-1.536 3.905-4.525 1.453-2.989 1.453-7.334m10.733-16.727h4.835l11.369 27.77h.392l11.369-27.77h4.836V94h-3.79V68.582h-.327L222.846 94h-3.659l-10.455-25.418h-.327V94h-3.789zm69.151 16.727q0 5.292-1.912 9.148t-5.243 5.945q-3.333 2.091-7.612 2.091-4.28 0-7.613-2.09-3.332-2.093-5.243-5.946-1.911-3.856-1.911-9.148 0-5.293 1.911-9.148t5.243-5.946q3.333-2.09 7.613-2.09t7.612 2.09 5.243 5.946q1.912 3.856 1.912 9.148m-3.921 0q0-4.346-1.454-7.335-1.437-2.99-3.904-4.525-2.45-1.535-5.488-1.535t-5.505 1.535q-2.45 1.536-3.904 4.525-1.438 2.99-1.438 7.335t1.438 7.334q1.453 2.99 3.904 4.525 2.466 1.536 5.505 1.536t5.488-1.536q2.467-1.536 3.904-4.525 1.454-2.989 1.454-7.334m7.51-13.134v-3.593h25.091v3.593h-10.52V94h-4.051V64.14zm35.395-3.593V94H308.7V60.546zm36.35 16.727q0 5.292-1.912 9.148t-5.243 5.945q-3.333 2.091-7.612 2.091-4.28 0-7.613-2.09-3.332-2.093-5.243-5.946-1.911-3.856-1.911-9.148 0-5.293 1.911-9.148t5.243-5.946q3.332-2.09 7.613-2.09 4.28 0 7.612 2.09 3.332 2.091 5.243 5.946 1.912 3.856 1.912 9.148m-3.921 0q0-4.346-1.454-7.335-1.437-2.99-3.904-4.525-2.45-1.535-5.488-1.535t-5.505 1.535q-2.45 1.536-3.904 4.525-1.438 2.99-1.438 7.335t1.438 7.334q1.453 2.99 3.904 4.525 2.466 1.536 5.505 1.536t5.488-1.536q2.467-1.536 3.904-4.525 1.455-2.989 1.454-7.334m37.261-16.727V94h-3.921l-18.23-26.267h-.326V94h-4.052V60.546h3.921l18.295 26.332h.327V60.545z"/></svg>