<svg xmlns="http://www.w3.org/2000/svg" width="386" height="44" fill="none"><path fill="#fff" d="M2.154 8.818h8.847l6.085 14.83h.307l6.085-14.83h8.847V35H25.37V19.864h-.204l-5.83 14.931h-4.193l-5.83-15.034H9.11V35H2.154zM61.057 21.91q0 4.372-1.7 7.377-1.701 2.991-4.59 4.538-2.89 1.534-6.443 1.534-3.58 0-6.469-1.547-2.876-1.56-4.576-4.551-1.688-3.005-1.688-7.35 0-4.373 1.688-7.364 1.7-3.004 4.576-4.539 2.89-1.547 6.469-1.547 3.555 0 6.443 1.547 2.889 1.534 4.59 4.539 1.7 2.99 1.7 7.363m-7.312 0q0-2.353-.627-3.963-.613-1.623-1.828-2.455-1.202-.843-2.966-.843t-2.979.844q-1.2.83-1.828 2.454-.613 1.611-.613 3.963t.613 3.976q.627 1.611 1.828 2.454 1.215.832 2.979.832t2.966-.831q1.215-.844 1.828-2.455.627-1.624.627-3.976M64.345 35V8.818h11.302q2.914 0 5.1 1.061 2.187 1.062 3.401 3.056 1.215 1.995 1.215 4.78 0 2.814-1.253 4.744-1.24 1.93-3.49 2.915-2.238.984-5.229.984h-6.75v-5.523h5.318q1.253 0 2.135-.307.895-.32 1.368-1.01.486-.69.486-1.802 0-1.126-.486-1.828-.472-.716-1.368-1.049-.882-.345-2.135-.345h-2.505V35zm15.342-12.017L86.232 35H78.51l-6.392-12.017zM88.393 35V8.818h18.869v5.728H95.501v4.5h10.789v5.727H95.5v4.5h11.711V35zm28.85-20.454V8.818h22.756v5.728h-7.875V35h-7.006V14.546zM142.674 35V8.818h7.108v10.228h9.409V8.818h7.108V35h-7.108V24.773h-9.409V35zm33.801 0h-7.67l8.642-26.182h9.715L195.805 35h-7.671l-5.727-18.972h-.205zm-1.432-10.33h14.421v5.319h-14.421zM220.98 8.819V35h-5.932l-9.46-13.756h-.154V35h-7.108V8.818h6.034l9.307 13.705h.205V8.818z"/><path fill="#05C2DF" d="M250.894 17a9.2 9.2 0 0 0-1.112-2.314 7.2 7.2 0 0 0-1.623-1.764 6.8 6.8 0 0 0-2.123-1.112q-1.189-.384-2.608-.384-2.326 0-4.231 1.202t-3.03 3.541-1.125 5.74 1.138 5.74q1.137 2.34 3.081 3.541t4.372 1.202q2.25 0 3.963-.959a6.8 6.8 0 0 0 2.685-2.736q.97-1.776.971-4.18l.972.205h-7.875v-2.813h9.971v2.813q0 3.233-1.38 5.625a9.54 9.54 0 0 1-3.784 3.707q-2.404 1.304-5.523 1.304-3.477 0-6.111-1.636-2.62-1.637-4.091-4.654-1.457-3.017-1.457-7.159 0-3.106.831-5.587.843-2.492 2.378-4.244a10.4 10.4 0 0 1 3.63-2.685q2.097-.933 4.615-.933 2.072 0 3.861.627a10.4 10.4 0 0 1 3.209 1.751 10 10 0 0 1 2.365 2.698A10.3 10.3 0 0 1 254.167 17zm9.122 18h-3.324l9.614-26.182h3.272L279.192 35h-3.324l-7.824-22.04h-.204zm1.227-10.227h13.398v2.812h-13.398zM283.27 8.818h3.784l8.898 21.733h.307l8.897-21.733h3.785V35h-2.966V15.108h-.256L297.537 35h-2.864l-8.181-19.892h-.256V35h-2.966zm35.198 0V35h-3.171V8.818zm27.118 0V35h-3.068l-14.267-20.557h-.256V35h-3.17V8.818h3.068l14.318 20.608h.256V8.818zM369.828 17a9.2 9.2 0 0 0-1.112-2.314 7.1 7.1 0 0 0-1.624-1.764 6.8 6.8 0 0 0-2.122-1.112q-1.19-.384-2.608-.384-2.327 0-4.231 1.202-1.905 1.201-3.03 3.541t-1.125 5.74 1.137 5.74q1.139 2.34 3.081 3.541 1.943 1.202 4.373 1.202 2.25 0 3.963-.959a6.8 6.8 0 0 0 2.684-2.736q.972-1.776.972-4.18l.971.205h-7.875v-2.813h9.972v2.813q0 3.233-1.381 5.625a9.54 9.54 0 0 1-3.784 3.707q-2.403 1.304-5.522 1.304-3.479 0-6.111-1.636-2.62-1.637-4.091-4.654-1.458-3.017-1.458-7.159 0-3.106.831-5.587.845-2.492 2.378-4.244a10.4 10.4 0 0 1 3.631-2.685q2.097-.933 4.615-.933 2.072 0 3.861.627 1.803.613 3.209 1.751a10 10 0 0 1 2.365 2.698A10.3 10.3 0 0 1 373.101 17zm12.436-8.182-.256 18.818h-2.966l-.256-18.818zm-1.739 26.387a2.22 2.22 0 0 1-1.624-.678 2.22 2.22 0 0 1-.677-1.624q0-.945.677-1.623a2.22 2.22 0 0 1 1.624-.678q.946 0 1.624.678.677.677.677 1.623 0 .627-.319 1.151-.308.524-.831.844a2.2 2.2 0 0 1-1.151.306"/></svg>