<svg xmlns="http://www.w3.org/2000/svg" width="40" height="37" fill="none"><path fill="#fff" d="m20.5 37-3.897-4.5h7.794zM1.278 6.364H3.41l3.705 9.045h.136l3.704-9.045h2.131V18h-1.67V9.58h-.108l-3.432 8.403H6.489l-3.432-8.41h-.108V18h-1.67zm17.9 11.812q-1.228 0-2.143-.562a3.8 3.8 0 0 1-1.42-1.574q-.506-1.011-.506-2.364 0-1.358.506-2.375a3.8 3.8 0 0 1 1.42-1.58q.915-.562 2.143-.562t2.142.563q.915.562 1.42 1.58.506 1.016.506 2.374 0 1.353-.506 2.364a3.8 3.8 0 0 1-1.42 1.574q-.915.562-2.142.562m.005-1.426q.796 0 1.318-.42.524-.42.773-1.12.255-.699.256-1.54 0-.834-.256-1.534a2.5 2.5 0 0 0-.773-1.13q-.523-.426-1.318-.427-.8 0-1.33.427a2.54 2.54 0 0 0-.778 1.13q-.25.7-.25 1.535 0 .84.25 1.54.255.698.779 1.118.528.42 1.33.421M25.142 18V9.273h1.642v1.386h.091q.24-.705.84-1.108.608-.41 1.376-.409a7 7 0 0 1 .721.04v1.625a3 3 0 0 0-.363-.063 3.5 3.5 0 0 0-.523-.04q-.602 0-1.074.256a1.9 1.9 0 0 0-1.011 1.71V18zm9.59.176q-1.29 0-2.222-.551a3.74 3.74 0 0 1-1.432-1.562q-.5-1.012-.5-2.37 0-1.341.5-2.363a3.9 3.9 0 0 1 1.41-1.597q.908-.574 2.124-.574.74 0 1.432.244.693.245 1.244.768.552.522.87 1.357.318.83.318 2.018v.602h-6.938v-1.273h5.273q0-.67-.273-1.187a2.06 2.06 0 0 0-.767-.824q-.488-.302-1.147-.302-.717 0-1.25.353a2.36 2.36 0 0 0-.819.909q-.284.556-.284 1.21v.994q0 .876.307 1.489.312.614.87.938.556.318 1.3.318.484 0 .881-.137.398-.142.688-.42.289-.279.443-.688l1.608.29q-.194.71-.693 1.245a3.36 3.36 0 0 1-1.245.823q-.744.29-1.699.29"/></svg>