<svg xmlns="http://www.w3.org/2000/svg" width="347" height="28" fill="none"><path fill="#fff" d="M23.34.818V27h-5.93L7.948 13.244h-.154V27H.688V.818h6.034l9.306 13.705h.205V.818zm10.471 0V27h-7.108V.818zm27.812 9.818h-7.21a4.9 4.9 0 0 0-.41-1.623 3.7 3.7 0 0 0-.894-1.253 3.7 3.7 0 0 0-1.368-.818q-.806-.294-1.828-.294-1.79 0-3.03.87-1.227.869-1.867 2.492-.626 1.623-.626 3.9 0 2.402.64 4.026.651 1.611 1.878 2.43 1.228.805 2.953.805.985 0 1.765-.243a4.1 4.1 0 0 0 1.355-.73q.575-.472.933-1.137.37-.678.499-1.521l7.21.05q-.127 1.663-.933 3.389-.805 1.713-2.289 3.17-1.47 1.445-3.643 2.327t-5.05.882q-3.605 0-6.469-1.547-2.85-1.546-4.512-4.551-1.65-3.005-1.65-7.35 0-4.373 1.688-7.365 1.688-3.003 4.551-4.538Q46.18.46 49.708.46q2.48 0 4.564.678 2.084.677 3.656 1.981a9.8 9.8 0 0 1 2.532 3.184q.958 1.891 1.163 4.333M64.848 27V.818h18.869v5.727H71.956v4.5h10.79v5.728h-10.79v4.5h11.71V27zm28.85-20.455V.818h22.756v5.727h-7.875V27h-7.006V6.545zm49.564 7.364q0 4.373-1.7 7.376-1.701 2.992-4.59 4.539-2.89 1.534-6.443 1.534-3.579 0-6.469-1.547-2.876-1.56-4.576-4.551-1.688-3.005-1.688-7.35 0-4.373 1.688-7.365 1.7-3.003 4.576-4.538Q126.95.46 130.529.46q3.554 0 6.443 1.547 2.889 1.535 4.59 4.538 1.7 2.993 1.7 7.364m-7.312 0q0-2.353-.627-3.963-.613-1.623-1.828-2.455-1.202-.843-2.966-.843t-2.979.843q-1.201.832-1.828 2.455-.613 1.611-.613 3.963t.613 3.976q.627 1.611 1.828 2.454 1.215.832 2.979.832t2.966-.831q1.215-.844 1.828-2.455.627-1.623.627-3.976M153.723.82h8.846l6.085 14.829h.307l6.086-14.83h8.846V27h-6.954V11.864h-.205l-5.83 14.932h-4.193l-5.829-15.035h-.205V27h-6.954zM187.262 27V.818h18.869v5.727H194.37v4.5h10.789v5.728H194.37v4.5h11.71V27zm22.394 0V.818h18.87v5.727h-11.762v4.5h10.79v5.728h-10.79v4.5h11.71V27zm21.679-20.455V.818h22.756v5.727h-7.875V27h-7.006V6.545z"/><path fill="#05C2DF" d="M263.17.818h3.631l7.261 12.222h.307L281.631.818h3.63l-9.46 15.392V27h-3.17V16.21zm47.052 13.091q0 4.143-1.495 7.16-1.496 3.016-4.104 4.653t-5.958 1.636q-3.348 0-5.957-1.636-2.608-1.637-4.104-4.654t-1.495-7.159q0-4.142 1.495-7.159t4.104-4.653T298.665.46q3.35 0 5.958 1.637 2.608 1.636 4.104 4.653t1.495 7.16m-3.068 0q0-3.4-1.138-5.74-1.125-2.34-3.055-3.541-1.917-1.202-4.296-1.202-2.377 0-4.308 1.202-1.917 1.201-3.055 3.541-1.125 2.34-1.125 5.74t1.125 5.74q1.138 2.34 3.055 3.541 1.93 1.202 4.308 1.202t4.296-1.202q1.93-1.2 3.055-3.54 1.138-2.34 1.138-5.74M332.735.82h3.171v17.334q0 2.685-1.266 4.794-1.253 2.097-3.541 3.312-2.289 1.2-5.37 1.201-3.08 0-5.369-1.201-2.288-1.215-3.554-3.312-1.253-2.109-1.253-4.794V.818h3.171v17.08q0 1.917.843 3.413.844 1.483 2.404 2.34 1.572.843 3.758.843t3.759-.843q1.572-.857 2.403-2.34.844-1.496.844-3.413zm13.081 0-.255 18.817h-2.966L342.339.818zm-1.738 26.386a2.22 2.22 0 0 1-1.624-.678 2.21 2.21 0 0 1-.677-1.624q0-.945.677-1.623a2.22 2.22 0 0 1 1.624-.678q.946 0 1.623.678.678.677.678 1.623 0 .627-.32 1.151-.306.524-.831.844a2.2 2.2 0 0 1-1.15.306"/></svg>