<svg xmlns="http://www.w3.org/2000/svg" width="54" height="34" fill="none"><path fill="#F9F9F9" d="M52.129 0H1.797C.805 0 0 .805 0 1.797v30.108c0 .992.805 1.797 1.797 1.797H52.13c.992 0 1.797-.805 1.797-1.797V1.797C53.926.805 53.12 0 52.129 0"/><path fill="#0066B2" d="M24.816 21.913H22.18l1.647-10.116h2.635zM19.966 11.797l-2.51 6.956-.297-1.496-.89-4.548a1.12 1.12 0 0 0-1.247-.912h-4.153l-.047.172a9.8 9.8 0 0 1 2.755 1.157l2.288 8.8h2.747l4.174-10.129zM40.684 21.926h2.42L40.999 11.81h-2.12a1.21 1.21 0 0 0-1.216.753l-3.93 9.363h2.748l.55-1.5h3.349zm-2.898-3.577 1.385-3.787.778 3.787zM33.939 14.23l.378-2.192a7.7 7.7 0 0 0-2.369-.43c-1.311 0-4.433.58-4.433 3.358 0 2.614 3.646 2.644 3.646 4.02s-3.267 1.126-4.346.258l-.392 2.274c.94.395 1.952.59 2.971.572 1.797 0 4.51-.933 4.51-3.465 0-2.631-3.676-2.876-3.676-4.02s2.584-.997 3.71-.374"/><path fill="#F9A533" d="m17.159 17.257-.89-4.548a1.12 1.12 0 0 0-1.247-.912h-4.153l-.047.172a10.2 10.2 0 0 1 3.908 1.96 7.9 7.9 0 0 1 2.429 3.328"/></svg>