<svg xmlns="http://www.w3.org/2000/svg" width="306" height="28" fill="none"><path fill="#fff" d="M8.335 27 .614.818H8.54l3.58 16.108h.204L16.568.818h6.239l4.244 16.16h.205l3.58-16.16h7.925L31.04 27h-6.801l-4.45-14.625h-.204L15.136 27zm32.728 0V.818h7.107v10.228h9.41V.818h7.108V27H57.58V16.773h-9.41V27zM66.989.818h7.926l5.113 10.637h.205L85.347.817h7.926l-9.614 17.949V27h-7.057v-8.233z"/><path fill="#05C2DF" d="M114.37 27V.818h3.17v12.989h.307L129.608.818h4.142l-10.994 11.813L133.75 27h-3.835l-9.102-12.17-3.273 3.681V27zm24.558 0h-3.324L145.218.818h3.272L158.104 27h-3.324l-7.824-22.04h-.204zm1.227-10.227h13.398v2.812h-13.398zM157.692 3.63V.818h19.636v2.813h-8.233V27h-3.17V3.63zM192.346 27V.818h3.171v23.37h12.17V27zm41.322-13.09q0 4.14-1.496 7.158-1.496 3.017-4.104 4.654-2.607 1.636-5.957 1.636t-5.958-1.636-4.103-4.654q-1.496-3.017-1.496-7.159t1.496-7.159 4.103-4.653Q218.761.46 222.111.46t5.957 1.637q2.609 1.636 4.104 4.653t1.496 7.16m-3.069 0q0-3.401-1.137-5.741-1.125-2.34-3.056-3.541-1.917-1.202-4.295-1.202t-4.308 1.202q-1.918 1.201-3.056 3.541-1.125 2.34-1.125 5.74t1.125 5.74q1.138 2.34 3.056 3.541 1.93 1.202 4.308 1.202t4.295-1.202q1.93-1.2 3.056-3.54 1.137-2.34 1.137-5.74M260.067 9h-3.171q-.28-1.368-.984-2.403a6.6 6.6 0 0 0-1.688-1.74 7.2 7.2 0 0 0-2.186-1.073 8.7 8.7 0 0 0-2.505-.358q-2.379 0-4.309 1.202-1.917 1.201-3.055 3.541-1.125 2.34-1.125 5.74t1.125 5.74q1.138 2.34 3.055 3.541 1.93 1.202 4.309 1.202 1.303 0 2.505-.358a7.3 7.3 0 0 0 2.186-1.061 6.702 6.702 0 0 0 2.672-4.155h3.171q-.359 2.008-1.304 3.592a9.8 9.8 0 0 1-2.352 2.698 10.3 10.3 0 0 1-3.158 1.675 11.8 11.8 0 0 1-3.72.575q-3.35 0-5.958-1.636-2.607-1.637-4.103-4.654t-1.496-7.159 1.496-7.159 4.103-4.653Q246.183.46 249.533.46q1.981 0 3.72.576 1.75.575 3.158 1.687a9.7 9.7 0 0 1 2.352 2.685q.945 1.572 1.304 3.592m27.214 4.91q0 4.14-1.496 7.158-1.496 3.017-4.104 4.654-2.607 1.636-5.957 1.636t-5.957-1.636-4.104-4.654-1.496-7.159 1.496-7.159 4.104-4.653Q272.374.46 275.724.46t5.957 1.637 4.104 4.653q1.496 3.017 1.496 7.16m-3.068 0q0-3.401-1.138-5.741-1.126-2.34-3.055-3.541-1.918-1.202-4.296-1.202-2.377 0-4.308 1.202-1.918 1.201-3.056 3.541-1.125 2.34-1.125 5.74t1.125 5.74q1.138 2.34 3.056 3.541 1.93 1.202 4.308 1.202 2.377 0 4.296-1.202 1.93-1.2 3.055-3.54 1.137-2.34 1.138-5.74m11.927 5.726v-.153q.026-2.442.512-3.886.485-1.444 1.38-2.34a11.2 11.2 0 0 1 2.148-1.649q.755-.461 1.355-1.087.601-.639.946-1.47a4.6 4.6 0 0 0 .358-1.84q0-1.253-.588-2.174a3.95 3.95 0 0 0-1.572-1.42q-.985-.497-2.186-.498-1.049 0-2.02.435t-1.624 1.368q-.652.933-.754 2.442h-3.222q.102-2.175 1.125-3.72a6.8 6.8 0 0 1 2.723-2.366q1.7-.818 3.772-.818 2.25 0 3.911.895 1.675.895 2.583 2.455.92 1.56.92 3.554 0 1.406-.434 2.544a6.3 6.3 0 0 1-1.228 2.032 8.4 8.4 0 0 1-1.917 1.586q-1.125.703-1.803 1.483a4.7 4.7 0 0 0-.984 1.828q-.307 1.061-.333 2.646v.153zm1.637 7.569a2.22 2.22 0 0 1-1.624-.678 2.21 2.21 0 0 1-.678-1.624q0-.945.678-1.623a2.22 2.22 0 0 1 1.624-.678q.946 0 1.623.678.678.677.678 1.623 0 .627-.32 1.151-.306.524-.831.844a2.2 2.2 0 0 1-1.15.306"/></svg>