<svg xmlns="http://www.w3.org/2000/svg" width="88" height="80" fill="none"><rect width="84.397" height="59.592" x="2.062" y="1.92" stroke="#05C2DF" rx="3.5"/><path stroke="#05C2DF" d="M1.562 51.571h85.396"/><path stroke="#05C2DF" stroke-linecap="round" d="M40.072 56.778h7.852"/><path stroke="#05C2DF" d="M27.056 62.038h33.888v5.154H27.056zM16.642 73.399h54.716v5.154H16.642zM17.97 72.873l8.723-5.154h34.614l8.722 5.154z"/><path fill="#05C2DF" d="m24.818 13.727 8 22.364h.091l8-22.364h.773L33.364 37h-1l-8.318-23.273zM46.355 37V13.727h6.818q1.955 0 3.455.83a6 6 0 0 1 2.364 2.318q.863 1.488.863 3.489 0 1.977-.863 3.465a6 6 0 0 1-2.364 2.307q-1.5.819-3.455.819H46.72v-.728h6.454q1.75 0 3.091-.727a5.3 5.3 0 0 0 2.102-2.046q.762-1.317.762-3.09 0-1.785-.761-3.114a5.3 5.3 0 0 0-2.103-2.057q-1.341-.739-3.09-.739h-6.092V37zm8.864-10.59L60.946 37h-.818L54.4 26.41z"/></svg>