<svg xmlns="http://www.w3.org/2000/svg" width="80" height="80" fill="none"><path stroke="#05C2DF" d="M36.014 27.08v-7.01m16.632 14.295h8.11m-37.8 10.447h4.398M44.95 59.52v-7.01"/><rect width="24.567" height="24.567" x="27.716" y="27.442" stroke="#05C2DF" rx="3.5"/><rect width="15.495" height="15.495" x="32.39" y="32.116" stroke="#05C2DF" rx="3.5"/><rect width="18.519" height="18.519" x="60.981" y=".501" stroke="#05C2DF" rx="3.5"/><rect width="9.997" height="9.997" x="65.38" y="4.899" stroke="#05C2DF" rx="2.5"/><rect width="18.519" height="18.519" x=".5" y=".501" stroke="#05C2DF" rx="3.5"/><rect width="9.997" height="9.997" x="4.898" y="4.899" stroke="#05C2DF" rx="2.5"/><rect width="18.519" height="18.519" x="1.325" y="60.432" stroke="#05C2DF" rx="3.5"/><rect width="9.997" height="9.997" x="5.723" y="64.831" stroke="#05C2DF" rx="2.5"/><rect width="18.519" height="18.519" x="60.981" y="60.432" stroke="#05C2DF" rx="3.5"/><rect width="9.997" height="9.997" x="65.38" y="64.831" stroke="#05C2DF" rx="2.5"/><path stroke="#05C2DF" d="M45.223 27.08V9.898h15.12M27.354 37.114H9.897V19.52M52.784 40.963h17.182v18.97M36.564 52.51v17.182H20.205"/><circle cx="36.014" cy="17.595" r="1.974" stroke="#05C2DF"/><circle cx="63.23" cy="34.365" r="1.974" stroke="#05C2DF"/><circle cx="20.619" cy="44.812" r="1.974" stroke="#05C2DF"/><circle cx="44.811" cy="61.857" r="1.974" stroke="#05C2DF"/></svg>