<svg xmlns="http://www.w3.org/2000/svg" width="111" height="82" fill="none"><path stroke="#05C2DF" d="M68.82 41.156c0 7.516-5.964 13.59-13.301 13.59s-13.303-6.074-13.303-13.59c0-7.515 5.966-13.59 13.303-13.59s13.302 6.075 13.302 13.59ZM69.666 26.75c4.574 3.09 7.591 8.388 7.591 14.406s-3.017 11.316-7.591 14.406M69.839 55.422l6.21 8.101"/><path stroke="#05C2DF" d="M75.877 63.7a27.28 27.28 0 0 0 12.077-22.72c0-9.491-4.8-17.848-12.077-22.72l-6.211 8.63"/><path stroke="#05C2DF" d="M82.778 9.806c9.773 6.61 16.218 17.946 16.218 30.822S92.551 64.84 82.778 71.449"/><path stroke="#05C2DF" d="M82.778 9.982 88.989 1c12.683 8.535 21.048 23.176 21.048 39.804s-8.365 31.268-21.048 39.803l-6.383-9.158M41.371 26.75c-4.574 3.09-7.591 8.388-7.591 14.406s3.017 11.316 7.591 14.406M41.2 55.422l-6.212 8.101"/><path stroke="#05C2DF" d="M35.16 63.7a27.28 27.28 0 0 1-12.077-22.72c0-9.491 4.8-17.848 12.077-22.72l6.211 8.63"/><path stroke="#05C2DF" d="M28.26 9.806c-9.773 6.61-16.218 17.946-16.218 30.822s6.445 24.212 16.217 30.821"/><path stroke="#05C2DF" d="M28.26 9.982 22.049 1C9.366 9.535 1 24.176 1 40.804S9.366 72.072 22.05 80.607l6.383-9.158"/></svg>