<svg width="251" height="28" viewBox="0 0 251 28" fill="none" xmlns="http://www.w3.org/2000/svg">
<path d="M17.6903 9.46023C17.5795 9.00852 17.4048 8.61222 17.1662 8.27131C16.9276 7.92188 16.6293 7.62784 16.2713 7.3892C15.9219 7.14205 15.5128 6.95881 15.044 6.83949C14.5838 6.71165 14.0767 6.64773 13.5227 6.64773C12.3295 6.64773 11.3111 6.93324 10.4673 7.50426C9.6321 8.07528 8.9929 8.89773 8.54972 9.97159C8.11506 11.0455 7.89773 12.3409 7.89773 13.858C7.89773 15.392 8.10653 16.7045 8.52415 17.7955C8.94176 18.8864 9.56392 19.7216 10.3906 20.3011C11.2173 20.8807 12.2443 21.1705 13.4716 21.1705C14.554 21.1705 15.4531 21.0128 16.169 20.6974C16.8935 20.3821 17.4347 19.9347 17.7926 19.3551C18.1506 18.7756 18.3295 18.0937 18.3295 17.3097L19.5568 17.4375H13.5739V12.375H25.1818V16.0057C25.1818 18.392 24.6747 20.4332 23.6605 22.1293C22.6548 23.8168 21.2656 25.1122 19.4929 26.0156C17.7287 26.9105 15.7045 27.358 13.4205 27.358C10.8722 27.358 8.63494 26.8168 6.70881 25.7344C4.78267 24.652 3.27841 23.1094 2.19602 21.1065C1.12216 19.1037 0.585227 16.7216 0.585227 13.9602C0.585227 11.7955 0.913352 9.87784 1.5696 8.20739C2.23438 6.53693 3.15483 5.12642 4.33097 3.97585C5.5071 2.81676 6.86648 1.94318 8.40909 1.35511C9.95171 0.758522 11.6051 0.460226 13.3693 0.460226C14.9205 0.460226 16.3608 0.681818 17.6903 1.125C19.0284 1.55966 20.2088 2.18182 21.2315 2.99148C22.2628 3.79261 23.0938 4.7429 23.7244 5.84233C24.3551 6.94176 24.7386 8.14773 24.875 9.46023H17.6903ZM28.4961 27V0.818181H47.3654V6.54545H35.604V11.0455H46.3938V16.7727H35.604V21.2727H47.3143V27H28.4961ZM50.1747 6.54545V0.818181H72.9304V6.54545H65.0554V27H58.0497V6.54545H50.1747ZM89.8853 0.818181V27H82.7773V0.818181H89.8853ZM115.907 0.818181V27H109.975L100.515 13.2443H100.362V27H93.2539V0.818181H99.288L108.595 14.5227H108.799V0.818181H115.907Z" fill="white"/>
<path d="M126.493 3.63068V0.818181H146.129V3.63068H137.896V27H134.725V3.63068H126.493ZM172.023 13.9091C172.023 16.6705 171.525 19.0568 170.527 21.0682C169.53 23.0795 168.162 24.6307 166.424 25.7216C164.685 26.8125 162.699 27.358 160.466 27.358C158.233 27.358 156.248 26.8125 154.509 25.7216C152.77 24.6307 151.402 23.0795 150.405 21.0682C149.408 19.0568 148.909 16.6705 148.909 13.9091C148.909 11.1477 149.408 8.76136 150.405 6.75C151.402 4.73864 152.77 3.1875 154.509 2.09659C156.248 1.00568 158.233 0.460226 160.466 0.460226C162.699 0.460226 164.685 1.00568 166.424 2.09659C168.162 3.1875 169.53 4.73864 170.527 6.75C171.525 8.76136 172.023 11.1477 172.023 13.9091ZM168.955 13.9091C168.955 11.642 168.576 9.72869 167.817 8.16903C167.067 6.60938 166.049 5.42898 164.762 4.62784C163.483 3.8267 162.051 3.42614 160.466 3.42614C158.881 3.42614 157.445 3.8267 156.158 4.62784C154.88 5.42898 153.861 6.60938 153.103 8.16903C152.353 9.72869 151.978 11.642 151.978 13.9091C151.978 16.1761 152.353 18.0895 153.103 19.6491C153.861 21.2088 154.88 22.3892 156.158 23.1903C157.445 23.9915 158.881 24.392 160.466 24.392C162.051 24.392 163.483 23.9915 164.762 23.1903C166.049 22.3892 167.067 21.2088 167.817 19.6491C168.576 18.0895 168.955 16.1761 168.955 13.9091ZM194.536 0.818181H197.706V18.1534C197.706 19.9432 197.284 21.5412 196.441 22.9474C195.605 24.3452 194.425 25.4489 192.9 26.2585C191.374 27.0597 189.584 27.4602 187.53 27.4602C185.476 27.4602 183.686 27.0597 182.161 26.2585C180.635 25.4489 179.451 24.3452 178.607 22.9474C177.772 21.5412 177.354 19.9432 177.354 18.1534V0.818181H180.525V17.8977C180.525 19.1761 180.806 20.3139 181.368 21.3111C181.931 22.2997 182.732 23.0795 183.772 23.6506C184.82 24.2131 186.073 24.4943 187.53 24.4943C188.988 24.4943 190.24 24.2131 191.289 23.6506C192.337 23.0795 193.138 22.2997 193.692 21.3111C194.255 20.3139 194.536 19.1761 194.536 17.8977V0.818181ZM225.106 9H221.935C221.748 8.08807 221.42 7.28693 220.951 6.59659C220.491 5.90625 219.928 5.3267 219.263 4.85795C218.607 4.38068 217.879 4.02273 217.077 3.78409C216.276 3.54545 215.441 3.42614 214.572 3.42614C212.987 3.42614 211.55 3.8267 210.263 4.62784C208.985 5.42898 207.967 6.60938 207.208 8.16903C206.458 9.72869 206.083 11.642 206.083 13.9091C206.083 16.1761 206.458 18.0895 207.208 19.6491C207.967 21.2088 208.985 22.3892 210.263 23.1903C211.55 23.9915 212.987 24.392 214.572 24.392C215.441 24.392 216.276 24.2727 217.077 24.0341C217.879 23.7955 218.607 23.4418 219.263 22.973C219.928 22.4957 220.491 21.9119 220.951 21.2216C221.42 20.5227 221.748 19.7216 221.935 18.8182H225.106C224.867 20.1562 224.433 21.3537 223.802 22.4105C223.171 23.4673 222.387 24.3665 221.45 25.108C220.512 25.8409 219.46 26.3991 218.292 26.7827C217.133 27.1662 215.893 27.358 214.572 27.358C212.339 27.358 210.353 26.8125 208.614 25.7216C206.876 24.6307 205.508 23.0795 204.511 21.0682C203.513 19.0568 203.015 16.6705 203.015 13.9091C203.015 11.1477 203.513 8.76136 204.511 6.75C205.508 4.73864 206.876 3.1875 208.614 2.09659C210.353 1.00568 212.339 0.460226 214.572 0.460226C215.893 0.460226 217.133 0.651988 218.292 1.03551C219.46 1.41903 220.512 1.98153 221.45 2.72301C222.387 3.45596 223.171 4.35085 223.802 5.40767C224.433 6.45596 224.867 7.65341 225.106 9ZM230.229 27V0.818181H233.4V12.4773H247.36V0.818181H250.53V27H247.36V15.2898H233.4V27H230.229Z" fill="#05C2DF"/>
</svg>
