<svg width="386" height="44" viewBox="0 0 386 44" fill="none" xmlns="http://www.w3.org/2000/svg">
<path d="M2.1543 8.81818H11.0009L17.0861 23.6477H17.3929L23.4782 8.81818H32.3248V35H25.3702V19.8636H25.1657L19.3361 34.7955H15.1429L9.31339 19.7614H9.10884V35H2.1543V8.81818ZM61.057 21.9091C61.057 24.8239 60.4902 27.2827 59.3567 29.2855C58.2232 31.2798 56.6934 32.7926 54.7672 33.8239C52.8411 34.8466 50.6934 35.358 48.324 35.358C45.9377 35.358 43.7814 34.8423 41.8553 33.8111C39.9377 32.7713 38.4121 31.2543 37.2786 29.2599C36.1536 27.2571 35.5911 24.8068 35.5911 21.9091C35.5911 18.9943 36.1536 16.5398 37.2786 14.5455C38.4121 12.5426 39.9377 11.0298 41.8553 10.0071C43.7814 8.97585 45.9377 8.46023 48.324 8.46023C50.6934 8.46023 52.8411 8.97585 54.7672 10.0071C56.6934 11.0298 58.2232 12.5426 59.3567 14.5455C60.4902 16.5398 61.057 18.9943 61.057 21.9091ZM53.7445 21.9091C53.7445 20.3409 53.5357 19.0199 53.1181 17.946C52.709 16.8636 52.0996 16.0455 51.29 15.4915C50.4888 14.929 49.5002 14.6477 48.324 14.6477C47.1479 14.6477 46.155 14.929 45.3453 15.4915C44.5442 16.0455 43.9348 16.8636 43.5172 17.946C43.1081 19.0199 42.9036 20.3409 42.9036 21.9091C42.9036 23.4773 43.1081 24.8026 43.5172 25.8849C43.9348 26.9588 44.5442 27.777 45.3453 28.3395C46.155 28.8935 47.1479 29.1705 48.324 29.1705C49.5002 29.1705 50.4888 28.8935 51.29 28.3395C52.0996 27.777 52.709 26.9588 53.1181 25.8849C53.5357 24.8026 53.7445 23.4773 53.7445 21.9091ZM64.3457 35V8.81818H75.6468C77.59 8.81818 79.2903 9.17187 80.7477 9.87926C82.2051 10.5866 83.3386 11.6051 84.1483 12.9347C84.9579 14.2642 85.3627 15.858 85.3627 17.7159C85.3627 19.5909 84.9451 21.1719 84.1099 22.4588C83.2832 23.7457 82.1199 24.7173 80.6199 25.3736C79.1284 26.0298 77.3855 26.358 75.3912 26.358H68.6412V20.8352H73.9593C74.7946 20.8352 75.5062 20.733 76.0943 20.5284C76.6909 20.3153 77.1468 19.9787 77.4622 19.5185C77.786 19.0582 77.948 18.4574 77.948 17.7159C77.948 16.9659 77.786 16.3565 77.4622 15.8878C77.1468 15.4105 76.6909 15.0611 76.0943 14.8395C75.5062 14.6094 74.7946 14.4943 73.9593 14.4943H71.4537V35H64.3457ZM79.6866 22.983L86.2321 35H78.5105L72.1184 22.983H79.6866ZM88.3926 35V8.81818H107.262V14.5455H95.5005V19.0455H106.29V24.7727H95.5005V29.2727H107.211V35H88.3926ZM117.243 14.5455V8.81818H139.999V14.5455H132.124V35H125.118V14.5455H117.243ZM142.674 35V8.81818H149.782V19.0455H159.191V8.81818H166.299V35H159.191V24.7727H149.782V35H142.674ZM176.475 35H168.805L177.447 8.81818H187.162L195.805 35H188.134L182.407 16.0284H182.202L176.475 35ZM175.043 24.6705H189.464V29.9886H175.043V24.6705ZM220.98 8.81818V35H215.048L205.588 21.2443H205.434V35H198.326V8.81818H204.36L213.667 22.5227H213.872V8.81818H220.98Z" fill="white"/>
<path d="M250.894 17C250.613 16.1392 250.242 15.3679 249.782 14.6861C249.33 13.9957 248.789 13.4077 248.159 12.9219C247.536 12.4361 246.829 12.0653 246.036 11.8097C245.244 11.554 244.374 11.4261 243.428 11.4261C241.877 11.4261 240.467 11.8267 239.197 12.6278C237.927 13.429 236.917 14.6094 236.167 16.169C235.417 17.7287 235.042 19.642 235.042 21.9091C235.042 24.1761 235.421 26.0895 236.18 27.6491C236.938 29.2088 237.965 30.3892 239.261 31.1903C240.556 31.9915 242.014 32.392 243.633 32.392C245.133 32.392 246.454 32.0724 247.596 31.4332C248.747 30.7855 249.642 29.8736 250.281 28.6974C250.928 27.5128 251.252 26.1193 251.252 24.517L252.224 24.7216H244.349V21.9091H254.32V24.7216C254.32 26.8778 253.86 28.7528 252.94 30.3466C252.028 31.9403 250.767 33.1761 249.156 34.054C247.553 34.9233 245.713 35.358 243.633 35.358C241.315 35.358 239.278 34.8125 237.522 33.7216C235.775 32.6307 234.411 31.0795 233.431 29.0682C232.46 27.0568 231.974 24.6705 231.974 21.9091C231.974 19.8381 232.251 17.9759 232.805 16.3224C233.367 14.6605 234.16 13.2457 235.183 12.0781C236.205 10.9105 237.416 10.0156 238.813 9.39347C240.211 8.77131 241.749 8.46023 243.428 8.46023C244.809 8.46023 246.096 8.66903 247.289 9.08665C248.491 9.49574 249.561 10.0795 250.498 10.8381C251.444 11.5881 252.232 12.4872 252.863 13.5355C253.494 14.5753 253.928 15.7301 254.167 17H250.894ZM260.016 35H256.692L266.306 8.81818H269.578L279.192 35H275.868L268.044 12.9602H267.84L260.016 35ZM261.243 24.7727H274.641V27.5852H261.243V24.7727ZM283.27 8.81818H287.054L295.952 30.5511H296.259L305.156 8.81818H308.941V35H305.975V15.108H305.719L297.537 35H294.673L286.492 15.108H286.236V35H283.27V8.81818ZM318.468 8.81818V35H315.297V8.81818H318.468ZM345.586 8.81818V35H342.518L328.251 14.4432H327.995V35H324.825V8.81818H327.893L342.211 29.4261H342.467V8.81818H345.586ZM369.828 17C369.547 16.1392 369.176 15.3679 368.716 14.6861C368.264 13.9957 367.723 13.4077 367.092 12.9219C366.47 12.4361 365.763 12.0653 364.97 11.8097C364.177 11.554 363.308 11.4261 362.362 11.4261C360.811 11.4261 359.4 11.8267 358.131 12.6278C356.861 13.429 355.851 14.6094 355.101 16.169C354.351 17.7287 353.976 19.642 353.976 21.9091C353.976 24.1761 354.355 26.0895 355.113 27.6491C355.872 29.2088 356.899 30.3892 358.194 31.1903C359.49 31.9915 360.947 32.392 362.567 32.392C364.067 32.392 365.388 32.0724 366.53 31.4332C367.68 30.7855 368.575 29.8736 369.214 28.6974C369.862 27.5128 370.186 26.1193 370.186 24.517L371.157 24.7216H363.282V21.9091H373.254V24.7216C373.254 26.8778 372.794 28.7528 371.873 30.3466C370.961 31.9403 369.7 33.1761 368.089 34.054C366.487 34.9233 364.646 35.358 362.567 35.358C360.248 35.358 358.211 34.8125 356.456 33.7216C354.709 32.6307 353.345 31.0795 352.365 29.0682C351.393 27.0568 350.907 24.6705 350.907 21.9091C350.907 19.8381 351.184 17.9759 351.738 16.3224C352.301 14.6605 353.094 13.2457 354.116 12.0781C355.139 10.9105 356.349 10.0156 357.747 9.39347C359.145 8.77131 360.683 8.46023 362.362 8.46023C363.743 8.46023 365.03 8.66903 366.223 9.08665C367.425 9.49574 368.494 10.0795 369.432 10.8381C370.378 11.5881 371.166 12.4872 371.797 13.5355C372.427 14.5753 372.862 15.7301 373.101 17H369.828ZM382.264 8.81818L382.008 27.6364H379.042L378.786 8.81818H382.264ZM380.525 35.2045C379.894 35.2045 379.353 34.9787 378.901 34.527C378.45 34.0753 378.224 33.5341 378.224 32.9034C378.224 32.2727 378.45 31.7315 378.901 31.2798C379.353 30.8281 379.894 30.6023 380.525 30.6023C381.156 30.6023 381.697 30.8281 382.149 31.2798C382.6 31.7315 382.826 32.2727 382.826 32.9034C382.826 33.321 382.72 33.7045 382.507 34.054C382.302 34.4034 382.025 34.6847 381.676 34.8977C381.335 35.1023 380.951 35.2045 380.525 35.2045Z" fill="#05C2DF"/>
</svg>
