<svg width="306" height="28" viewBox="0 0 306 28" fill="none" xmlns="http://www.w3.org/2000/svg">
<path d="M8.33523 27L0.613636 0.818181H8.53977L12.1193 16.9261H12.3239L16.5682 0.818181H22.8068L27.0511 16.9773H27.2557L30.8352 0.818181H38.7614L31.0398 27H24.2386L19.7898 12.375H19.5852L15.1364 27H8.33523ZM41.0625 27V0.818181H48.1705V11.0455H57.5795V0.818181H64.6875V27H57.5795V16.7727H48.1705V27H41.0625ZM66.9886 0.818181H74.9148L80.0284 11.4545H80.233L85.3466 0.818181H93.2727L83.6591 18.767V27H76.6023V18.767L66.9886 0.818181Z" fill="white"/>
<path d="M114.37 27V0.818181H117.54V13.8068H117.847L129.608 0.818181H133.75L122.756 12.6307L133.75 27H129.915L120.813 14.8295L117.54 18.5114V27H114.37ZM138.928 27H135.604L145.218 0.818181H148.49L158.104 27H154.78L146.956 4.96023H146.752L138.928 27ZM140.155 16.7727H153.553V19.5852H140.155V16.7727ZM157.692 3.63068V0.818181H177.328V3.63068H169.095V27H165.925V3.63068H157.692ZM192.346 27V0.818181H195.517V24.1875H207.687V27H192.346ZM233.668 13.9091C233.668 16.6705 233.169 19.0568 232.172 21.0682C231.175 23.0795 229.807 24.6307 228.068 25.7216C226.33 26.8125 224.344 27.358 222.111 27.358C219.878 27.358 217.892 26.8125 216.153 25.7216C214.415 24.6307 213.047 23.0795 212.05 21.0682C211.053 19.0568 210.554 16.6705 210.554 13.9091C210.554 11.1477 211.053 8.76136 212.05 6.75C213.047 4.73864 214.415 3.1875 216.153 2.09659C217.892 1.00568 219.878 0.460226 222.111 0.460226C224.344 0.460226 226.33 1.00568 228.068 2.09659C229.807 3.1875 231.175 4.73864 232.172 6.75C233.169 8.76136 233.668 11.1477 233.668 13.9091ZM230.599 13.9091C230.599 11.642 230.22 9.72869 229.462 8.16903C228.712 6.60938 227.693 5.42898 226.406 4.62784C225.128 3.8267 223.696 3.42614 222.111 3.42614C220.526 3.42614 219.089 3.8267 217.803 4.62784C216.524 5.42898 215.506 6.60938 214.747 8.16903C213.997 9.72869 213.622 11.642 213.622 13.9091C213.622 16.1761 213.997 18.0895 214.747 19.6491C215.506 21.2088 216.524 22.3892 217.803 23.1903C219.089 23.9915 220.526 24.392 222.111 24.392C223.696 24.392 225.128 23.9915 226.406 23.1903C227.693 22.3892 228.712 21.2088 229.462 19.6491C230.22 18.0895 230.599 16.1761 230.599 13.9091ZM260.067 9H256.896C256.709 8.08807 256.381 7.28693 255.912 6.59659C255.452 5.90625 254.889 5.3267 254.224 4.85795C253.568 4.38068 252.839 4.02273 252.038 3.78409C251.237 3.54545 250.402 3.42614 249.533 3.42614C247.947 3.42614 246.511 3.8267 245.224 4.62784C243.946 5.42898 242.928 6.60938 242.169 8.16903C241.419 9.72869 241.044 11.642 241.044 13.9091C241.044 16.1761 241.419 18.0895 242.169 19.6491C242.928 21.2088 243.946 22.3892 245.224 23.1903C246.511 23.9915 247.947 24.392 249.533 24.392C250.402 24.392 251.237 24.2727 252.038 24.0341C252.839 23.7955 253.568 23.4418 254.224 22.973C254.889 22.4957 255.452 21.9119 255.912 21.2216C256.381 20.5227 256.709 19.7216 256.896 18.8182H260.067C259.828 20.1562 259.393 21.3537 258.763 22.4105C258.132 23.4673 257.348 24.3665 256.411 25.108C255.473 25.8409 254.42 26.3991 253.253 26.7827C252.094 27.1662 250.854 27.358 249.533 27.358C247.3 27.358 245.314 26.8125 243.575 25.7216C241.837 24.6307 240.469 23.0795 239.472 21.0682C238.474 19.0568 237.976 16.6705 237.976 13.9091C237.976 11.1477 238.474 8.76136 239.472 6.75C240.469 4.73864 241.837 3.1875 243.575 2.09659C245.314 1.00568 247.3 0.460226 249.533 0.460226C250.854 0.460226 252.094 0.651988 253.253 1.03551C254.42 1.41903 255.473 1.98153 256.411 2.72301C257.348 3.45596 258.132 4.35085 258.763 5.40767C259.393 6.45596 259.828 7.65341 260.067 9ZM287.281 13.9091C287.281 16.6705 286.782 19.0568 285.785 21.0682C284.788 23.0795 283.42 24.6307 281.681 25.7216C279.943 26.8125 277.957 27.358 275.724 27.358C273.491 27.358 271.505 26.8125 269.767 25.7216C268.028 24.6307 266.66 23.0795 265.663 21.0682C264.666 19.0568 264.167 16.6705 264.167 13.9091C264.167 11.1477 264.666 8.76136 265.663 6.75C266.66 4.73864 268.028 3.1875 269.767 2.09659C271.505 1.00568 273.491 0.460226 275.724 0.460226C277.957 0.460226 279.943 1.00568 281.681 2.09659C283.42 3.1875 284.788 4.73864 285.785 6.75C286.782 8.76136 287.281 11.1477 287.281 13.9091ZM284.213 13.9091C284.213 11.642 283.833 9.72869 283.075 8.16903C282.325 6.60938 281.306 5.42898 280.02 4.62784C278.741 3.8267 277.309 3.42614 275.724 3.42614C274.139 3.42614 272.703 3.8267 271.416 4.62784C270.137 5.42898 269.119 6.60938 268.36 8.16903C267.61 9.72869 267.235 11.642 267.235 13.9091C267.235 16.1761 267.61 18.0895 268.36 19.6491C269.119 21.2088 270.137 22.3892 271.416 23.1903C272.703 23.9915 274.139 24.392 275.724 24.392C277.309 24.392 278.741 23.9915 280.02 23.1903C281.306 22.3892 282.325 21.2088 283.075 19.6491C283.833 18.0895 284.213 16.1761 284.213 13.9091ZM296.14 19.6364V19.483C296.157 17.8551 296.328 16.5597 296.652 15.5966C296.975 14.6335 297.436 13.8537 298.032 13.2571C298.629 12.6605 299.345 12.1108 300.18 11.608C300.683 11.3011 301.135 10.9389 301.535 10.5213C301.936 10.0952 302.251 9.60511 302.481 9.05114C302.72 8.49716 302.839 7.88352 302.839 7.21023C302.839 6.375 302.643 5.65057 302.251 5.03693C301.859 4.42329 301.335 3.95028 300.679 3.6179C300.022 3.28551 299.294 3.11932 298.493 3.11932C297.794 3.11932 297.12 3.2642 296.473 3.55398C295.825 3.84375 295.284 4.29972 294.849 4.92188C294.414 5.54403 294.163 6.35795 294.095 7.36364H290.873C290.941 5.91477 291.316 4.67472 291.998 3.64347C292.689 2.61222 293.596 1.82386 294.721 1.27841C295.855 0.732953 297.112 0.460226 298.493 0.460226C299.993 0.460226 301.297 0.758522 302.404 1.35511C303.521 1.9517 304.382 2.76989 304.987 3.80966C305.6 4.84943 305.907 6.03409 305.907 7.36364C305.907 8.30114 305.762 9.14915 305.473 9.90767C305.191 10.6662 304.782 11.3437 304.245 11.9403C303.717 12.5369 303.078 13.0653 302.328 13.5256C301.578 13.9943 300.977 14.4886 300.525 15.0085C300.074 15.5199 299.745 16.1293 299.541 16.8366C299.336 17.544 299.225 18.4261 299.208 19.483V19.6364H296.14ZM297.777 27.2045C297.146 27.2045 296.605 26.9787 296.153 26.527C295.701 26.0753 295.475 25.5341 295.475 24.9034C295.475 24.2727 295.701 23.7315 296.153 23.2798C296.605 22.8281 297.146 22.6023 297.777 22.6023C298.407 22.6023 298.949 22.8281 299.4 23.2798C299.852 23.7315 300.078 24.2727 300.078 24.9034C300.078 25.321 299.971 25.7045 299.758 26.054C299.554 26.4034 299.277 26.6847 298.927 26.8977C298.586 27.1023 298.203 27.2045 297.777 27.2045Z" fill="#05C2DF"/>
</svg>
